<?xml version="1.0" standalone="no"?>
<!DOCTYPE svg PUBLIC "-//W3C//DTD SVG 1.1//EN" "http://www.w3.org/Graphics/SVG/1.1/DTD/svg11.dtd" >
<svg xmlns="http://www.w3.org/2000/svg">
<metadata>
Created by FontPrep 20130207 at Sat Jun 27 20:01:38 2015
 By Johannes Lohbihler
Copyright (c) 2015 Monotype Imaging Inc.  All rights reserved.
</metadata>
<defs>
<font id="620a82e875e64c00a49cf19f0ef7c9bf" horiz-adv-x='1024' >
  <font-face 
    font-family="NeueHaasUnicaW1G-Regular"
    font-weight="400"
    font-stretch="normal"
    units-per-em="2048"
    panose-1="2 11 5 4 3 2 6 2 2 3"
    ascent="1565"
    descent="-483"
    x-height="1040"
    cap-height="1458"
    bbox="-1024 -563 2277 2238"
    underline-thickness="102"
    underline-position="-153"
    unicode-range="U+0020-FEFF"
  />
<missing-glyph horiz-adv-x="1275" 
d="M510 133v186h192v-186h-192zM983 1022q0 -86 -32.5 -146t-112.5 -130t-109 -109t-39 -88t-10 -135h-148v55q0 123 30 188.5t115 145.5t106.5 120.5t21.5 104.5t-46 106t-126 42q-182 0 -193 -201h-172q8 170 102.5 259t257.5 89t259 -82t96 -219zM141 1323v-1188
q0 -78 45 -123t123 -45h658q78 0 123 45t45 123v1188q0 78 -45.5 123t-122.5 45h-658q-78 0 -123 -45t-45 -123zM1235 1323v-1188q0 -125 -71.5 -196.5t-196.5 -71.5h-658q-123 0 -195.5 71.5t-72.5 196.5v1188q0 125 72.5 196.5t195.5 71.5h658q125 0 196.5 -71.5
t71.5 -196.5z" />
    <glyph glyph-name="f_f" unicode="ff" horiz-adv-x="1183" 
d="M768 1169q0 299 285 299q59 0 104 -10v-139q-20 6 -59 6q-78 0 -115 -41t-37 -135v-109h207v-143h-207v-897h-178v897h-381v-897h-178v897h-182v143h182v129q0 299 285 299q63 0 104 -10v-139q-18 6 -78 6t-96.5 -41t-36.5 -135v-109h381v129z" />
    <glyph glyph-name="f_f_i" unicode="ffi" horiz-adv-x="1683" 
d="M1524 1040v-1040h-181v1040h181zM1524 1255h-181v203h181v-203zM768 1169q0 299 285 299q59 0 104 -10v-139q-20 6 -59 6q-78 0 -115 -41t-37 -135v-109h207v-143h-207v-897h-178v897h-381v-897h-178v897h-182v143h182v129q0 299 285 299q63 0 104 -10v-139q-18 6 -78 6
t-96.5 -41t-36.5 -135v-109h381v129z" />
    <glyph glyph-name="f_f_l" unicode="ffl" horiz-adv-x="1683" 
d="M946 1149v-109h207v-143h-207v-897h-178v897h-381v-897h-178v897h-182v143h182v129q0 150 73 225t212 74q63 0 104 -10v-139q-18 6 -78 6t-96 -41q-37 -41 -37 -135v-109h381v129q0 150 73 225t212 74q59 0 104 -10v-139q-20 6 -59 6q-78 0 -115 -41t-37 -135zM1343 0
v1458h181v-1458h-181z" />
    <glyph glyph-name="f_i" unicode="fi" horiz-adv-x="1124" 
d="M965 1040v-1040h-181v1040h181zM965 1255h-181v203h181v-203zM209 1169q0 299 285 299q63 0 104 -10v-139q-18 6 -78 6t-96.5 -41t-36.5 -135v-109h207v-143h-207v-897h-178v897h-182v143h182v129z" />
    <glyph glyph-name="f_l" unicode="fl" horiz-adv-x="1124" 
d="M387 1149v-109h207v-143h-207v-897h-178v897h-182v143h182v129q0 150 73 225t212 74q63 0 104 -10v-139q-18 6 -78 6t-96 -41q-37 -41 -37 -135zM784 0v1458h181v-1458h-181z" />
    <glyph glyph-name=".notdef" horiz-adv-x="1275" 
d="M510 133v186h192v-186h-192zM983 1022q0 -86 -32.5 -146t-112.5 -130t-109 -109t-39 -88t-10 -135h-148v55q0 123 30 188.5t115 145.5t106.5 120.5t21.5 104.5t-46 106t-126 42q-182 0 -193 -201h-172q8 170 102.5 259t257.5 89t259 -82t96 -219zM141 1323v-1188
q0 -78 45 -123t123 -45h658q78 0 123 45t45 123v1188q0 78 -45.5 123t-122.5 45h-658q-78 0 -123 -45t-45 -123zM1235 1323v-1188q0 -125 -71.5 -196.5t-196.5 -71.5h-658q-123 0 -195.5 71.5t-72.5 196.5v1188q0 125 72.5 196.5t195.5 71.5h658q125 0 196.5 -71.5
t71.5 -196.5z" />
    <glyph glyph-name=".null" horiz-adv-x="0" 
 />
    <glyph glyph-name="nonmarkingreturn" horiz-adv-x="681" 
 />
    <glyph glyph-name="NULL" horiz-adv-x="1228" 
 />
    <glyph glyph-name="NULL" horiz-adv-x="1228" 
 />
    <glyph glyph-name="space" unicode=" " horiz-adv-x="471" 
 />
    <glyph glyph-name="exclam" unicode="!" horiz-adv-x="563" 
d="M176 0v217h213v-217h-213zM209 358l-43 1100h231l-43 -1100h-145z" />
    <glyph glyph-name="quotedbl" unicode="&#x22;" horiz-adv-x="761" 
d="M162 920l-23 538h176l-22 -538h-131zM469 920l-23 538h177l-23 -538h-131z" />
    <glyph glyph-name="numbersign" unicode="#" horiz-adv-x="1329" 
d="M545 860l-53 -336h294l54 336h-295zM942 524h242l-23 -133h-241l-62 -391h-156l62 391h-295l-61 -391h-156l61 391h-241l20 133h244l53 336h-244l21 135h244l61 385h156l-62 -385h295l62 385h155l-61 -385h241l-22 -135h-240z" />
    <glyph glyph-name="dollar" unicode="$" horiz-adv-x="1150" 
d="M881 361q0 101 -57.5 150.5t-184.5 88.5v-475q119 12 180.5 73.5t61.5 162.5zM295 1042q0 -94 51 -141t166 -80v436q-217 -23 -217 -215zM639 -203h-127v176q-205 16 -314.5 138t-111.5 340h182q0 -289 244 -324v508q-125 37 -263 105t-138 292q0 162 106.5 261.5
t294.5 113.5v158h127v-158q195 -16 296 -130t101 -323h-182q0 139 -53 212t-162 89v-469q141 -39 226 -78.5t142.5 -120.5t57.5 -233t-114.5 -258t-311.5 -123v-176z" />
    <glyph glyph-name="percent" unicode="%" horiz-adv-x="1769" 
d="M1364 98q152 0 152 262q0 127 -39 195t-113 68t-113 -68t-39 -195q0 -262 152 -262zM1677 360.5q0 -186.5 -80.5 -288t-232.5 -101.5t-232.5 101.5t-80.5 288t80.5 288t232.5 101.5t232.5 -101.5t80.5 -288zM405.5 758q151.5 0 151.5 262q0 127 -39 194.5t-112.5 67.5
t-112.5 -67.5t-39 -194.5q0 -262 151.5 -262zM719 1020q0 -186 -81 -287.5t-232.5 -101.5t-232.5 101.5t-81 287.5t81 287.5t232.5 101.5t232.5 -101.5t81 -287.5zM428 -61l774 1503h139l-774 -1503h-139z" />
    <glyph glyph-name="ampersand" unicode="&#x26;" horiz-adv-x="1503" 
d="M305 388q0 -108 89 -182.5t237 -74.5q193 1 334 148l-424 430q-131 -68 -183.5 -140.5t-52.5 -180.5zM444 1165q0 -74 32 -128t126 -148q119 63 164 127.5t45 142.5t-49 125t-134 47t-134.5 -46t-49.5 -120zM1079 164q-178 -195 -470 -195q-145 0 -260.5 53.5
t-176.5 147.5t-61 217q0 280 323 436q-98 102 -133 173t-35 167q0 143 100.5 233.5t263.5 90.5t260 -88.5t97 -220.5t-62.5 -220t-213.5 -172l360 -362q90 158 90 393h185q-4 -316 -148 -520l295 -297h-252z" />
    <glyph glyph-name="quotesingle" unicode="'" horiz-adv-x="454" 
d="M162 920l-23 538h176l-22 -538h-131z" />
    <glyph glyph-name="parenleft" unicode="(" horiz-adv-x="598" 
d="M301 609q0 -253 56.5 -469t179.5 -441h-156q-141 209 -209 427t-68 482t68 483.5t209 426.5h156q-123 -226 -179.5 -441t-56.5 -468z" />
    <glyph glyph-name="parenright" unicode=")" horiz-adv-x="598" 
d="M496 609q0 -263 -69 -482t-208 -428h-158q123 225 179.5 441t56.5 469t-56.5 468t-179.5 441h158q139 -207 208 -426.5t69 -482.5z" />
    <glyph glyph-name="asterisk" unicode="*" horiz-adv-x="833" 
d="M719 1294l51 -155l-272 -49l186 -203l-131 -99l-135 248l-135 -248l-133 99l186 203l-273 49l52 155l254 -116l-33 280h162l-33 -280z" />
    <glyph glyph-name="plus" unicode="+" horiz-adv-x="1159" 
d="M1014 723v-150h-361v-358h-147v358h-361v150h361v360h147v-360h361z" />
    <glyph glyph-name="comma" unicode="," horiz-adv-x="462" 
d="M121 0v240h221v-240l-106 -295h-119l78 295h-74z" />
    <glyph glyph-name="hyphen" unicode="-" horiz-adv-x="614" 
d="M61 518v160h492v-160h-492z" />
    <glyph glyph-name="period" unicode="." horiz-adv-x="462" 
d="M121 0v240h221v-240h-221z" />
    <glyph glyph-name="slash" unicode="/" horiz-adv-x="935" 
d="M61 -182l609 1708h161l-608 -1708h-162z" />
    <glyph glyph-name="zero" unicode="0" horiz-adv-x="1150" 
d="M272 690q0 -272 78 -414.5t226 -142.5t226.5 142.5t78.5 413.5t-78.5 412.5t-226.5 141.5t-226 -140.5t-78 -412.5zM1075 690q0 -348 -129 -533.5t-370.5 -185.5t-370.5 185.5t-129 533.5t129 533.5t370.5 185.5t370.5 -185.5t129 -533.5z" />
    <glyph glyph-name="one" unicode="1" horiz-adv-x="1150" 
d="M524 0v1006h-309v143q162 0 238.5 53t97.5 178h160v-1380h-187z" />
    <glyph glyph-name="two" unicode="2" horiz-adv-x="1150" 
d="M1016 1024q0 -115 -46 -199t-125 -146.5t-211 -138.5t-204 -138t-98.5 -116.5t-28.5 -123.5h746v-162h-953q-2 14 -2 41q0 139 32 236.5t120 186.5t232 174t242.5 159t98.5 223q0 100 -66.5 162.5t-179.5 62.5q-252 0 -268 -270h-192q8 205 132 319.5t330 114.5
q132 0 231 -48t154.5 -135t55.5 -202z" />
    <glyph glyph-name="three" unicode="3" horiz-adv-x="1150" 
d="M780 707q262 -87 262 -335q0 -247 -166.5 -324t-306.5 -77q-227 0 -352 117t-125 328h191q0 -137 73.5 -210t205.5 -73t210 65.5t78 178.5t-84 177t-244 64h-55v158h55q141 0 224 64t83 172t-73.5 171.5t-198.5 63.5t-193.5 -68.5t-68.5 -205.5h-191q0 205 124 320.5
t336 115.5t334 -102.5t122 -274.5q0 -121 -58.5 -198.5t-181.5 -122.5v-4z" />
    <glyph glyph-name="four" unicode="4" horiz-adv-x="1150" 
d="M692 512v188q0 256 6 514h-4q-145 -225 -317 -475l-158 -227h473zM877 356v-356h-187v356h-651v170l586 854h252v-868h225v-156h-225z" />
    <glyph glyph-name="five" unicode="5" horiz-adv-x="1150" 
d="M596 907q133 0 234.5 -56t156.5 -158.5t55 -243.5t-59 -250t-168.5 -168.5t-255.5 -59.5q-205 0 -326.5 106.5t-121.5 289.5h192q2 -109 72.5 -170.5t193.5 -61.5t201 83t78 226t-75 223.5t-191 80.5q-224 0 -275 -195l-186 12l76 815h782v-159h-625l-41 -428h4
q97 114 279 114z" />
    <glyph glyph-name="six" unicode="6" horiz-adv-x="1150" 
d="M311 438q0 -137 75 -220t201 -83t201.5 84t75.5 221t-74.5 221t-199.5 84t-202 -85t-77 -222zM588 -29q-488 1 -488 689q0 352 134.5 550.5t379.5 198.5q185 0 297.5 -101.5t128.5 -281.5h-192q-37 219 -240 219q-150 0 -236.5 -129t-92.5 -393h4q121 176 340 176
q129 0 228 -56.5t153.5 -159.5t54.5 -239t-59.5 -245t-166 -168.5t-245.5 -59.5z" />
    <glyph glyph-name="seven" unicode="7" horiz-adv-x="1150" 
d="M88 1217v163h954v-166q-163 -237 -291 -546.5t-200 -667.5h-207q88 387 221 694t287 523h-764z" />
    <glyph glyph-name="eight" unicode="8" horiz-adv-x="1150" 
d="M285 383q0 -111 79.5 -179.5t211 -68.5t211 68.5t79.5 179.5t-80.5 179.5t-210 68.5t-210 -68.5t-80.5 -179.5zM307 1021q0 -103 73 -166.5t195.5 -63.5t195.5 63.5t73 166.5t-74 164.5t-194.5 61.5t-194.5 -61.5t-74 -164.5zM1032 1030.5q0 -110.5 -64.5 -190.5
t-176.5 -123v-4q129 -39 198.5 -126t69.5 -210t-60.5 -214t-171 -141.5t-252 -50.5t-251 50.5t-170 141.5t-60.5 214t69.5 210t196.5 126v4q-113 43 -176 124t-63 191t58.5 195.5t161.5 133.5t234.5 48t235.5 -48t162.5 -134t58.5 -196.5z" />
    <glyph glyph-name="nine" unicode="9" horiz-adv-x="1150" 
d="M825 942q0 137 -74.5 220t-200.5 83t-202 -84t-76 -221t75 -221t200 -84t201.5 85t76.5 222zM549 1409q487 -1 487 -689q0 -352 -134 -550.5t-380 -198.5q-184 0 -296.5 101.5t-129.5 281.5h193q37 -219 239 -219q150 0 237 129t93 393h-4q-121 -176 -340 -176
q-129 0 -228.5 56.5t-153.5 160t-54 239.5t59.5 244.5t166 168t245.5 59.5z" />
    <glyph glyph-name="colon" unicode=":" horiz-adv-x="462" 
d="M121 0v240h221v-240h-221zM121 801v239h221v-239h-221z" />
    <glyph glyph-name="semicolon" unicode=";" horiz-adv-x="462" 
d="M121 0v240h221v-240l-106 -295h-119l78 295h-74zM121 801v239h221v-239h-221z" />
    <glyph glyph-name="less" unicode="&#x3c;" horiz-adv-x="1159" 
d="M313 651v-4l701 -291v-163l-869 364v184l869 365v-164z" />
    <glyph glyph-name="equal" unicode="=" horiz-adv-x="1159" 
d="M145 403v152h869v-152h-869zM145 741v152h869v-152h-869z" />
    <glyph glyph-name="greater" unicode="&#x3e;" horiz-adv-x="1159" 
d="M1014 557l-869 -364v163l701 291v4l-701 291v164l869 -365v-184z" />
    <glyph glyph-name="question" unicode="?" horiz-adv-x="1056" 
d="M387 0v217h213v-217h-213zM532 1323q-260 0 -276 -264h-188q10 209 130.5 318.5t333.5 109.5q134 0 234 -46t155.5 -129.5t55.5 -177.5t-25.5 -171.5t-191.5 -217.5q-82 -68 -120 -116.5t-52.5 -112t-14.5 -178.5h-159v61q0 109 16 177.5t59 127t123 126.5t115 111.5
t46 80.5t11 90q0 96 -67.5 153.5t-184.5 57.5z" />
    <glyph glyph-name="at" unicode="@" horiz-adv-x="1777" 
d="M1059 692q-1 226 -185 226q-94 0 -162.5 -100t-68.5 -244q0 -276 178 -275q100 0 169 100.5t69 292.5zM1200 440q0 -151 115 -151q96 0 161.5 97t65.5 283.5t-78 327t-221 217t-344 76.5t-353.5 -95t-231 -260t-78.5 -369t78.5 -351t224 -225t340.5 -78q262 0 450 115
l62 -115q-213 -129 -512 -129q-236 0 -412 94t-272.5 270.5t-96.5 416.5t97.5 434t282 307.5t424.5 113.5t413.5 -93t267.5 -261.5t94 -366.5t-52 -314t-140 -173t-195 -57q-193 0 -227 184h-4q-88 -184 -281 -184q-141 0 -221 102t-82 295q2 150 52.5 265.5t137.5 180
t197 64.5q176 0 238 -162h4q12 80 26 141h156q-37 -172 -61.5 -344t-24.5 -256z" />
    <glyph glyph-name="A" unicode="A" horiz-adv-x="1382" 
d="M905 733q-125 344 -211 594h-4q-86 -250 -211 -594l-49 -133h522zM371 434l-160 -434h-201l553 1458h256l555 -1458h-203l-157 434h-643z" />
    <glyph glyph-name="B" unicode="B" horiz-adv-x="1284" 
d="M383 160h299q317 0 317 252t-344 252h-272v-504zM383 821h272q319 0 320 240q0 119 -75 178t-236 59h-281v-477zM1161 1087q0 -251 -241 -339v-5q131 -31 202.5 -119.5t71.5 -222.5q0 -184 -129 -292.5t-356 -108.5h-514v1458h475q243 0 367 -99t124 -272z" />
    <glyph glyph-name="C" unicode="C" horiz-adv-x="1411" 
d="M727 1315q-207 0 -324.5 -157t-117.5 -429t116.5 -429t319.5 -157q162 0 268.5 96.5t128.5 262.5h197q-23 -246 -180.5 -388.5t-413.5 -142.5q-195 0 -337 91.5t-219 262.5t-77 404.5t77 404.5t221 262t328.5 91t312.5 -66.5t199.5 -185.5t80.5 -270h-195
q-14 162 -117.5 256t-267.5 94z" />
    <glyph glyph-name="D" unicode="D" horiz-adv-x="1480" 
d="M383 168h254q272 0 415.5 143.5t143.5 418t-143.5 417.5t-415.5 143h-254v-1122zM1395 729q0 -350 -197 -539.5t-559 -189.5h-444v1458h444q362 0 559 -189.5t197 -539.5z" />
    <glyph glyph-name="E" unicode="E" horiz-adv-x="1265" 
d="M383 1290v-461h709v-165h-709v-496h774v-168h-962v1458h940v-168h-752z" />
    <glyph glyph-name="F" unicode="F" horiz-adv-x="1173" 
d="M383 1290v-497h680v-168h-680v-625h-188v1458h913v-168h-725z" />
    <glyph glyph-name="G" unicode="G" horiz-adv-x="1497" 
d="M748 1315q-215 0 -339 -158t-124 -433t119.5 -432t318 -157t310.5 116t114 361h-402v162h582v-774h-168v201h-4q-59 -104 -182 -166t-292 -62t-307 90.5t-212 260.5t-74 403.5t80 404.5t228.5 263t351.5 92q249 0 404 -126t175 -341h-201q-25 141 -123 218t-255 77z" />
    <glyph glyph-name="H" unicode="H" horiz-adv-x="1509" 
d="M1126 0v674h-743v-674h-188v1458h188v-618h743v618h191v-1458h-191z" />
    <glyph glyph-name="I" unicode="I" horiz-adv-x="577" 
d="M195 0v1458h188v-1458h-188z" />
    <glyph glyph-name="J" unicode="J" horiz-adv-x="729" 
d="M133 -10q-61 0 -102 12v168q55 -10 88 -10q121 0 179 65.5t58 216.5v1016h189v-1040q0 -428 -412 -428z" />
    <glyph glyph-name="K" unicode="K" horiz-adv-x="1280" 
d="M383 717v-717h-188v1458h188v-657h4l588 657h237l-637 -694l697 -764h-252l-633 717h-4z" />
    <glyph glyph-name="L" unicode="L" horiz-adv-x="1148" 
d="M1128 168v-168h-933v1458h188v-1290h745z" />
    <glyph glyph-name="M" unicode="M" horiz-adv-x="1912" 
d="M1534 0v741q0 184 4 557h-4q-74 -213 -172 -483l-297 -815h-217l-297 815q-98 270 -172 483h-4q4 -373 4 -557v-741h-184v1458h303l264 -719q98 -276 192 -559h4q94 283 193 559l262 719h305v-1458h-184z" />
    <glyph glyph-name="N" unicode="N" horiz-adv-x="1546" 
d="M379 584v-584h-184v1458h276l348 -629q207 -377 352 -653h5q-6 350 -7 698v584h185v-1458h-279l-346 629q-197 352 -352 653h-4q6 -350 6 -698z" />
    <glyph glyph-name="O" unicode="O" horiz-adv-x="1499" 
d="M285 729q0 -178 56 -310t161.5 -204t247 -72t247 72t161.5 204t56 310t-56 310t-161.5 204t-247 72t-247 -72t-161.5 -204t-56 -310zM1411 729.5q0 -231.5 -81 -402.5t-230.5 -263.5t-350 -92.5t-350 92.5t-230.5 263.5t-81 402.5t81 402.5t230.5 263t350 92t350 -92
t230.5 -263t81 -402.5z" />
    <glyph glyph-name="P" unicode="P" horiz-adv-x="1261" 
d="M383 741h297q164 0 247 73t83 204t-83 203.5t-247 72.5h-297v-553zM1204 1018q0 -205 -131 -322.5t-379 -117.5h-311v-578h-188v1458h499q248 0 379 -117.5t131 -322.5z" />
    <glyph glyph-name="Q" unicode="Q" horiz-adv-x="1497" 
d="M1217 727q0 178 -56.5 311t-161 205t-245.5 72t-248 -72t-164 -205t-57 -311t57 -312t163.5 -206t244.5 -72t239 66l-192 211l116 106l191 -209q113 162 113 416zM1409 729q0 -352 -178 -555l162 -178l-115 -109l-166 183q-156 -98 -358.5 -98.5t-353 92t-231.5 263.5
t-81 402.5t81 402.5t231.5 263t352.5 92t349 -92t227 -263t80 -403z" />
    <glyph glyph-name="R" unicode="R" horiz-adv-x="1310" 
d="M383 774h272q164 0 243 75t79 200q0 248 -334 247h-260v-522zM1169 1063q0 -139 -75.5 -237.5t-202.5 -127.5v-4q80 -25 125 -82t94 -192l150 -420h-205l-133 385q-45 131 -105.5 180t-177.5 49h-256v-614h-188v1458h462q258 0 385 -102.5t127 -292.5z" />
    <glyph glyph-name="S" unicode="S" horiz-adv-x="1247" 
d="M922 1008q0 317 -334 317q-135 0 -212 -61.5t-77 -151.5t37 -136t109.5 -76t222.5 -66t252 -80q226 -96 227 -353q0 -129 -64.5 -226t-182.5 -150.5t-275 -53.5q-258 0 -401.5 131t-143.5 381h194q0 -176 92.5 -263t254.5 -87t246.5 67.5t84.5 190.5q0 143 -148 199
q-73 28 -224.5 66t-251.5 82q-222 97 -222 347q0 117 59.5 208t169 142.5t255.5 51.5q260 0 391 -121t131 -358h-190z" />
    <glyph glyph-name="T" unicode="T" horiz-adv-x="1226" 
d="M709 1290v-1290h-191v1290h-498v168h1186v-168h-497z" />
    <glyph glyph-name="U" unicode="U" horiz-adv-x="1443" 
d="M722 -29q-263 0 -401.5 146.5t-138.5 429.5v911h189v-907q0 -201 92 -304.5t260 -103.5t259 103.5t91 304.5v907h191v-911q0 -281 -139.5 -428.5t-402.5 -147.5z" />
    <glyph glyph-name="V" unicode="V" horiz-adv-x="1277" 
d="M516 0l-502 1458h197l223 -649q72 -207 203 -625h4q111 356 205 625l221 649h199l-504 -1458h-246z" />
    <glyph glyph-name="W" unicode="W" horiz-adv-x="1875" 
d="M1245 0l-153 637q-84 346 -152 653h-4q-68 -307 -152 -653l-153 -637h-271l-340 1458h189l137 -590q47 -207 137 -620l15 -66h4q92 414 162 688l143 588h262l143 -588q70 -274 162 -688h4q63 309 152 686l137 590h188l-339 -1458h-271z" />
    <glyph glyph-name="X" unicode="X" horiz-adv-x="1271" 
d="M1257 0h-225l-393 600h-4l-393 -600h-228l506 748l-477 710h221l371 -567h4l369 567h221l-477 -710z" />
    <glyph glyph-name="Y" unicode="Y" horiz-adv-x="1257" 
d="M723 0h-188v604l-527 854h219l179 -301q104 -176 221 -385h4q117 209 221 385l180 301h217l-526 -854v-604z" />
    <glyph glyph-name="Z" unicode="Z" horiz-adv-x="1159" 
d="M258 166h864v-166h-1085v180l825 1108v4h-803v166h1024v-180l-825 -1108v-4z" />
    <glyph glyph-name="bracketleft" unicode="[" horiz-adv-x="608" 
d="M330 1397v-1579h241v-121h-415v1821h415v-121h-241z" />
    <glyph glyph-name="backslash" unicode="\" horiz-adv-x="935" 
d="M874 -182h-161l-609 1708h162z" />
    <glyph glyph-name="bracketright" unicode="]" horiz-adv-x="608" 
d="M453 -303h-416v121h242v1579h-242v121h416v-1821z" />
    <glyph glyph-name="asciicircum" unicode="^" horiz-adv-x="919" 
d="M729 760l-266 553h-4l-266 -553h-170l339 698h195l340 -698h-168z" />
    <glyph glyph-name="underscore" unicode="_" horiz-adv-x="1024" 
d="M0 -207v105h1024v-105h-1024z" />
    <glyph glyph-name="grave" unicode="`" horiz-adv-x="612" 
d="M510 1165h-156l-252 293h232z" />
    <glyph glyph-name="a" unicode="a" horiz-adv-x="1087" 
d="M254 293q0 -80 56 -128t138 -48q152 0 234 82q47 49 65.5 101t18.5 144v64q-157 -13 -280 -33t-177.5 -61t-54.5 -121zM70 282.5q0 135.5 89 214t273.5 108.5t333.5 40v41q0 125 -62.5 184.5t-173 59.5t-172 -56.5t-65.5 -150.5h-180q8 154 116.5 250t302 96t301 -101.5
t107.5 -301.5v-400q0 -158 25 -266h-164q-14 66 -15 152h-4q-115 -175 -360 -175q-160 0 -256 85t-96 220.5z" />
    <glyph glyph-name="b" unicode="b" 
d="M332 522.5q0 -184.5 76.5 -293t207.5 -108.5t211 109.5t80 292t-79.5 291t-211.5 108.5t-208 -107.5t-76 -292zM675 1067q118 0 216 -66.5t151.5 -190.5t53.5 -288t-53.5 -287.5t-152.5 -191.5t-217 -68t-204 47.5t-127 129.5h-4v-152h-178v1458h180v-561h4
q43 78 128 124t203 46z" />
    <glyph glyph-name="c" unicode="c" horiz-adv-x="1093" 
d="M571 922q-137 0 -217 -107.5t-80 -294t79 -294t218 -107.5q106 0 177 74.5t81 189.5h189q-10 -119 -67.5 -212t-155 -146.5t-235 -53.5t-247.5 66.5t-169.5 190.5t-59.5 292t59.5 292t170 190.5t246.5 66.5t233.5 -50t156 -140.5t68.5 -206.5h-189q-10 111 -80.5 180.5
t-177.5 69.5z" />
    <glyph glyph-name="d" unicode="d" 
d="M272 522.5q0 -182.5 80 -292t211 -109.5t209 108.5t78 293t-78 292t-209 107.5t-211 -108.5t-80 -291zM844 0v152h-4q-43 -82 -128 -129.5t-204 -47.5t-218.5 68t-152.5 191.5t-53 287.5t53 288t151 190.5t216 66.5t203.5 -46t128.5 -124h4v561h180v-1458h-176z" />
    <glyph glyph-name="e" unicode="e" horiz-adv-x="1126" 
d="M565 930q-125 0 -204.5 -81t-94.5 -228h598q-14 150 -94 229.5t-205 79.5zM592.5 -29q-171.5 0 -281.5 70t-168.5 197t-58.5 289t58.5 283.5t168 190t270 68.5t280.5 -96t161 -266q20 -84 20 -224h-778q6 -184 91 -278t207 -94t194.5 55t91.5 145h184
q-29 -145 -148.5 -242.5t-291 -97.5z" />
    <glyph glyph-name="f" unicode="f" horiz-adv-x="624" 
d="M209 1169q0 299 285 299q63 0 104 -10v-139q-18 6 -78 6t-96.5 -41t-36.5 -135v-109h207v-143h-207v-897h-178v897h-182v143h182v129z" />
    <glyph glyph-name="g" unicode="g" horiz-adv-x="1173" 
d="M272 540q0 -171 77 -274.5t208 -103.5t209 101.5t78 276.5t-78 276.5t-209 101.5t-208 -103.5t-77 -274.5zM840 889v151h174v-977q0 -227 -117 -342.5t-327 -115.5t-323.5 88t-117.5 241h180q4 -90 70.5 -140t194.5 -50q264 0 264 328v112h-4q-113 -174 -310 -174
q-133 0 -232 65.5t-153.5 185.5t-54.5 279t54.5 278.5t153.5 184t232 64.5q206 0 312 -178h4z" />
    <glyph glyph-name="h" unicode="h" 
d="M653 1063q180 0 278.5 -108.5t98.5 -319.5v-635h-180v621q0 158 -61.5 226t-178 68t-193.5 -83.5t-77 -235.5v-596h-180v1458h180v-549h4q51 76 133 115t176 39z" />
    <glyph glyph-name="i" unicode="i" horiz-adv-x="499" 
d="M160 0v1040h180v-1040h-180zM160 1255v203h180v-203h-180z" />
    <glyph glyph-name="j" unicode="j" horiz-adv-x="509" 
d="M51 -387q-57 0 -96 10v144q31 -6 59 -7q80 0 118 44t38 153v1083h180v-1099q0 -170 -78.5 -249t-220.5 -79zM170 1255v203h180v-203h-180z" />
    <glyph glyph-name="k" unicode="k" horiz-adv-x="1024" 
d="M340 520v-520h-180v1458h180v-850h4l420 432h223l-467 -471l522 -569h-237l-461 520h-4z" />
    <glyph glyph-name="l" unicode="l" horiz-adv-x="499" 
d="M160 0v1458h180v-1458h-180z" />
    <glyph glyph-name="m" unicode="m" horiz-adv-x="1767" 
d="M629 1063q226 0 309 -197q111 197 330 197q168 0 259 -106.5t91 -313.5v-643h-180v629q0 152 -55 219t-163 67t-174.5 -88t-66.5 -237v-590h-180v655q0 123 -55.5 191.5t-163.5 68.5t-174 -90t-66 -247v-578h-180v1040h174v-129h4q111 152 291 152z" />
    <glyph glyph-name="n" unicode="n" 
d="M1030 635v-635h-180v621q0 158 -61.5 226t-178 68t-193.5 -83.5t-77 -235.5v-596h-180v1040h174v-137h4q49 74 131 117t184 43q181 0 279 -108.5t98 -319.5z" />
    <glyph glyph-name="o" unicode="o" horiz-adv-x="1157" 
d="M272 520.5q0 -186.5 82 -294t224.5 -107.5t224.5 107.5t82 294t-82 294t-224.5 107.5t-224.5 -107.5t-82 -294zM1073 520q0 -254 -133 -401.5t-362.5 -147.5t-361.5 147.5t-132 401.5t132 401.5t361.5 147.5t362.5 -147.5t133 -401.5z" />
    <glyph glyph-name="p" unicode="p" 
d="M332 522.5q0 -184.5 76.5 -293t207.5 -108.5t211 109.5t80 292t-79.5 291t-211.5 108.5t-208 -107.5t-76 -292zM1096 522q0 -164 -53.5 -287.5t-151 -191.5t-215.5 -68t-203.5 46.5t-128.5 125.5h-4v-526h-180v1419h178v-149h4q41 82 127 129t204 47t217 -66.5
t152.5 -190.5t53.5 -288z" />
    <glyph glyph-name="q" unicode="q" 
d="M272 522.5q0 -182.5 80 -292t211 -109.5t209 108.5t78 293t-78 292t-209 107.5t-211 -108.5t-80 -291zM844 891v149h176v-1419h-180v526h-4q-43 -80 -128 -126t-203 -46t-216.5 68t-151.5 191.5t-53 287.5t53 288t152.5 190.5t218.5 66.5t204 -47t128 -129h4z" />
    <glyph glyph-name="r" unicode="r" horiz-adv-x="741" 
d="M647 887q-147 0 -227 -92.5t-80 -264.5v-530h-180v1040h172v-159h4q102 170 307 170q45 -1 76 -9v-161q-68 6 -72 6z" />
    <glyph glyph-name="s" unicode="s" horiz-adv-x="1011" 
d="M895 715h-176q0 104 -60.5 159.5t-163 55.5t-156.5 -40t-54 -100.5t25.5 -89t72.5 -45t167 -45.5t194.5 -57.5t129 -93t54.5 -191t-111.5 -212t-309.5 -85.5t-311.5 96.5t-115.5 278.5h182q0 -111 66.5 -171t179 -60t174 43t61.5 107t-28.5 97t-84 52.5t-177 49.5
t-187 55.5t-114 84t-48.5 178t107.5 203.5t289 84t288 -92t106.5 -262z" />
    <glyph glyph-name="t" unicode="t" horiz-adv-x="655" 
d="M383 309q0 -169 126 -167q60 0 91 10v-148q-45 -12 -115 -12q-150 0 -216 69.5t-66 229.5v606h-180v143h180v252h180v-252h207v-143h-207v-588z" />
    <glyph glyph-name="u" unicode="u" 
d="M150 406v634h180v-620q0 -158 61.5 -226.5t177 -68.5t193.5 85t78 234v596h180v-1040h-174v137h-4q-49 -74 -132 -117t-186 -43q-180 0 -277 109t-97 320z" />
    <glyph glyph-name="v" unicode="v" horiz-adv-x="962" 
d="M365 0l-377 1040h192l148 -436q94 -281 151 -463h4q82 262 150 463l149 436h193l-377 -1040h-233z" />
    <glyph glyph-name="w" unicode="w" horiz-adv-x="1576" 
d="M1028 0l-123 451q-23 86 -28 114q-49 182 -86 336h-5q-36 -153 -64 -259t-50 -191l-123 -451h-258l-277 1040h183l110 -434q49 -197 115 -467h4q55 233 115 457l118 444h259l118 -444l115 -457h4q66 270 115 467l110 434h183l-277 -1040h-258z" />
    <glyph glyph-name="x" unicode="x" horiz-adv-x="983" 
d="M989 0h-217l-278 416h-5l-278 -416h-215l387 541l-354 499h213l247 -372h5l249 372h213l-354 -499z" />
    <glyph glyph-name="y" unicode="y" horiz-adv-x="966" 
d="M160 -387q-88 0 -121 10v152q37 -12 96.5 -12.5t103.5 20t76.5 70t67.5 143.5l-395 1044h194l299 -827h4l303 827h191l-418 -1087q-51 -135 -107.5 -208t-131 -102.5t-162.5 -29.5z" />
    <glyph glyph-name="z" unicode="z" horiz-adv-x="960" 
d="M274 147h633v-147h-854v156l613 733v4h-592v147h813v-155l-613 -733v-5z" />
    <glyph glyph-name="braceleft" unicode="{" horiz-adv-x="616" 
d="M387 1196v-334q0 -109 -39 -166t-133 -88v-6q94 -29 133 -87t39 -165v-336q0 -111 41 -156.5t139 -47.5v-115h-45q-162 0 -232.5 79t-70.5 253v317q0 90 -30.5 133t-106.5 66v125q76 23 106.5 66.5t30.5 131.5v320q0 174 70.5 253t232.5 79h45v-115q-98 -4 -139 -50
t-41 -157z" />
    <glyph glyph-name="bar" unicode="|" horiz-adv-x="559" 
d="M197 -420v1919h165v-1919h-165z" />
    <glyph glyph-name="braceright" unicode="}" horiz-adv-x="616" 
d="M397 1186v-320q0 -88 31 -132t107 -66v-125q-76 -23 -107 -66t-31 -133v-317q0 -174 -70.5 -253t-232.5 -79h-45v115q98 2 139 48t41 156v336q0 106 39 164.5t133 87.5v6q-94 31 -133 88.5t-39 165.5v334q0 111 -41 157t-139 50v115h45q162 0 232.5 -79t70.5 -253z" />
    <glyph glyph-name="asciitilde" unicode="~" horiz-adv-x="1193" 
d="M856 610q66 0 113 56.5t47 150.5h127q0 -162 -84 -260t-219 -98q-80 0 -140.5 31.5t-133.5 89.5t-117.5 83t-110.5 25t-113 -57.5t-47 -151.5h-127q0 162 84 261.5t219 99.5q80 0 140.5 -32t133.5 -89t117.5 -83t110.5 -26z" />
    <glyph glyph-name="uni00A0" unicode="&#xa0;" horiz-adv-x="471" 
 />
    <glyph glyph-name="exclamdown" unicode="&#xa1;" horiz-adv-x="563" 
d="M354 682l43 -1100h-231l43 1100h145zM389 1040v-217h-213v217h213z" />
    <glyph glyph-name="cent" unicode="&#xa2;" horiz-adv-x="1150" 
d="M299 682q0 -164 61.5 -267.5t171.5 -127.5v790q-111 -25 -172 -128t-61 -267zM662 -49h-130v186q-197 23 -310 168t-113 379t112.5 377t310.5 166v182h130v-182q160 -18 263 -125t117 -266h-188q-8 92 -59.5 156.5t-132.5 82.5v-786q79 20 131.5 91t60.5 165h188
q-14 -166 -116.5 -276.5t-263.5 -131.5v-186z" />
    <glyph glyph-name="sterling" unicode="&#xa3;" horiz-adv-x="1150" 
d="M49 158q199 0 199 274v168h-199v158h199v205q0 221 109 333.5t305 112.5t303.5 -112.5t107.5 -309.5h-182q0 125 -58.5 191.5t-168.5 66.5t-170 -71.5t-60 -210.5v-205h256v-158h-256v-166q0 -109 -25.5 -171t-82.5 -103v-4h737v-156h-1014v158z" />
    <glyph glyph-name="currency" unicode="&#xa4;" horiz-adv-x="1150" 
d="M850 596q0 131 -75 210t-199.5 79t-198.5 -79t-74 -210t74 -210t198.5 -79t199.5 79t75 210zM575.5 154q-135.5 0 -239.5 63l-154 -164l-121 113l156 164q-76 111 -76 266.5t76 265.5l-156 164l121 113l154 -164q104 63 239.5 63t239.5 -63l154 164l121 -113l-156 -166
q76 -111 76 -264t-76 -264l156 -166l-121 -113l-154 164q-104 -63 -239.5 -63z" />
    <glyph glyph-name="yen" unicode="&#xa5;" horiz-adv-x="1150" 
d="M1024 737v-121h-352v-114h352v-121h-352v-381h-191v381h-354v121h354v114h-354v121h281l-390 643h218l120 -211q96 -164 217 -385h5q86 158 217 385l123 211h215l-388 -643h279z" />
    <glyph glyph-name="brokenbar" unicode="&#xa6;" horiz-adv-x="559" 
d="M197 -420v717h165v-717h-165zM197 782v717h165v-717h-165z" />
    <glyph glyph-name="section" unicode="&#xa7;" horiz-adv-x="1183" 
d="M879 526q0 55 -21.5 96.5t-78.5 79t-157 81.5t-204 98q-113 -80 -113 -191q0 -82 57.5 -139t181.5 -113t220 -108q115 76 115 196zM131 668q0 188 170 293v4q-96 78 -96 214t104.5 222t278.5 86t272 -89t107 -261h-183q-6 199 -204 198q-86 0 -136.5 -43t-50.5 -107
t21.5 -96t71.5 -58.5t190 -87.5t219.5 -111t118.5 -116.5t39 -168.5q0 -190 -174 -297v-4q100 -80 100 -230t-105.5 -236.5t-293.5 -86.5t-295 92t-109 272h182q6 -213 228 -213q96 0 150.5 46.5t54.5 116.5t-27 108.5t-84.5 70.5t-191.5 94t-206.5 110t-111.5 113.5
t-39 164.5z" />
    <glyph glyph-name="dieresis" unicode="&#xa8;" horiz-adv-x="772" 
d="M502 1255v203h168v-203h-168zM102 1255v203h168v-203h-168z" />
    <glyph glyph-name="copyright" unicode="&#xa9;" horiz-adv-x="1658" 
d="M821 1094q-113 0 -183.5 -97.5t-70.5 -266.5t71 -267t180 -98t174 59t77 162h156q-16 -164 -121.5 -259.5t-287.5 -95.5t-293 133.5t-111 365t112 364.5t296 133t287 -96.5t112 -249.5h-154q-8 96 -69.5 154.5t-174.5 58.5zM188 729q0 -197 80 -345t225.5 -230t336 -82
t336 82t225 230t79.5 345t-79.5 345.5t-225 230t-336 81.5t-336 -81.5t-225.5 -230t-80 -345.5zM1565 729q0 -223 -92.5 -394t-259 -265.5t-384 -94.5t-384 94.5t-258 265.5t-91.5 394t91.5 394t258 265.5t384 94.5t384 -94.5t259 -265.5t92.5 -394z" />
    <glyph glyph-name="ordfeminine" unicode="&#xaa;" horiz-adv-x="804" 
d="M207 886q0 -50 37 -81t92 -31q105 0 156 51q33 33 45 67t12 93v39q-250 -22 -306 -62q-36 -26 -36 -76zM698 868q0 -111 19 -192h-139q-10 55 -11 102h-4q-84 -119 -258 -119q-117 1 -187 61t-69 156q0 96 67 153q67 56 226 81q145 18 207 23v24q0 156 -158 156
q-73 0 -113 -35t-42 -96h-156q6 106 87 175t227 69t226 -73q79 -73 78 -216v-269z" />
    <glyph glyph-name="guillemotleft" unicode="&#xab;" horiz-adv-x="950" 
d="M852 111h-168l-233 409l233 410h168l-227 -410zM500 111h-168l-234 409l234 410h168l-228 -410z" />
    <glyph glyph-name="logicalnot" unicode="&#xac;" horiz-adv-x="1159" 
d="M864 287v491h-719v152h869v-643h-150z" />
    <glyph glyph-name="uni00AD" unicode="&#xad;" horiz-adv-x="614" 
d="M61 518v160h492v-160h-492z" />
    <glyph glyph-name="registered" unicode="&#xae;" horiz-adv-x="1202" 
d="M719 1106q0 98 -127 98h-111v-203h103q135 0 135 105zM831 1128q0 -72 -31.5 -117.5t-82.5 -56.5v-4q31 -10 50 -32.5t38 -73.5l69 -199h-118l-56 168q-16 51 -43.5 72.5t-76.5 21.5h-99v-262h-110v653h239q109 0 165 -49t56 -121zM160 964.5q0 -135.5 55 -238.5
t154.5 -159.5t230.5 -56.5t230.5 56.5t154.5 159.5t55 238.5t-55 239t-154.5 159.5t-230.5 56t-230.5 -56t-154.5 -159.5t-55 -239zM1110 964.5q0 -155.5 -63.5 -274.5t-179 -184.5t-267 -65.5t-266.5 65.5t-178.5 184.5t-63.5 274.5t63.5 273.5t178.5 183.5t266.5 65.5
t267 -65.5t179 -183.5t63.5 -273.5z" />
    <glyph glyph-name="macron" unicode="&#xaf;" horiz-adv-x="786" 
d="M102 1262v131h582v-131h-582z" />
    <glyph glyph-name="degree" unicode="&#xb0;" horiz-adv-x="653" 
d="M190 1232q0 -56 40 -96t96 -40t97.5 40t41.5 96t-41.5 97t-97.5 41t-96 -41t-40 -97zM573 1230.5q0 -102.5 -72.5 -174t-173.5 -71.5t-174 72.5t-73 174.5t71.5 174.5t174 72.5t175 -73t72.5 -175.5z" />
    <glyph glyph-name="plusminus" unicode="&#xb1;" horiz-adv-x="1159" 
d="M145 0v152h869v-152h-869zM1014 780v-151h-361v-350h-147v350h-361v151h361v353h147v-353h361z" />
    <glyph glyph-name="twosuperior" unicode="&#xb2;" horiz-adv-x="860" 
d="M766 1392q0 -120 -69 -194t-207 -148t-185 -125t-49 -114h532v-135h-708q-2 12 -2 74t23.5 132t86 132.5t184.5 129.5t173 116t51 119t-44 109.5t-118 39.5q-168 0 -178 -176h-166q4 145 97 228t245 83t243 -75.5t91 -195.5z" />
    <glyph glyph-name="threesuperior" unicode="&#xb3;" horiz-adv-x="847" 
d="M608 938q0 162 -223 162h-35v129h35q96 0 152.5 42.5t56.5 110.5t-48 107t-130 39q-178 0 -178 -178h-164q0 147 92 230t252 83t250 -72.5t90 -193.5q0 -82 -40 -135.5t-128 -87.5v-5q96 -35 139 -90t43 -145q0 -125 -97 -202t-261 -77t-257.5 83t-93.5 235h164
q0 -184 195 -185q82 0 134 42t52 108z" />
    <glyph glyph-name="acute" unicode="&#xb4;" horiz-adv-x="612" 
d="M102 1165l177 293h231l-252 -293h-156z" />
    <glyph glyph-name="mu" unicode="&#xb5;" horiz-adv-x="1193" 
d="M1104 137q39 0 63 6v-137q-55 -18 -132 -18q-158 0 -181 168h-4q-37 -78 -115 -124t-176 -46q-152 0 -219 86v-451h-180v1419h180v-616q0 -158 58 -226t174 -69q116 0 193 84t77 233v594h180v-743q-1 -92 21 -126t61 -34z" />
    <glyph glyph-name="paragraph" unicode="&#xb6;" horiz-adv-x="1204" 
d="M995 1331v-1577h-135v1577h-178v-1577h-135v877h-72q-180 0 -286.5 111.5t-106.5 300.5t106.5 302t286.5 113h684v-127h-164z" />
    <glyph glyph-name="periodcentered" unicode="&#xb7;" horiz-adv-x="462" 
d="M121 506v239h221v-239h-221z" />
    <glyph glyph-name="cedilla" unicode="&#xb8;" horiz-adv-x="645" 
d="M299 -362q115 0 115 83q0 39 -30 62.5t-72 23.5t-70 -12l-37 41l108 164h95l-82 -127q37 6 53 6q68 0 116 -41.5t48 -113.5t-58.5 -123.5t-168.5 -51.5t-214 56l37 76q74 -43 160 -43z" />
    <glyph glyph-name="onesuperior" unicode="&#xb9;" horiz-adv-x="561" 
d="M252 676v680h-229v123q123 0 181 37.5t72 125.5h138v-966h-162z" />
    <glyph glyph-name="ordmasculine" unicode="&#xba;" horiz-adv-x="851" 
d="M427 780q95 0 150 70q54 70 54 190t-54 191q-53 70 -149 70t-149 -70t-53 -191q0 -120 52 -190q54 -70 149 -70zM427 1425q169 0 267 -103q98 -102 98 -282t-98 -282t-267 -102t-268 102q-99 104 -100 282t99 282t269 103z" />
    <glyph glyph-name="guillemotright" unicode="&#xbb;" horiz-adv-x="950" 
d="M852 520l-234 -409h-169l229 409l-229 410h169zM500 520l-234 -409h-168l228 409l-228 410h168z" />
    <glyph glyph-name="onequarter" unicode="&#xbc;" horiz-adv-x="1476" 
d="M211 553v569h-193v119q100 0 151 33q50 33 64 106h136v-827h-158zM172 0l786 1380h152l-788 -1380h-150zM1171 324v100q0 92 5 272h-5q-82 -129 -172 -252l-86 -120h258zM1321 195v-195h-154v195h-399v135l350 497h203v-503h135v-129h-135z" />
    <glyph glyph-name="onehalf" unicode="&#xbd;" horiz-adv-x="1546" 
d="M211 553v569h-193v119q100 0 151 33q50 33 64 106h136v-827h-158zM172 0l786 1380h152l-788 -1380h-150zM1460 611q0 -103 -61 -169t-176 -126t-155 -100t-42 -87h457v-129h-623q-2 10 -2 66q0 138 95 233q53 53 159 111t149 97q42 38 42 94t-35 86t-97 30
q-139 0 -143 -142h-158q2 127 84 199t216 72t212 -66t78 -169z" />
    <glyph glyph-name="threequarters" unicode="&#xbe;" horiz-adv-x="1734" 
d="M666 1169q0 -69 -33 -113t-107 -75v-4q82 -29 118 -77t36 -126q0 -108 -85 -174t-231 -66t-228 74q-83 72 -83 203h158q0 -147 160 -147q69 0 111 32t42 89t-48 91t-140 33h-27v125h27q80 0 128 33t48 88t-39 85t-106 30q-150 0 -150 -140h-154q0 127 82 198
q81 70 221 70t220 -62t80 -167zM428 0l786 1380h152l-788 -1380h-150zM1430 324v100q0 92 4 272h-4q-82 -129 -173 -252l-86 -120h259zM1579 195v-195h-154v195h-399v135l350 497h203v-503h135v-129h-135z" />
    <glyph glyph-name="questiondown" unicode="&#xbf;" horiz-adv-x="989" 
d="M524 -283q263 0 279 265h186q-8 -209 -129 -318.5t-336 -109.5q-133 0 -233.5 46t-155.5 130t-55 177t26 171.5t193 216.5q82 68 119 117t51 112.5t14 177.5h160q2 -24 2 -98t-17.5 -141.5t-60.5 -126t-123 -126.5t-114.5 -111.5t-46 -80t-11.5 -90.5q0 -96 68 -153.5
t184 -57.5zM672 1040v-217h-213v217h213z" />
    <glyph glyph-name="Agrave" unicode="&#xc0;" horiz-adv-x="1382" 
d="M905 733q-125 344 -211 594h-4q-86 -250 -211 -594l-49 -133h522zM371 434l-160 -434h-201l553 1458h256l555 -1458h-203l-157 434h-643zM827 1556h-155l-252 283h231z" />
    <glyph glyph-name="Aacute" unicode="&#xc1;" horiz-adv-x="1382" 
d="M905 733q-125 344 -211 594h-4q-86 -250 -211 -594l-49 -133h522zM371 434l-160 -434h-201l553 1458h256l555 -1458h-203l-157 434h-643zM555 1556l176 283h232l-252 -283h-156z" />
    <glyph glyph-name="Acircumflex" unicode="&#xc2;" horiz-adv-x="1382" 
d="M905 733q-125 344 -211 594h-4q-86 -250 -211 -594l-49 -133h522zM371 434l-160 -434h-201l553 1458h256l555 -1458h-203l-157 434h-643zM791 1839l233 -283h-182l-152 183l-149 -183h-183l234 283h199z" />
    <glyph glyph-name="Atilde" unicode="&#xc3;" horiz-adv-x="1382" 
d="M905 733q-125 344 -211 594h-4q-86 -250 -211 -594l-49 -133h522zM371 434l-160 -434h-201l553 1458h256l555 -1458h-203l-157 434h-643zM551 1696q-84 0 -94 -105h-119q6 113 61.5 174.5t136 61.5t177.5 -60q81 -45 118 -45q82 0 95 105h118q-6 -113 -61 -174.5
t-135.5 -61.5t-177.5 60q-45 25 -68.5 35t-50.5 10z" />
    <glyph glyph-name="Adieresis" unicode="&#xc4;" horiz-adv-x="1382" 
d="M905 733q-125 344 -211 594h-4q-86 -250 -211 -594l-49 -133h522zM371 434l-160 -434h-201l553 1458h256l555 -1458h-203l-157 434h-643zM807 1587v203h168v-203h-168zM408 1587v203h167v-203h-167z" />
    <glyph glyph-name="Aring" unicode="&#xc5;" horiz-adv-x="1382" 
d="M905 733q-125 344 -211 594h-4q-86 -250 -211 -594l-49 -133h522zM371 434l-160 -434h-201l553 1458h256l555 -1458h-203l-157 434h-643zM573 1745q0 -49 35 -83t84 -34t83 34t34 83t-34 84t-83 35t-84 -35t-35 -84zM897 1746q0 -85 -60.5 -145.5t-145.5 -60.5
t-145.5 60.5t-60.5 145.5t60.5 145.5t145.5 60.5t145.5 -60.5t60.5 -145.5z" />
    <glyph glyph-name="AE" unicode="&#xc6;" horiz-adv-x="1918" 
d="M856 1298h-31l-323 -673h454zM1810 0h-759l-70 459h-559l-219 -459h-215l714 1458h1086v-168h-746l70 -461h635v-165h-610l73 -496h600v-168z" />
    <glyph glyph-name="Ccedilla" unicode="&#xc7;" horiz-adv-x="1411" 
d="M692 -362q115 0 115 83q0 39 -29.5 62.5t-73 23.5t-69.5 -12l-37 41l90 135q-184 8 -319.5 101.5t-208 261.5t-72.5 398t77 401.5t221 262.5t328.5 91t312.5 -66.5t199.5 -185.5t80.5 -270h-195q-14 162 -117.5 256t-267.5 94q-207 0 -324.5 -157t-117.5 -429t116.5 -429
t319.5 -157q162 0 268.5 96.5t128.5 262.5h197q-23 -230 -162 -370t-369 -159l-65 -100q37 6 53 6q68 0 116 -42t48 -113.5t-58.5 -123t-168 -51.5t-213.5 56l36 76q74 -43 160 -43z" />
    <glyph glyph-name="Egrave" unicode="&#xc8;" horiz-adv-x="1265" 
d="M383 1290v-461h709v-165h-709v-496h774v-168h-962v1458h940v-168h-752zM801 1556h-156l-252 283h232z" />
    <glyph glyph-name="Eacute" unicode="&#xc9;" horiz-adv-x="1265" 
d="M383 1290v-461h709v-165h-709v-496h774v-168h-962v1458h940v-168h-752zM526 1556l176 283h232l-252 -283h-156z" />
    <glyph glyph-name="Ecircumflex" unicode="&#xca;" horiz-adv-x="1265" 
d="M383 1290v-461h709v-165h-709v-496h774v-168h-962v1458h940v-168h-752zM764 1839l233 -283h-182l-151 183l-150 -183h-182l233 283h199z" />
    <glyph glyph-name="Edieresis" unicode="&#xcb;" horiz-adv-x="1265" 
d="M383 1290v-461h709v-165h-709v-496h774v-168h-962v1458h940v-168h-752zM780 1587v203h168v-203h-168zM381 1587v203h168v-203h-168z" />
    <glyph glyph-name="Igrave" unicode="&#xcc;" horiz-adv-x="577" 
d="M195 0v1458h188v-1458h-188zM426 1556h-156l-252 283h232z" />
    <glyph glyph-name="Iacute" unicode="&#xcd;" horiz-adv-x="577" 
d="M195 0v1458h188v-1458h-188zM152 1556l176 283h231l-252 -283h-155z" />
    <glyph glyph-name="Icircumflex" unicode="&#xce;" horiz-adv-x="577" 
d="M195 0v1458h188v-1458h-188zM387 1839l234 -283h-183l-151 183l-150 -183h-182l233 283h199z" />
    <glyph glyph-name="Idieresis" unicode="&#xcf;" horiz-adv-x="577" 
d="M195 0v1458h188v-1458h-188zM403 1587v203h168v-203h-168zM4 1587v203h168v-203h-168z" />
    <glyph glyph-name="Eth" unicode="&#xd0;" horiz-adv-x="1480" 
d="M1196 729.5q0 274.5 -143.5 417.5t-415.5 143h-254v-479h414v-145h-414v-498h254q272 0 415.5 143.5t143.5 418zM1395 729q0 -350 -197 -539.5t-559 -189.5h-444v666h-136v145h136v647h444q362 0 559 -189.5t197 -539.5z" />
    <glyph glyph-name="Ntilde" unicode="&#xd1;" horiz-adv-x="1546" 
d="M379 584v-584h-184v1458h276l348 -629q207 -377 352 -653h5q-6 350 -7 698v584h185v-1458h-279l-346 629q-197 352 -352 653h-4q6 -350 6 -698zM635 1696q-84 0 -94 -105h-119q6 113 61.5 174.5t136 61.5t177.5 -60q81 -45 118 -45q82 0 95 105h118q-6 -113 -61 -174.5
t-135.5 -61.5t-177.5 60q-45 25 -68.5 35t-50.5 10z" />
    <glyph glyph-name="Ograve" unicode="&#xd2;" horiz-adv-x="1499" 
d="M285 729q0 -178 56 -310t161.5 -204t247 -72t247 72t161.5 204t56 310t-56 310t-161.5 204t-247 72t-247 -72t-161.5 -204t-56 -310zM1411 729.5q0 -231.5 -81 -402.5t-230.5 -263.5t-350 -92.5t-350 92.5t-230.5 263.5t-81 402.5t81 402.5t230.5 263t350 92t350 -92
t230.5 -263t81 -402.5zM885 1556h-156l-252 283h232z" />
    <glyph glyph-name="Oacute" unicode="&#xd3;" horiz-adv-x="1499" 
d="M285 729q0 -178 56 -310t161.5 -204t247 -72t247 72t161.5 204t56 310t-56 310t-161.5 204t-247 72t-247 -72t-161.5 -204t-56 -310zM1411 729.5q0 -231.5 -81 -402.5t-230.5 -263.5t-350 -92.5t-350 92.5t-230.5 263.5t-81 402.5t81 402.5t230.5 263t350 92t350 -92
t230.5 -263t81 -402.5zM612 1556l176 283h232l-252 -283h-156z" />
    <glyph glyph-name="Ocircumflex" unicode="&#xd4;" horiz-adv-x="1499" 
d="M285 729q0 -178 56 -310t161.5 -204t247 -72t247 72t161.5 204t56 310t-56 310t-161.5 204t-247 72t-247 -72t-161.5 -204t-56 -310zM1411 729.5q0 -231.5 -81 -402.5t-230.5 -263.5t-350 -92.5t-350 92.5t-230.5 263.5t-81 402.5t81 402.5t230.5 263t350 92t350 -92
t230.5 -263t81 -402.5zM848 1839l233 -283h-182l-151 183l-150 -183h-182l233 283h199z" />
    <glyph glyph-name="Otilde" unicode="&#xd5;" horiz-adv-x="1499" 
d="M285 729q0 -178 56 -310t161.5 -204t247 -72t247 72t161.5 204t56 310t-56 310t-161.5 204t-247 72t-247 -72t-161.5 -204t-56 -310zM1411 729.5q0 -231.5 -81 -402.5t-230.5 -263.5t-350 -92.5t-350 92.5t-230.5 263.5t-81 402.5t81 402.5t230.5 263t350 92t350 -92
t230.5 -263t81 -402.5zM610 1696q-84 0 -94 -105h-119q6 113 61.5 174.5t136 61.5t177.5 -60q45 -25 68.5 -35t50.5 -10q82 0 94 105h119q-6 -113 -61.5 -174.5t-136 -61.5t-177.5 60q-45 25 -68.5 35t-50.5 10z" />
    <glyph glyph-name="Odieresis" unicode="&#xd6;" horiz-adv-x="1499" 
d="M285 729q0 -178 56 -310t161.5 -204t247 -72t247 72t161.5 204t56 310t-56 310t-161.5 204t-247 72t-247 -72t-161.5 -204t-56 -310zM1411 729.5q0 -231.5 -81 -402.5t-230.5 -263.5t-350 -92.5t-350 92.5t-230.5 263.5t-81 402.5t81 402.5t230.5 263t350 92t350 -92
t230.5 -263t81 -402.5zM864 1587v203h168v-203h-168zM465 1587v203h168v-203h-168z" />
    <glyph glyph-name="multiply" unicode="&#xd7;" horiz-adv-x="1159" 
d="M684 627l395 -394l-104 -104l-395 393l-394 -393l-106 104l395 394l-395 395l106 104l394 -393l395 393l104 -104z" />
    <glyph glyph-name="Oslash" unicode="&#xd8;" horiz-adv-x="1499" 
d="M1219 757q0 208 -95 359l-661 -876q119 -102 274.5 -102.5t261 72.5t163 206t57.5 341zM763 1321q-156 0 -262 -72.5t-163 -206t-57 -341t94 -359.5l663 877q-119 102 -275 102zM1411 729q0 -231 -81 -402t-230.5 -263.5t-367.5 -92.5t-378 123l-123 -162l-104 80
l131 174q-170 207 -170 543q0 231 81 402.5t230.5 263.5t368 92t379.5 -125l123 164l102 -80l-131 -174q170 -209 170 -543z" />
    <glyph glyph-name="Ugrave" unicode="&#xd9;" horiz-adv-x="1443" 
d="M722 -29q-263 0 -401.5 146.5t-138.5 429.5v911h189v-907q0 -201 92 -304.5t260 -103.5t259 103.5t91 304.5v907h191v-911q0 -281 -139.5 -428.5t-402.5 -147.5zM858 1556h-156l-251 283h231z" />
    <glyph glyph-name="Uacute" unicode="&#xda;" horiz-adv-x="1443" 
d="M722 -29q-263 0 -401.5 146.5t-138.5 429.5v911h189v-907q0 -201 92 -304.5t260 -103.5t259 103.5t91 304.5v907h191v-911q0 -281 -139.5 -428.5t-402.5 -147.5zM586 1556l176 283h231l-252 -283h-155z" />
    <glyph glyph-name="Ucircumflex" unicode="&#xdb;" horiz-adv-x="1443" 
d="M722 -29q-263 0 -401.5 146.5t-138.5 429.5v911h189v-907q0 -201 92 -304.5t260 -103.5t259 103.5t91 304.5v907h191v-911q0 -281 -139.5 -428.5t-402.5 -147.5zM821 1839l234 -283h-183l-151 183l-150 -183h-182l234 283h198z" />
    <glyph glyph-name="Udieresis" unicode="&#xdc;" horiz-adv-x="1443" 
d="M722 -29q-263 0 -401.5 146.5t-138.5 429.5v911h189v-907q0 -201 92 -304.5t260 -103.5t259 103.5t91 304.5v907h191v-911q0 -281 -139.5 -428.5t-402.5 -147.5zM838 1587v203h168v-203h-168zM438 1587v203h168v-203h-168z" />
    <glyph glyph-name="Yacute" unicode="&#xdd;" horiz-adv-x="1257" 
d="M723 0h-188v604l-527 854h219l179 -301q104 -176 221 -385h4q117 209 221 385l180 301h217l-526 -854v-604zM492 1556l176 283h231l-252 -283h-155z" />
    <glyph glyph-name="Thorn" unicode="&#xde;" horiz-adv-x="1261" 
d="M383 477h297q164 0 247 73t83 204t-83 202.5t-247 71.5h-297v-551zM694 1192q248 0 379 -118t131 -322t-131 -321.5t-379 -117.5h-311v-313h-188v1458h188v-266h311z" />
    <glyph glyph-name="germandbls" unicode="&#xdf;" horiz-adv-x="1140" 
d="M991 1135q0 -240 -235 -318v-4q143 -27 224 -127t81 -262q0 -205 -127 -320.5t-346 -115.5q-57 0 -105 12v154q37 -10 82 -11q145 0 226 76t81 215t-80.5 218t-224.5 79h-28v160q274 0 274 227q0 102 -61.5 159.5t-167.5 57.5q-244 0 -244 -303v-1032h-180v1044
q0 211 110 327t304 116t305.5 -96.5t111.5 -255.5z" />
    <glyph glyph-name="agrave" unicode="&#xe0;" horiz-adv-x="1087" 
d="M254 293q0 -80 56 -128t138 -48q152 0 234 82q47 49 65.5 101t18.5 144v64q-157 -13 -280 -33t-177.5 -61t-54.5 -121zM70 282.5q0 135.5 89 214t273.5 108.5t333.5 40v41q0 125 -62.5 184.5t-173 59.5t-172 -56.5t-65.5 -150.5h-180q8 154 116.5 250t302 96t301 -101.5
t107.5 -301.5v-400q0 -158 25 -266h-164q-14 66 -15 152h-4q-115 -175 -360 -175q-160 0 -256 85t-96 220.5zM653 1165h-155l-252 293h231z" />
    <glyph glyph-name="aacute" unicode="&#xe1;" horiz-adv-x="1087" 
d="M254 293q0 -80 56 -128t138 -48q152 0 234 82q47 49 65.5 101t18.5 144v64q-157 -13 -280 -33t-177.5 -61t-54.5 -121zM70 282.5q0 135.5 89 214t273.5 108.5t333.5 40v41q0 125 -62.5 184.5t-173 59.5t-172 -56.5t-65.5 -150.5h-180q8 154 116.5 250t302 96t301 -101.5
t107.5 -301.5v-400q0 -158 25 -266h-164q-14 66 -15 152h-4q-115 -175 -360 -175q-160 0 -256 85t-96 220.5zM381 1165l176 293h231l-251 -293h-156z" />
    <glyph glyph-name="acircumflex" unicode="&#xe2;" horiz-adv-x="1087" 
d="M254 293q0 -80 56 -128t138 -48q152 0 234 82q47 49 65.5 101t18.5 144v64q-157 -13 -280 -33t-177.5 -61t-54.5 -121zM70 282.5q0 135.5 89 214t273.5 108.5t333.5 40v41q0 125 -62.5 184.5t-173 59.5t-172 -56.5t-65.5 -150.5h-180q8 154 116.5 250t302 96t301 -101.5
t107.5 -301.5v-400q0 -158 25 -266h-164q-14 66 -15 152h-4q-115 -175 -360 -175q-160 0 -256 85t-96 220.5zM518 1356l-151 -191h-183l234 293h198l234 -293h-182z" />
    <glyph glyph-name="atilde" unicode="&#xe3;" horiz-adv-x="1087" 
d="M254 293q0 -80 56 -128t138 -48q152 0 234 82q47 49 65.5 101t18.5 144v64q-157 -13 -280 -33t-177.5 -61t-54.5 -121zM70 282.5q0 135.5 89 214t273.5 108.5t333.5 40v41q0 125 -62.5 184.5t-173 59.5t-172 -56.5t-65.5 -150.5h-180q8 154 116.5 250t302 96t301 -101.5
t107.5 -301.5v-400q0 -158 25 -266h-164q-14 66 -15 152h-4q-115 -175 -360 -175q-160 0 -256 85t-96 220.5zM379 1315q-84 0 -94 -105h-119q6 113 61.5 174.5t136 61.5t177.5 -60q81 -45 118 -45q82 0 95 105h118q-6 -113 -61 -174.5t-135.5 -61.5t-177.5 60
q-45 25 -68.5 35t-50.5 10z" />
    <glyph glyph-name="adieresis" unicode="&#xe4;" horiz-adv-x="1087" 
d="M254 293q0 -80 56 -128t138 -48q152 0 234 82q47 49 65.5 101t18.5 144v64q-157 -13 -280 -33t-177.5 -61t-54.5 -121zM70 282.5q0 135.5 89 214t273.5 108.5t333.5 40v41q0 125 -62.5 184.5t-173 59.5t-172 -56.5t-65.5 -150.5h-180q8 154 116.5 250t302 96t301 -101.5
t107.5 -301.5v-400q0 -158 25 -266h-164q-14 66 -15 152h-4q-115 -175 -360 -175q-160 0 -256 85t-96 220.5zM633 1255v203h168v-203h-168zM233 1255v203h168v-203h-168z" />
    <glyph glyph-name="aring" unicode="&#xe5;" horiz-adv-x="1087" 
d="M254 293q0 -80 56 -128t138 -48q152 0 234 82q47 49 65.5 101t18.5 144v64q-157 -13 -280 -33t-177.5 -61t-54.5 -121zM70 282.5q0 135.5 89 214t273.5 108.5t333.5 40v41q0 125 -62.5 184.5t-173 59.5t-172 -56.5t-65.5 -150.5h-180q8 154 116.5 250t302 96t301 -101.5
t107.5 -301.5v-400q0 -158 25 -266h-164q-14 66 -15 152h-4q-115 -175 -360 -175q-160 0 -256 85t-96 220.5zM399 1364q0 -49 35 -84t84 -35t83 34t34 84t-34 85t-83 35t-84 -35t-35 -84zM723 1363q0 -85 -60.5 -145.5t-145.5 -60.5t-145.5 60.5t-60.5 145.5t60.5 145.5
t145.5 60.5t145.5 -60.5t60.5 -145.5z" />
    <glyph glyph-name="ae" unicode="&#xe6;" horiz-adv-x="1765" 
d="M569 477q-172 0 -243.5 -46t-71.5 -134t57.5 -137t141.5 -49q159 0 235 84q49 49 67.5 103t18.5 146v33h-205zM1221.5 930q-119.5 0 -195.5 -83t-88 -233h565q-8 152 -85 234t-196.5 82zM850 193q-119 -222 -424 -222q-154 0 -255 87t-101 236t111.5 234.5t367.5 85.5
h225v72q0 123 -62.5 183.5t-175 60.5t-175 -56.5t-68.5 -150.5h-180q10 154 119.5 250t302.5 96q252 0 344 -168q120 168 344 168q166 0 282.5 -98.5t155.5 -265.5q20 -88 20 -228h-745q8 -182 88 -274t194.5 -92t182 55t86.5 145h184q-27 -145 -142.5 -242.5t-299.5 -97.5
q-261 0 -379 222z" />
    <glyph glyph-name="ccedilla" unicode="&#xe7;" horiz-adv-x="1093" 
d="M549 -362q115 0 115 83q0 39 -30 62.5t-72 23.5t-70 -12l-37 41l90 135q-213 10 -337 156.5t-124 392.5q0 168 59.5 292t170 190.5t246.5 66.5t233.5 -50t156 -140.5t68.5 -206.5h-189q-10 111 -80.5 180.5t-177.5 69.5q-137 0 -217 -107.5t-80 -294t79 -294t218 -107.5
q107 0 177.5 74.5t80.5 189.5h189q-14 -164 -115.5 -275.5t-261.5 -132.5l-66 -102q37 6 54 6q68 0 116 -42t48 -113.5t-58.5 -123t-168.5 -51.5t-214 56l37 76q74 -43 160 -43z" />
    <glyph glyph-name="egrave" unicode="&#xe8;" horiz-adv-x="1126" 
d="M565 930q-125 0 -204.5 -81t-94.5 -228h598q-14 150 -94 229.5t-205 79.5zM592.5 -29q-171.5 0 -281.5 70t-168.5 197t-58.5 289t58.5 283.5t168 190t270 68.5t280.5 -96t161 -266q20 -84 20 -224h-778q6 -184 91 -278t207 -94t194.5 55t91.5 145h184
q-29 -145 -148.5 -242.5t-291 -97.5zM698 1165h-155l-252 293h231z" />
    <glyph glyph-name="eacute" unicode="&#xe9;" horiz-adv-x="1126" 
d="M565 930q-125 0 -204.5 -81t-94.5 -228h598q-14 150 -94 229.5t-205 79.5zM592.5 -29q-171.5 0 -281.5 70t-168.5 197t-58.5 289t58.5 283.5t168 190t270 68.5t280.5 -96t161 -266q20 -84 20 -224h-778q6 -184 91 -278t207 -94t194.5 55t91.5 145h184
q-29 -145 -148.5 -242.5t-291 -97.5zM426 1165l176 293h232l-252 -293h-156z" />
    <glyph glyph-name="ecircumflex" unicode="&#xea;" horiz-adv-x="1126" 
d="M565 930q-125 0 -204.5 -81t-94.5 -228h598q-14 150 -94 229.5t-205 79.5zM592.5 -29q-171.5 0 -281.5 70t-168.5 197t-58.5 289t58.5 283.5t168 190t270 68.5t280.5 -96t161 -266q20 -84 20 -224h-778q6 -184 91 -278t207 -94t194.5 55t91.5 145h184
q-29 -145 -148.5 -242.5t-291 -97.5zM563 1356l-151 -191h-183l234 293h199l233 -293h-182z" />
    <glyph glyph-name="edieresis" unicode="&#xeb;" horiz-adv-x="1126" 
d="M565 930q-125 0 -204.5 -81t-94.5 -228h598q-14 150 -94 229.5t-205 79.5zM592.5 -29q-171.5 0 -281.5 70t-168.5 197t-58.5 289t58.5 283.5t168 190t270 68.5t280.5 -96t161 -266q20 -84 20 -224h-778q6 -184 91 -278t207 -94t194.5 55t91.5 145h184
q-29 -145 -148.5 -242.5t-291 -97.5zM678 1255v203h168v-203h-168zM279 1255v203h167v-203h-167z" />
    <glyph glyph-name="igrave" unicode="&#xec;" horiz-adv-x="499" 
d="M160 0v1040h180v-1040h-180zM387 1165h-156l-251 293h231z" />
    <glyph glyph-name="iacute" unicode="&#xed;" horiz-adv-x="499" 
d="M160 0v1040h180v-1040h-180zM115 1165l176 293h231l-252 -293h-155z" />
    <glyph glyph-name="icircumflex" unicode="&#xee;" horiz-adv-x="499" 
d="M160 0v1040h180v-1040h-180zM379 1167l-129 191l-127 -191h-176l205 291h196l205 -291h-174z" />
    <glyph glyph-name="idieresis" unicode="&#xef;" horiz-adv-x="499" 
d="M160 0v1040h180v-1040h-180zM324 1255v203h165v-203h-165zM8 1255v203h168v-203h-168z" />
    <glyph glyph-name="eth" unicode="&#xf0;" horiz-adv-x="1159" 
d="M885 517q0 185 -82 291.5t-224 106.5t-224.5 -106.5t-82.5 -291.5t82 -291.5t224 -106.5t224.5 106.5t82.5 291.5zM1073 524q0 -256 -132 -404.5t-361.5 -148.5t-362.5 144.5t-133 393.5t124 393.5t337 144.5q125 0 213 -72v4q-90 121 -226 240l-274 -123l-43 100
l223 100q-76 59 -143 105l133 86q94 -63 164 -121l252 113l45 -101l-205 -92q389 -338 389 -762z" />
    <glyph glyph-name="ntilde" unicode="&#xf1;" 
d="M1030 635v-635h-180v621q0 158 -61.5 226t-178 68t-193.5 -83.5t-77 -235.5v-596h-180v1040h174v-137h4q49 74 131 117t184 43q181 0 279 -108.5t98 -319.5zM303 1384.5q55 61.5 135.5 61.5t177.5 -60q81 -45 119 -45q82 0 94 105h119q-6 -113 -61.5 -174.5t-135 -61.5
t-178.5 60q-81 45 -118 45q-84 0 -95 -105h-118q6 113 61 174.5z" />
    <glyph glyph-name="ograve" unicode="&#xf2;" horiz-adv-x="1157" 
d="M272 520.5q0 -186.5 82 -294t224.5 -107.5t224.5 107.5t82 294t-82 294t-224.5 107.5t-224.5 -107.5t-82 -294zM1073 520q0 -254 -133 -401.5t-362.5 -147.5t-361.5 147.5t-132 401.5t132 401.5t361.5 147.5t362.5 -147.5t133 -401.5zM715 1165h-156l-252 293h232z" />
    <glyph glyph-name="oacute" unicode="&#xf3;" horiz-adv-x="1157" 
d="M272 520.5q0 -186.5 82 -294t224.5 -107.5t224.5 107.5t82 294t-82 294t-224.5 107.5t-224.5 -107.5t-82 -294zM1073 520q0 -254 -133 -401.5t-362.5 -147.5t-361.5 147.5t-132 401.5t132 401.5t361.5 147.5t362.5 -147.5t133 -401.5zM442 1165l176 293h232l-252 -293
h-156z" />
    <glyph glyph-name="ocircumflex" unicode="&#xf4;" horiz-adv-x="1157" 
d="M272 520.5q0 -186.5 82 -294t224.5 -107.5t224.5 107.5t82 294t-82 294t-224.5 107.5t-224.5 -107.5t-82 -294zM1073 520q0 -254 -133 -401.5t-362.5 -147.5t-361.5 147.5t-132 401.5t132 401.5t361.5 147.5t362.5 -147.5t133 -401.5zM580 1356l-152 -191h-182l233 293
h199l233 -293h-182z" />
    <glyph glyph-name="otilde" unicode="&#xf5;" horiz-adv-x="1157" 
d="M272 520.5q0 -186.5 82 -294t224.5 -107.5t224.5 107.5t82 294t-82 294t-224.5 107.5t-224.5 -107.5t-82 -294zM1073 520q0 -254 -133 -401.5t-362.5 -147.5t-361.5 147.5t-132 401.5t132 401.5t361.5 147.5t362.5 -147.5t133 -401.5zM438 1315q-84 0 -94 -105h-119
q6 113 61.5 174.5t136 61.5t177.5 -60q45 -25 68.5 -35t50.5 -10q82 0 94 105h119q-6 -113 -61.5 -174.5t-136 -61.5t-177.5 60q-45 25 -68.5 35t-50.5 10z" />
    <glyph glyph-name="odieresis" unicode="&#xf6;" horiz-adv-x="1157" 
d="M272 520.5q0 -186.5 82 -294t224.5 -107.5t224.5 107.5t82 294t-82 294t-224.5 107.5t-224.5 -107.5t-82 -294zM1073 520q0 -254 -133 -401.5t-362.5 -147.5t-361.5 147.5t-132 401.5t132 401.5t361.5 147.5t362.5 -147.5t133 -401.5zM694 1255v203h168v-203h-168z
M295 1255v203h168v-203h-168z" />
    <glyph glyph-name="divide" unicode="&#xf7;" horiz-adv-x="1159" 
d="M496 221v174h168v-174h-168zM145 573v150h869v-150h-869zM496 903v174h168v-174h-168z" />
    <glyph glyph-name="oslash" unicode="&#xf8;" horiz-adv-x="1159" 
d="M891 498.5q0 166.5 -55 271.5l-445 -592q76 -63 187 -63q145 0 229 108.5t84 275zM266 539.5q0 -169.5 53 -269.5l447 590q-76 66 -188 66q-144 0 -228 -108.5t-84 -278zM1073 518q0 -252 -133 -399.5t-362 -147.5q-168 0 -283 78l-105 -135l-88 68l109 143
q-127 145 -127 397t132 399.5t362 147.5q166 0 284 -80l107 139l88 -71l-109 -144q125 -143 125 -395z" />
    <glyph glyph-name="ugrave" unicode="&#xf9;" 
d="M150 406v634h180v-620q0 -158 61.5 -226.5t177 -68.5t193.5 85t78 234v596h180v-1040h-174v137h-4q-49 -74 -132 -117t-186 -43q-180 0 -277 109t-97 320zM727 1165h-156l-252 293h232z" />
    <glyph glyph-name="uacute" unicode="&#xfa;" 
d="M150 406v634h180v-620q0 -158 61.5 -226.5t177 -68.5t193.5 85t78 234v596h180v-1040h-174v137h-4q-49 -74 -132 -117t-186 -43q-180 0 -277 109t-97 320zM453 1165l176 293h231l-252 -293h-155z" />
    <glyph glyph-name="ucircumflex" unicode="&#xfb;" 
d="M150 406v634h180v-620q0 -158 61.5 -226.5t177 -68.5t193.5 85t78 234v596h180v-1040h-174v137h-4q-49 -74 -132 -117t-186 -43q-180 0 -277 109t-97 320zM590 1356l-152 -191h-182l233 293h199l234 -293h-183z" />
    <glyph glyph-name="udieresis" unicode="&#xfc;" 
d="M150 406v634h180v-620q0 -158 61.5 -226.5t177 -68.5t193.5 85t78 234v596h180v-1040h-174v137h-4q-49 -74 -132 -117t-186 -43q-180 0 -277 109t-97 320zM705 1255v203h167v-203h-167zM305 1255v203h168v-203h-168z" />
    <glyph glyph-name="yacute" unicode="&#xfd;" horiz-adv-x="966" 
d="M160 -387q-88 0 -121 10v152q37 -12 96.5 -12.5t103.5 20t76.5 70t67.5 143.5l-395 1044h194l299 -827h4l303 827h191l-418 -1087q-51 -135 -107.5 -208t-131 -102.5t-162.5 -29.5zM348 1165l176 293h232l-252 -293h-156z" />
    <glyph glyph-name="thorn" unicode="&#xfe;" 
d="M332 522.5q0 -184.5 76.5 -293t207.5 -108.5t211 109.5t80 292t-79.5 291t-211.5 108.5t-208 -107.5t-76 -292zM672 1067q118 0 217.5 -66.5t153 -190.5t53.5 -288t-53.5 -287.5t-151 -191.5t-215.5 -68t-203.5 46.5t-128.5 125.5h-4v-526h-180v1837h180v-561h4
q43 78 126.5 124t201.5 46z" />
    <glyph glyph-name="ydieresis" unicode="&#xff;" horiz-adv-x="966" 
d="M160 -387q-88 0 -121 10v152q37 -12 96.5 -12.5t103.5 20t76.5 70t67.5 143.5l-395 1044h194l299 -827h4l303 827h191l-418 -1087q-51 -135 -107.5 -208t-131 -102.5t-162.5 -29.5zM600 1255v203h168v-203h-168zM201 1255v203h168v-203h-168z" />
    <glyph glyph-name="Amacron" unicode="&#x100;" horiz-adv-x="1382" 
d="M905 733q-125 344 -211 594h-4q-86 -250 -211 -594l-49 -133h522zM371 434l-160 -434h-201l553 1458h256l555 -1458h-203l-157 434h-643zM399 1614v133h582v-133h-582z" />
    <glyph glyph-name="amacron" unicode="&#x101;" horiz-adv-x="1087" 
d="M254 293q0 -80 56 -128t138 -48q152 0 234 82q47 49 65.5 101t18.5 144v64q-157 -13 -280 -33t-177.5 -61t-54.5 -121zM70 282.5q0 135.5 89 214t273.5 108.5t333.5 40v41q0 125 -62.5 184.5t-173 59.5t-172 -56.5t-65.5 -150.5h-180q8 154 116.5 250t302 96t301 -101.5
t107.5 -301.5v-400q0 -158 25 -266h-164q-14 66 -15 152h-4q-115 -175 -360 -175q-160 0 -256 85t-96 220.5zM227 1262v131h582v-131h-582z" />
    <glyph glyph-name="Abreve" unicode="&#x102;" horiz-adv-x="1382" 
d="M905 733q-125 344 -211 594h-4q-86 -250 -211 -594l-49 -133h522zM371 434l-160 -434h-201l553 1458h256l555 -1458h-203l-157 434h-643zM691.5 1548q-142.5 0 -225.5 76t-93 215h135q8 -78 57 -121t127 -43t126 43t59 121h133q-11 -139 -93.5 -215t-225 -76z" />
    <glyph glyph-name="abreve" unicode="&#x103;" horiz-adv-x="1087" 
d="M254 293q0 -80 56 -128t138 -48q152 0 234 82q47 49 65.5 101t18.5 144v64q-157 -13 -280 -33t-177.5 -61t-54.5 -121zM70 282.5q0 135.5 89 214t273.5 108.5t333.5 40v41q0 125 -62.5 184.5t-173 59.5t-172 -56.5t-65.5 -150.5h-180q8 154 116.5 250t302 96t301 -101.5
t107.5 -301.5v-400q0 -158 25 -266h-164q-14 66 -15 152h-4q-115 -175 -360 -175q-160 0 -256 85t-96 220.5zM518 1165q-141 0 -225 77t-94 216h135q8 -80 57 -123t127 -43t126 43t58 123h134q-11 -139 -94 -216t-224 -77z" />
    <glyph glyph-name="Aogonek" unicode="&#x104;" horiz-adv-x="1382" 
d="M905 733q-125 344 -211 594h-4q-86 -250 -211 -594l-49 -133h522zM1243.5 -397q-85.5 0 -136 43t-50.5 115t38 126t122 113h-46l-157 434h-643l-160 -434h-201l553 1458h256l555 -1458q-86 -63 -120.5 -111.5t-34.5 -97.5q0 -74 81 -74q45 1 80 15v-109
q-51 -20 -136.5 -20z" />
    <glyph glyph-name="aogonek" unicode="&#x105;" horiz-adv-x="1087" 
d="M254 293q0 -80 56 -128t138 -48q152 0 234 82q47 49 65.5 101t18.5 144v64q-157 -13 -280 -33t-177.5 -61t-54.5 -121zM70 282.5q0 135.5 89 214t273.5 108.5t333.5 40v41q0 125 -62.5 184.5t-173 59.5t-172 -56.5t-65.5 -150.5h-180q8 154 116.5 250t302 96t301 -101.5
t107.5 -301.5v-400q0 -158 25 -266q-86 -63 -121 -111.5t-35 -97.5q0 -74 82 -74q45 1 80 15v-109q-51 -20 -137 -20t-136.5 43t-50.5 115t38 126t122 113h-6q-14 66 -15 152h-4q-115 -175 -360 -175q-160 0 -256 85t-96 220.5z" />
    <glyph glyph-name="Cacute" unicode="&#x106;" horiz-adv-x="1411" 
d="M727 1315q-207 0 -324.5 -157t-117.5 -429t116.5 -429t319.5 -157q162 0 268.5 96.5t128.5 262.5h197q-23 -246 -180.5 -388.5t-413.5 -142.5q-195 0 -337 91.5t-219 262.5t-77 404.5t77 404.5t221 262t328.5 91t312.5 -66.5t199.5 -185.5t80.5 -270h-195
q-14 162 -117.5 256t-267.5 94zM590 1556l176 283h231l-252 -283h-155z" />
    <glyph glyph-name="cacute" unicode="&#x107;" horiz-adv-x="1093" 
d="M571 922q-137 0 -217 -107.5t-80 -294t79 -294t218 -107.5q106 0 177 74.5t81 189.5h189q-10 -119 -67.5 -212t-155 -146.5t-235 -53.5t-247.5 66.5t-169.5 190.5t-59.5 292t59.5 292t170 190.5t246.5 66.5t233.5 -50t156 -140.5t68.5 -206.5h-189q-10 111 -80.5 180.5
t-177.5 69.5zM436 1165l176 293h232l-252 -293h-156z" />
    <glyph glyph-name="Ccircumflex" unicode="&#x108;" horiz-adv-x="1411" 
d="M727 1315q-207 0 -324.5 -157t-117.5 -429t116.5 -429t319.5 -157q162 0 268.5 96.5t128.5 262.5h197q-23 -246 -180.5 -388.5t-413.5 -142.5q-195 0 -337 91.5t-219 262.5t-77 404.5t77 404.5t221 262t328.5 91t312.5 -66.5t199.5 -185.5t80.5 -270h-195
q-14 162 -117.5 256t-267.5 94zM825 1839l234 -283h-182l-152 183l-150 -183h-182l234 283h198z" />
    <glyph glyph-name="ccircumflex" unicode="&#x109;" horiz-adv-x="1093" 
d="M571 922q-137 0 -217 -107.5t-80 -294t79 -294t218 -107.5q106 0 177 74.5t81 189.5h189q-10 -119 -67.5 -212t-155 -146.5t-235 -53.5t-247.5 66.5t-169.5 190.5t-59.5 292t59.5 292t170 190.5t246.5 66.5t233.5 -50t156 -140.5t68.5 -206.5h-189q-10 111 -80.5 180.5
t-177.5 69.5zM573 1356l-151 -191h-182l233 293h199l233 -293h-182z" />
    <glyph glyph-name="Cdotaccent" unicode="&#x10a;" horiz-adv-x="1411" 
d="M727 1315q-207 0 -324.5 -157t-117.5 -429t116.5 -429t319.5 -157q162 0 268.5 96.5t128.5 262.5h197q-23 -246 -180.5 -388.5t-413.5 -142.5q-195 0 -337 91.5t-219 262.5t-77 404.5t77 404.5t221 262t328.5 91t312.5 -66.5t199.5 -185.5t80.5 -270h-195
q-14 162 -117.5 256t-267.5 94zM637 1575v203h180v-203h-180z" />
    <glyph glyph-name="cdotaccent" unicode="&#x10b;" horiz-adv-x="1093" 
d="M571 922q-137 0 -217 -107.5t-80 -294t79 -294t218 -107.5q106 0 177 74.5t81 189.5h189q-10 -119 -67.5 -212t-155 -146.5t-235 -53.5t-247.5 66.5t-169.5 190.5t-59.5 292t59.5 292t170 190.5t246.5 66.5t233.5 -50t156 -140.5t68.5 -206.5h-189q-10 111 -80.5 180.5
t-177.5 69.5zM481 1255v203h181v-203h-181z" />
    <glyph glyph-name="Ccaron" unicode="&#x10c;" horiz-adv-x="1411" 
d="M727 1315q-207 0 -324.5 -157t-117.5 -429t116.5 -429t319.5 -157q162 0 268.5 96.5t128.5 262.5h197q-23 -246 -180.5 -388.5t-413.5 -142.5q-195 0 -337 91.5t-219 262.5t-77 404.5t77 404.5t221 262t328.5 91t312.5 -66.5t199.5 -185.5t80.5 -270h-195
q-14 162 -117.5 256t-267.5 94zM627 1556l-234 283h182l152 -180l150 180h182l-234 -283h-198z" />
    <glyph glyph-name="ccaron" unicode="&#x10d;" horiz-adv-x="1093" 
d="M571 922q-137 0 -217 -107.5t-80 -294t79 -294t218 -107.5q106 0 177 74.5t81 189.5h189q-10 -119 -67.5 -212t-155 -146.5t-235 -53.5t-247.5 66.5t-169.5 190.5t-59.5 292t59.5 292t170 190.5t246.5 66.5t233.5 -50t156 -140.5t68.5 -206.5h-189q-10 111 -80.5 180.5
t-177.5 69.5zM473 1165l-233 293h182l151 -190l150 190h182l-233 -293h-199z" />
    <glyph glyph-name="Dcaron" unicode="&#x10e;" horiz-adv-x="1480" 
d="M383 168h254q272 0 415.5 143.5t143.5 418t-143.5 417.5t-415.5 143h-254v-1122zM1395 729q0 -350 -197 -539.5t-559 -189.5h-444v1458h444q362 0 559 -189.5t197 -539.5zM573 1556l-233 283h182l152 -180l149 180h183l-234 -283h-199z" />
    <glyph glyph-name="dcaron" unicode="&#x10f;" 
d="M272 522q0 -182 80 -292t211 -110t209 110q78 108 78 292t-78 292t-209 108t-211 -109t-80 -291zM844 0v152h-4q-43 -82 -128 -129t-204 -47t-218 67q-98 67 -152 191t-54 288t53 288t151 190t216 67q118 0 204 -46t128 -124h4v561h180v-1458h-176zM1090 1098l59 360h164
l-113 -360h-110z" />
    <glyph glyph-name="Dcroat" unicode="&#x110;" horiz-adv-x="1480" 
d="M1196 729.5q0 274.5 -143.5 417.5t-415.5 143h-254v-479h414v-145h-414v-498h254q272 0 415.5 143.5t143.5 418zM1395 729q0 -350 -197 -539.5t-559 -189.5h-444v666h-136v145h136v647h444q362 0 559 -189.5t197 -539.5z" />
    <glyph glyph-name="dcroat" unicode="&#x111;" horiz-adv-x="1167" 
d="M850 522.5q0 184.5 -78 292t-209 107.5t-211 -108.5t-80 -291t80 -292t211 -109.5t209 108.5t78 293zM1020 1188v-1188h-176v152h-4q-43 -82 -128 -129.5t-204 -47.5t-218.5 68t-152.5 191.5t-53 287.5t53 288t151 190.5t216 66.5t203.5 -46t128.5 -124h4v291h-269v112
h269v158h180v-158h133v-112h-133z" />
    <glyph glyph-name="Emacron" unicode="&#x112;" horiz-adv-x="1265" 
d="M383 1290v-461h709v-165h-709v-496h774v-168h-962v1458h940v-168h-752zM373 1614v133h581v-133h-581z" />
    <glyph glyph-name="emacron" unicode="&#x113;" horiz-adv-x="1126" 
d="M565 930q-125 0 -204.5 -81t-94.5 -228h598q-14 150 -94 229.5t-205 79.5zM592.5 -29q-171.5 0 -281.5 70t-168.5 197t-58.5 289t58.5 283.5t168 190t270 68.5t280.5 -96t161 -266q20 -84 20 -224h-778q6 -184 91 -278t207 -94t194.5 55t91.5 145h184
q-29 -145 -148.5 -242.5t-291 -97.5zM270 1262v131h582v-131h-582z" />
    <glyph glyph-name="Ebreve" unicode="&#x114;" horiz-adv-x="1265" 
d="M383 1290v-461h709v-165h-709v-496h774v-168h-962v1458h940v-168h-752zM665 1548q-142 0 -225.5 76t-93.5 215h135q8 -78 57.5 -121t127 -43t126 43t58.5 121h133q-10 -139 -93 -215t-225 -76z" />
    <glyph glyph-name="ebreve" unicode="&#x115;" horiz-adv-x="1126" 
d="M565 930q-125 0 -204.5 -81t-94.5 -228h598q-14 150 -94 229.5t-205 79.5zM592.5 -29q-171.5 0 -281.5 70t-168.5 197t-58.5 289t58.5 283.5t168 190t270 68.5t280.5 -96t161 -266q20 -84 20 -224h-778q6 -184 91 -278t207 -94t194.5 55t91.5 145h184
q-29 -145 -148.5 -242.5t-291 -97.5zM563.5 1165q-141.5 0 -225.5 77t-94 216h135q8 -80 57 -123t127 -43t126 43t59 123h133q-11 -139 -93.5 -216t-224 -77z" />
    <glyph glyph-name="Edotaccent" unicode="&#x116;" horiz-adv-x="1265" 
d="M383 1290v-461h709v-165h-709v-496h774v-168h-962v1458h940v-168h-752zM573 1575v203h181v-203h-181z" />
    <glyph glyph-name="edotaccent" unicode="&#x117;" horiz-adv-x="1126" 
d="M565 930q-125 0 -204.5 -81t-94.5 -228h598q-14 150 -94 229.5t-205 79.5zM592.5 -29q-171.5 0 -281.5 70t-168.5 197t-58.5 289t58.5 283.5t168 190t270 68.5t280.5 -96t161 -266q20 -84 20 -224h-778q6 -184 91 -278t207 -94t194.5 55t91.5 145h184
q-29 -145 -148.5 -242.5t-291 -97.5zM471 1255v203h180v-203h-180z" />
    <glyph glyph-name="Eogonek" unicode="&#x118;" horiz-adv-x="1265" 
d="M1026 -397q-86 0 -136 43t-50 115t37.5 126t121.5 113h-804v1458h940v-168h-752v-461h709v-165h-709v-496h774v-168q-86 -63 -121 -111.5t-35 -97.5q0 -74 82 -74q45 1 80 15v-109q-51 -20 -137 -20z" />
    <glyph glyph-name="eogonek" unicode="&#x119;" horiz-adv-x="1126" 
d="M565 930q-125 0 -204.5 -81t-94.5 -228h598q-14 150 -94 229.5t-205 79.5zM711 -201q0 -82 84 -82q45 0 79 15v-109q-50 -20 -136 -20t-136.5 43t-50.5 121q0 111 108 208v5q-53 -8 -86 -9q-152 0 -262 70t-168.5 197t-58.5 289t58.5 283.5t168 190t269.5 68.5t280.5 -96
t161.5 -266q20 -84 20 -224h-778q6 -184 91 -278t207 -94t194.5 55t91.5 145h184q-26 -142 -158 -262q-92 -82 -127.5 -137t-35.5 -113z" />
    <glyph glyph-name="Ecaron" unicode="&#x11a;" horiz-adv-x="1265" 
d="M383 1290v-461h709v-165h-709v-496h774v-168h-962v1458h940v-168h-752zM565 1556l-233 283h182l152 -180l149 180h182l-233 -283h-199z" />
    <glyph glyph-name="ecaron" unicode="&#x11b;" horiz-adv-x="1126" 
d="M565 930q-125 0 -204.5 -81t-94.5 -228h598q-14 150 -94 229.5t-205 79.5zM592.5 -29q-171.5 0 -281.5 70t-168.5 197t-58.5 289t58.5 283.5t168 190t270 68.5t280.5 -96t161 -266q20 -84 20 -224h-778q6 -184 91 -278t207 -94t194.5 55t91.5 145h184
q-29 -145 -148.5 -242.5t-291 -97.5zM463 1165l-234 293h183l151 -190l150 190h182l-233 -293h-199z" />
    <glyph glyph-name="Gcircumflex" unicode="&#x11c;" horiz-adv-x="1497" 
d="M748 1315q-215 0 -339 -158t-124 -433t119.5 -432t318 -157t310.5 116t114 361h-402v162h582v-774h-168v201h-4q-59 -104 -182 -166t-292 -62t-307 90.5t-212 260.5t-74 403.5t80 404.5t228.5 263t351.5 92q249 0 404 -126t175 -341h-201q-25 141 -123 218t-255 77z
M836 1839l233 -283h-182l-152 183l-149 -183h-183l234 283h199z" />
    <glyph glyph-name="gcircumflex" unicode="&#x11d;" horiz-adv-x="1173" 
d="M272 540q0 -171 77 -274.5t208 -103.5t209 101.5t78 276.5t-78 276.5t-209 101.5t-208 -103.5t-77 -274.5zM840 889v151h174v-977q0 -227 -117 -342.5t-327 -115.5t-323.5 88t-117.5 241h180q4 -90 70.5 -140t194.5 -50q264 0 264 328v112h-4q-113 -174 -310 -174
q-133 0 -232 65.5t-153.5 185.5t-54.5 279t54.5 278.5t153.5 184t232 64.5q206 0 312 -178h4zM563 1356l-151 -191h-183l234 293h199l233 -293h-182z" />
    <glyph glyph-name="Gbreve" unicode="&#x11e;" horiz-adv-x="1497" 
d="M748 1315q-215 0 -339 -158t-124 -433t119.5 -432t318 -157t310.5 116t114 361h-402v162h582v-774h-168v201h-4q-59 -104 -182 -166t-292 -62t-307 90.5t-212 260.5t-74 403.5t80 404.5t228.5 263t351.5 92q249 0 404 -126t175 -341h-201q-25 141 -123 218t-255 77z
M736.5 1548q-142.5 0 -225.5 76t-93 215h135q8 -78 57 -121t127 -43t126 43t59 121h133q-11 -139 -93.5 -215t-225 -76z" />
    <glyph glyph-name="gbreve" unicode="&#x11f;" horiz-adv-x="1173" 
d="M272 540q0 -171 77 -274.5t208 -103.5t209 101.5t78 276.5t-78 276.5t-209 101.5t-208 -103.5t-77 -274.5zM840 889v151h174v-977q0 -227 -117 -342.5t-327 -115.5t-323.5 88t-117.5 241h180q4 -90 70.5 -140t194.5 -50q264 0 264 328v112h-4q-113 -174 -310 -174
q-133 0 -232 65.5t-153.5 185.5t-54.5 279t54.5 278.5t153.5 184t232 64.5q206 0 312 -178h4zM563.5 1165q-141.5 0 -225.5 77t-94 216h135q8 -80 57 -123t127 -43t126 43t59 123h133q-11 -139 -93.5 -216t-224 -77z" />
    <glyph glyph-name="Gdotaccent" unicode="&#x120;" horiz-adv-x="1497" 
d="M748 1315q-215 0 -339 -158t-124 -433t119.5 -432t318 -157t310.5 116t114 361h-402v162h582v-774h-168v201h-4q-59 -104 -182 -166t-292 -62t-307 90.5t-212 260.5t-74 403.5t80 404.5t228.5 263t351.5 92q249 0 404 -126t175 -341h-201q-25 141 -123 218t-255 77z
M645 1575v203h180v-203h-180z" />
    <glyph glyph-name="gdotaccent" unicode="&#x121;" horiz-adv-x="1173" 
d="M272 540q0 -171 77 -274.5t208 -103.5t209 101.5t78 276.5t-78 276.5t-209 101.5t-208 -103.5t-77 -274.5zM840 889v151h174v-977q0 -227 -117 -342.5t-327 -115.5t-323.5 88t-117.5 241h180q4 -90 70.5 -140t194.5 -50q264 0 264 328v112h-4q-113 -174 -310 -174
q-133 0 -232 65.5t-153.5 185.5t-54.5 279t54.5 278.5t153.5 184t232 64.5q206 0 312 -178h4zM471 1255v203h180v-203h-180z" />
    <glyph glyph-name="Gcommaaccent" unicode="&#x122;" horiz-adv-x="1497" 
d="M748 1315q-215 0 -339 -158t-124 -433t119.5 -432t318 -157t310.5 116t114 361h-402v162h582v-774h-168v201h-4q-59 -104 -182 -166t-292 -62t-307 90.5t-212 260.5t-74 403.5t80 404.5t228.5 263t351.5 92q249 0 404 -126t175 -341h-201q-25 141 -123 218t-255 77z
M643 -315v182h182v-182l-112 -211h-78l78 211h-70z" />
    <glyph glyph-name="gcommaaccent" unicode="&#x123;" horiz-adv-x="1173" 
d="M272 540q0 -171 77 -274.5t208 -103.5t209 101.5t78 276.5t-78 276.5t-209 101.5t-208 -103.5t-77 -274.5zM840 889v151h174v-977q0 -227 -117 -342.5t-327 -115.5t-323.5 88t-117.5 241h180q4 -90 70.5 -140t194.5 -50q264 0 264 328v112h-4q-113 -174 -310 -174
q-133 0 -232 65.5t-153.5 185.5t-54.5 279t54.5 278.5t153.5 184t232 64.5q206 0 312 -178h4zM649 1376v-182h-182v182l113 211h77l-77 -211h69z" />
    <glyph glyph-name="Hcircumflex" unicode="&#x124;" horiz-adv-x="1509" 
d="M1126 0v674h-743v-674h-188v1458h188v-618h743v618h191v-1458h-191zM854 1839l233 -283h-182l-151 183l-150 -183h-182l233 283h199z" />
    <glyph glyph-name="hcircumflex" unicode="&#x125;" 
d="M653 1063q180 0 278.5 -108.5t98.5 -319.5v-635h-180v621q0 158 -61.5 226t-178 68t-193.5 -83.5t-77 -235.5v-596h-180v1458h180v-549h4q51 76 133 115t176 39zM688 1839l234 -283h-183l-151 183l-150 -183h-182l233 283h199z" />
    <glyph glyph-name="Hbar" unicode="&#x126;" horiz-adv-x="1509" 
d="M383 1176v-336h743v336h-743zM1317 1176v-1176h-191v674h-743v-674h-188v1176h-121v118h121v164h188v-164h743v164h191v-164h119v-118h-119z" />
    <glyph glyph-name="hbar" unicode="&#x127;" 
d="M1030 635v-635h-180v621q0 158 -61.5 226t-178 68t-193.5 -83.5t-77 -235.5v-596h-180v1188h-146v106h146v164h180v-164h256v-106h-256v-279h4q51 76 133 115t176 39q181 0 279 -108.5t98 -319.5z" />
    <glyph glyph-name="Itilde" unicode="&#x128;" horiz-adv-x="577" 
d="M195 0v1458h188v-1458h-188zM150 1696q-84 0 -95 -105h-118q6 113 61 174.5t135.5 61.5t177.5 -60q45 -25 68.5 -35t50.5 -10q82 0 94 105h119q-6 -113 -61.5 -174.5t-136 -61.5t-177.5 60q-81 45 -118 45z" />
    <glyph glyph-name="itilde" unicode="&#x129;" horiz-adv-x="499" 
d="M160 0v1040h180v-1040h-180zM369 1337q76 0 84 109h106q-4 -113 -54 -174.5t-136 -61.5q-41 0 -70 15.5t-69 43.5t-58 38t-41 10q-76 0 -86 -107h-104q4 113 54 174.5t136 61.5q41 0 69.5 -15.5t66.5 -43.5t58.5 -39t43.5 -11z" />
    <glyph glyph-name="Imacron" unicode="&#x12a;" horiz-adv-x="577" 
d="M195 0v1458h188v-1458h-188zM-2 1614v133h582v-133h-582z" />
    <glyph glyph-name="imacron" unicode="&#x12b;" horiz-adv-x="499" 
d="M160 0v1040h180v-1040h-180zM-12 1264v133h526v-133h-526z" />
    <glyph glyph-name="Ibreve" unicode="&#x12c;" horiz-adv-x="577" 
d="M195 0v1458h188v-1458h-188zM288 1548q-142 0 -225 76t-94 215h135q8 -78 57.5 -121t127.5 -43t126 43t58 121h133q-10 -139 -93 -215t-225 -76z" />
    <glyph glyph-name="ibreve" unicode="&#x12d;" horiz-adv-x="499" 
d="M160 0v1040h180v-1040h-180zM250 1290q142 0 156 168h129q-7 -139 -81.5 -216t-203.5 -77t-204 77t-81 216h129q6 -82 46 -125t110 -43z" />
    <glyph glyph-name="Iogonek" unicode="&#x12e;" horiz-adv-x="577" 
d="M252 -397q-86 0 -136 43t-50 115t37.5 126t121.5 113h-30v1458h188v-1458q-86 -63 -121 -111.5t-35 -97.5q0 -74 82 -74q45 1 80 15v-109q-51 -20 -137 -20z" />
    <glyph glyph-name="iogonek" unicode="&#x12f;" horiz-adv-x="499" 
d="M209 -397q-86 0 -136 43t-50 115t37.5 126t121.5 113h-22v1040h180v-1040q-86 -63 -121 -111.5t-35 -97.5q0 -74 82 -74q45 1 80 15v-109q-51 -20 -137 -20zM160 1255v203h180v-203h-180z" />
    <glyph glyph-name="Idotaccent" unicode="&#x130;" horiz-adv-x="577" 
d="M195 0v1458h188v-1458h-188zM199 1575v203h180v-203h-180z" />
    <glyph glyph-name="dotlessi" unicode="&#x131;" horiz-adv-x="499" 
d="M160 0v1040h180v-1040h-180z" />
    <glyph glyph-name="IJ" unicode="&#x132;" horiz-adv-x="1304" 
d="M195 0v1458h188v-1458h-188zM711 -10q-61 0 -103 12v168q55 -10 88 -10q121 0 179.5 65.5t58.5 216.5v1016h188v-1040q1 -428 -411 -428z" />
    <glyph glyph-name="ij" unicode="&#x133;" horiz-adv-x="1009" 
d="M551 -387q-57 0 -96 10v144q31 -6 59 -7q80 0 118 44t38 153v1083h180v-1099q0 -170 -79 -249t-220 -79zM160 0v1040h180v-1040h-180zM670 1255v203h180v-203h-180zM160 1255v203h180v-203h-180z" />
    <glyph glyph-name="Jcircumflex" unicode="&#x134;" horiz-adv-x="729" 
d="M133 -10q-61 0 -102 12v168q55 -10 88 -10q121 0 179 65.5t58 216.5v1016h189v-1040q0 -428 -412 -428zM549 1839l233 -283h-182l-151 183l-150 -183h-182l233 283h199z" />
    <glyph glyph-name="jcircumflex" unicode="&#x135;" horiz-adv-x="509" 
d="M51 -387q-57 0 -96 10v144q31 -6 59 -7q80 0 118 44t38 153v1083h180v-1099q0 -170 -78.5 -249t-220.5 -79zM389 1167l-129 191l-127 -191h-176l205 291h196l205 -291h-174z" />
    <glyph glyph-name="Kcommaaccent" unicode="&#x136;" horiz-adv-x="1280" 
d="M383 717v-717h-188v1458h188v-657h4l588 657h237l-637 -694l697 -764h-252l-633 717h-4zM580 -315v182h182v-182l-113 -211h-78l78 211h-69z" />
    <glyph glyph-name="kcommaaccent" unicode="&#x137;" horiz-adv-x="1024" 
d="M340 520v-520h-180v1458h180v-850h4l420 432h223l-467 -471l522 -569h-237l-461 520h-4zM469 -315v182h182v-182l-112 -211h-78l78 211h-70z" />
    <glyph glyph-name="kgreenlandic" unicode="&#x138;" horiz-adv-x="1058" 
d="M340 520v-520h-180v1040h180v-432h4l420 432h223l-467 -471l522 -569h-237l-461 520h-4z" />
    <glyph glyph-name="Lacute" unicode="&#x139;" horiz-adv-x="1148" 
d="M1128 168v-168h-933v1458h188v-1290h745zM217 1556l176 283h232l-252 -283h-156z" />
    <glyph glyph-name="lacute" unicode="&#x13a;" horiz-adv-x="499" 
d="M160 0v1458h180v-1458h-180zM154 1583l176 293h231l-252 -293h-155z" />
    <glyph glyph-name="Lcommaaccent" unicode="&#x13b;" horiz-adv-x="1148" 
d="M1128 168v-168h-933v1458h188v-1290h745zM569 -315v182h183v-182l-113 -211h-78l78 211h-70z" />
    <glyph glyph-name="lcommaaccent" unicode="&#x13c;" horiz-adv-x="499" 
d="M160 0v1458h180v-1458h-180zM158 -315v182h182v-182l-113 -211h-77l77 211h-69z" />
    <glyph glyph-name="Lcaron" unicode="&#x13d;" horiz-adv-x="1148" 
d="M1128 168v-168h-933v1458h188v-1290h745zM504 1012l59 446h164l-113 -446h-110z" />
    <glyph glyph-name="lcaron" unicode="&#x13e;" horiz-adv-x="499" 
d="M160 0v1458h180v-1458h-180zM414 1098l59 360h164l-113 -360h-110z" />
    <glyph glyph-name="Ldot" unicode="&#x13f;" horiz-adv-x="1312" 
d="M1128 168v-168h-933v1458h188v-1290h745zM829 725v240h222v-240h-222z" />
    <glyph glyph-name="ldot" unicode="&#x140;" horiz-adv-x="817" 
d="M160 0v1458h180v-1458h-180zM547 608v240h221v-240h-221z" />
    <glyph glyph-name="Lslash" unicode="&#x141;" horiz-adv-x="1148" 
d="M1128 0h-933v625l-162 -99v170l162 97v665h188v-569l303 180v-168l-303 -180v-553h745v-168z" />
    <glyph glyph-name="lslash" unicode="&#x142;" horiz-adv-x="583" 
d="M383 0h-180v686l-183 -106v159l183 109v610h180v-524l180 108v-161l-180 -107v-774z" />
    <glyph glyph-name="Nacute" unicode="&#x143;" horiz-adv-x="1546" 
d="M379 584v-584h-184v1458h276l348 -629q207 -377 352 -653h5q-6 350 -7 698v584h185v-1458h-279l-346 629q-197 352 -352 653h-4q6 -350 6 -698zM637 1556l176 283h231l-251 -283h-156z" />
    <glyph glyph-name="nacute" unicode="&#x144;" 
d="M1030 635v-635h-180v621q0 158 -61.5 226t-178 68t-193.5 -83.5t-77 -235.5v-596h-180v1040h174v-137h4q49 74 131 117t184 43q181 0 279 -108.5t98 -319.5zM459 1165l176 293h231l-252 -293h-155z" />
    <glyph glyph-name="Ncommaaccent" unicode="&#x145;" horiz-adv-x="1546" 
d="M379 584v-584h-184v1458h276l348 -629q207 -377 352 -653h5q-6 350 -7 698v584h185v-1458h-279l-346 629q-197 352 -352 653h-4q6 -350 6 -698zM682 -315v182h182v-182l-112 -211h-78l78 211h-70z" />
    <glyph glyph-name="ncommaaccent" unicode="&#x146;" 
d="M1030 635v-635h-180v621q0 158 -61.5 226t-178 68t-193.5 -83.5t-77 -235.5v-596h-180v1040h174v-137h4q49 74 131 117t184 43q181 0 279 -108.5t98 -319.5zM504 -315v182h182v-182l-113 -211h-77l77 211h-69z" />
    <glyph glyph-name="Ncaron" unicode="&#x147;" horiz-adv-x="1546" 
d="M379 584v-584h-184v1458h276l348 -629q207 -377 352 -653h5q-6 350 -7 698v584h185v-1458h-279l-346 629q-197 352 -352 653h-4q6 -350 6 -698zM674 1556l-234 283h183l151 -180l150 180h182l-234 -283h-198z" />
    <glyph glyph-name="ncaron" unicode="&#x148;" 
d="M1030 635v-635h-180v621q0 158 -61.5 226t-178 68t-193.5 -83.5t-77 -235.5v-596h-180v1040h174v-137h4q49 74 131 117t184 43q181 0 279 -108.5t98 -319.5zM496 1165l-234 293h182l152 -190l149 190h183l-234 -293h-198z" />
    <glyph glyph-name="napostrophe" unicode="&#x149;" horiz-adv-x="1421" 
d="M141 1237v221h203v-221l-98 -274h-109l72 274h-68zM1274 635v-635h-180v621q0 158 -61.5 226t-178.5 68t-193.5 -83.5t-76.5 -235.5v-596h-181v1040h175v-137h4q49 74 131 117t184 43q180 0 278.5 -108.5t98.5 -319.5z" />
    <glyph glyph-name="Eng" unicode="&#x14a;" horiz-adv-x="1523" 
d="M1331 -74q0 -164 -81 -239.5t-222 -75.5q-57 0 -96 10v143q31 -6 61 -6q78 0 116 40t38 139v63l-416 672q-217 352 -356 588h-4q8 -287 8 -646v-614h-184v1458h258l340 -555q168 -270 356 -588h4q-8 287 -8 648v495h186v-1532z" />
    <glyph glyph-name="eng" unicode="&#x14b;" 
d="M1030 612v-682q0 -317 -301 -317q-45 0 -96 10v144q31 -6 59 -7q80 0 119 42t39 143v653q0 100 -14.5 156.5t-49.5 95.5q-63 66 -177 66t-191.5 -84t-77.5 -234v-598h-180v1040h174v-139h4q55 82 139 123t180 41q167 0 269 -102q57 -57 80.5 -138.5t23.5 -212.5z" />
    <glyph glyph-name="Omacron" unicode="&#x14c;" horiz-adv-x="1499" 
d="M285 729q0 -178 56 -310t161.5 -204t247 -72t247 72t161.5 204t56 310t-56 310t-161.5 204t-247 72t-247 -72t-161.5 -204t-56 -310zM1411 729.5q0 -231.5 -81 -402.5t-230.5 -263.5t-350 -92.5t-350 92.5t-230.5 263.5t-81 402.5t81 402.5t230.5 263t350 92t350 -92
t230.5 -263t81 -402.5zM459 1614v133h581v-133h-581z" />
    <glyph glyph-name="omacron" unicode="&#x14d;" horiz-adv-x="1157" 
d="M272 520.5q0 -186.5 82 -294t224.5 -107.5t224.5 107.5t82 294t-82 294t-224.5 107.5t-224.5 -107.5t-82 -294zM1073 520q0 -254 -133 -401.5t-362.5 -147.5t-361.5 147.5t-132 401.5t132 401.5t361.5 147.5t362.5 -147.5t133 -401.5zM287 1262v131h581v-131h-581z" />
    <glyph glyph-name="Obreve" unicode="&#x14e;" horiz-adv-x="1499" 
d="M285 729q0 -178 56 -310t161.5 -204t247 -72t247 72t161.5 204t56 310t-56 310t-161.5 204t-247 72t-247 -72t-161.5 -204t-56 -310zM1411 729.5q0 -231.5 -81 -402.5t-230.5 -263.5t-350 -92.5t-350 92.5t-230.5 263.5t-81 402.5t81 402.5t230.5 263t350 92t350 -92
t230.5 -263t81 -402.5zM749 1548q-142 0 -225.5 76t-93.5 215h135q8 -78 57.5 -121t127 -43t126 43t58.5 121h133q-10 -139 -93 -215t-225 -76z" />
    <glyph glyph-name="obreve" unicode="&#x14f;" horiz-adv-x="1157" 
d="M272 520.5q0 -186.5 82 -294t224.5 -107.5t224.5 107.5t82 294t-82 294t-224.5 107.5t-224.5 -107.5t-82 -294zM1073 520q0 -254 -133 -401.5t-362.5 -147.5t-361.5 147.5t-132 401.5t132 401.5t361.5 147.5t362.5 -147.5t133 -401.5zM579.5 1165q-141.5 0 -225.5 77
t-94 216h135q8 -80 57.5 -123t127 -43t126 43t58.5 123h133q-10 -139 -93 -216t-224.5 -77z" />
    <glyph glyph-name="Ohungarumlaut" unicode="&#x150;" horiz-adv-x="1499" 
d="M285 729q0 -178 56 -310t161.5 -204t247 -72t247 72t161.5 204t56 310t-56 310t-161.5 204t-247 72t-247 -72t-161.5 -204t-56 -310zM1411 729.5q0 -231.5 -81 -402.5t-230.5 -263.5t-350 -92.5t-350 92.5t-230.5 263.5t-81 402.5t81 402.5t230.5 263t350 92t350 -92
t230.5 -263t81 -402.5zM778 1548l217 291h213l-278 -291h-152zM451 1548l217 291h213l-279 -291h-151z" />
    <glyph glyph-name="ohungarumlaut" unicode="&#x151;" horiz-adv-x="1157" 
d="M272 520.5q0 -186.5 82 -294t224.5 -107.5t224.5 107.5t82 294t-82 294t-224.5 107.5t-224.5 -107.5t-82 -294zM1073 520q0 -254 -133 -401.5t-362.5 -147.5t-361.5 147.5t-132 401.5t132 401.5t361.5 147.5t362.5 -147.5t133 -401.5zM623 1165l217 293h213l-279 -293
h-151zM295 1165l217 293h213l-279 -293h-151z" />
    <glyph glyph-name="OE" unicode="&#x152;" horiz-adv-x="2045" 
d="M285 729q0 -272 142 -416.5t411 -144.5h137v1122h-137q-269 0 -411 -144.5t-142 -416.5zM1163 1290v-461h711v-165h-711v-496h774v-168h-1099q-360 0 -555 189.5t-195 539.5t194.5 539.5t555.5 189.5h1077v-168h-752z" />
    <glyph glyph-name="oe" unicode="&#x153;" horiz-adv-x="1837" 
d="M844 520.5q0 186.5 -77 294t-209 107.5t-209 -107.5t-77 -294t77 -294t209 -107.5t209 107.5t77 294zM1293.5 930q-117.5 0 -193.5 -81t-90 -228h565q-14 150 -89 229.5t-192.5 79.5zM557 1069q247 0 371 -209q57 98 150 153.5t216 55.5q166 0 283 -97.5t156 -264.5
q20 -84 20 -224h-745q6 -184 86 -278t195.5 -94t183 55t86.5 145h184q-27 -145 -142.5 -242.5t-300.5 -97.5q-254 0 -372 211q-57 -102 -152.5 -156.5t-218.5 -54.5q-219 0 -346 147.5t-127 401.5t127 401.5t346 147.5z" />
    <glyph glyph-name="Racute" unicode="&#x154;" horiz-adv-x="1310" 
d="M383 774h272q164 0 243 75t79 200q0 248 -334 247h-260v-522zM1169 1063q0 -139 -75.5 -237.5t-202.5 -127.5v-4q80 -25 125 -82t94 -192l150 -420h-205l-133 385q-45 131 -105.5 180t-177.5 49h-256v-614h-188v1458h462q258 0 385 -102.5t127 -292.5zM510 1556l176 283
h232l-252 -283h-156z" />
    <glyph glyph-name="racute" unicode="&#x155;" horiz-adv-x="741" 
d="M647 887q-147 0 -227 -92.5t-80 -264.5v-530h-180v1040h172v-159h4q102 170 307 170q45 -1 76 -9v-161q-68 6 -72 6zM287 1165l176 293h231l-252 -293h-155z" />
    <glyph glyph-name="Rcommaaccent" unicode="&#x156;" horiz-adv-x="1310" 
d="M383 774h272q164 0 243 75t79 200q0 248 -334 247h-260v-522zM1169 1063q0 -139 -75.5 -237.5t-202.5 -127.5v-4q80 -25 125 -82t94 -192l150 -420h-205l-133 385q-45 131 -105.5 180t-177.5 49h-256v-614h-188v1458h462q258 0 385 -102.5t127 -292.5zM604 -315v182h182
v-182l-112 -211h-78l78 211h-70z" />
    <glyph glyph-name="rcommaaccent" unicode="&#x157;" horiz-adv-x="741" 
d="M647 887q-147 0 -227 -92.5t-80 -264.5v-530h-180v1040h172v-159h4q102 170 307 170q45 -1 76 -9v-161q-68 6 -72 6zM158 -315v182h182v-182l-113 -211h-77l77 211h-69z" />
    <glyph glyph-name="Rcaron" unicode="&#x158;" horiz-adv-x="1310" 
d="M383 774h272q164 0 243 75t79 200q0 248 -334 247h-260v-522zM1169 1063q0 -139 -75.5 -237.5t-202.5 -127.5v-4q80 -25 125 -82t94 -192l150 -420h-205l-133 385q-45 131 -105.5 180t-177.5 49h-256v-614h-188v1458h462q258 0 385 -102.5t127 -292.5zM547 1556l-234 283
h183l151 -180l150 180h182l-234 -283h-198z" />
    <glyph glyph-name="rcaron" unicode="&#x159;" horiz-adv-x="741" 
d="M647 887q-147 0 -227 -92.5t-80 -264.5v-530h-180v1040h172v-159h4q102 170 307 170q45 -1 76 -9v-161q-68 6 -72 6zM324 1165l-234 293h182l152 -190l149 190h183l-234 -293h-198z" />
    <glyph glyph-name="Sacute" unicode="&#x15a;" horiz-adv-x="1247" 
d="M922 1008q0 317 -334 317q-135 0 -212 -61.5t-77 -151.5t37 -136t109.5 -76t222.5 -66t252 -80q226 -96 227 -353q0 -129 -64.5 -226t-182.5 -150.5t-275 -53.5q-258 0 -401.5 131t-143.5 381h194q0 -176 92.5 -263t254.5 -87t246.5 67.5t84.5 190.5q0 143 -148 199
q-73 28 -224.5 66t-251.5 82q-222 97 -222 347q0 117 59.5 208t169 142.5t255.5 51.5q260 0 391 -121t131 -358h-190zM455 1556l176 283h231l-252 -283h-155z" />
    <glyph glyph-name="sacute" unicode="&#x15b;" horiz-adv-x="1011" 
d="M895 715h-176q0 104 -60.5 159.5t-163 55.5t-156.5 -40t-54 -100.5t25.5 -89t72.5 -45t167 -45.5t194.5 -57.5t129 -93t54.5 -191t-111.5 -212t-309.5 -85.5t-311.5 96.5t-115.5 278.5h182q0 -111 66.5 -171t179 -60t174 43t61.5 107t-28.5 97t-84 52.5t-177 49.5
t-187 55.5t-114 84t-48.5 178t107.5 203.5t289 84t288 -92t106.5 -262zM352 1165l176 293h232l-252 -293h-156z" />
    <glyph glyph-name="Scircumflex" unicode="&#x15c;" horiz-adv-x="1247" 
d="M922 1008q0 317 -334 317q-135 0 -212 -61.5t-77 -151.5t37 -136t109.5 -76t222.5 -66t252 -80q226 -96 227 -353q0 -129 -64.5 -226t-182.5 -150.5t-275 -53.5q-258 0 -401.5 131t-143.5 381h194q0 -176 92.5 -263t254.5 -87t246.5 67.5t84.5 190.5q0 143 -148 199
q-73 28 -224.5 66t-251.5 82q-222 97 -222 347q0 117 59.5 208t169 142.5t255.5 51.5q260 0 391 -121t131 -358h-190zM690 1839l234 -283h-183l-151 183l-150 -183h-182l234 283h198z" />
    <glyph glyph-name="scircumflex" unicode="&#x15d;" horiz-adv-x="1011" 
d="M895 715h-176q0 104 -60.5 159.5t-163 55.5t-156.5 -40t-54 -100.5t25.5 -89t72.5 -45t167 -45.5t194.5 -57.5t129 -93t54.5 -191t-111.5 -212t-309.5 -85.5t-311.5 96.5t-115.5 278.5h182q0 -111 66.5 -171t179 -60t174 43t61.5 107t-28.5 97t-84 52.5t-177 49.5
t-187 55.5t-114 84t-48.5 178t107.5 203.5t289 84t288 -92t106.5 -262zM489 1356l-151 -191h-182l233 293h199l233 -293h-182z" />
    <glyph glyph-name="Scedilla" unicode="&#x15e;" horiz-adv-x="1247" 
d="M922 1008q0 317 -334 317q-135 0 -212 -61.5t-77 -151.5t37 -136t109.5 -76t222.5 -66t252 -80q226 -96 227 -353q0 -184 -124 -297.5t-337 -130.5l-65 -100q37 6 53 6q68 0 116 -42t48 -113.5t-58.5 -123t-168.5 -51.5t-214 56l37 76q74 -43 160 -43q115 0 115 83
q0 39 -30 62.5t-73 23.5t-69 -12l-37 41l90 135q-242 10 -376 141.5t-134 370.5h194q0 -176 92.5 -263t254.5 -87t246.5 67.5t84.5 190.5q0 143 -148 199q-73 28 -224.5 66t-251.5 82q-222 97 -222 347q0 117 59.5 208t169 142.5t255.5 51.5q260 0 391 -121t131 -358h-190z
" />
    <glyph glyph-name="scedilla" unicode="&#x15f;" horiz-adv-x="1011" 
d="M489 -362q115 0 115 83q0 39 -29.5 62.5t-72.5 23.5t-70 -12l-37 41l90 135q-193 8 -298 104.5t-107 270.5h182q0 -111 66.5 -171t179 -60t174 43t61.5 107t-28.5 97t-84 52.5t-177 49.5t-187 55.5t-114 84t-48.5 178t107.5 203.5t289 84t288 -92t106.5 -262h-176
q0 104 -60.5 159.5t-163 55.5t-156.5 -40t-54 -100.5t25.5 -89t72.5 -45t167 -45.5t194.5 -57.5t129 -93t54.5 -184t-93.5 -202.5t-252.5 -100l-66 -100q37 6 53 6q68 0 116 -42t48 -113.5t-58.5 -123t-168 -51.5t-213.5 56l37 76q74 -43 159 -43z" />
    <glyph glyph-name="Scaron" unicode="&#x160;" horiz-adv-x="1247" 
d="M922 1008q0 317 -334 317q-135 0 -212 -61.5t-77 -151.5t37 -136t109.5 -76t222.5 -66t252 -80q226 -96 227 -353q0 -129 -64.5 -226t-182.5 -150.5t-275 -53.5q-258 0 -401.5 131t-143.5 381h194q0 -176 92.5 -263t254.5 -87t246.5 67.5t84.5 190.5q0 143 -148 199
q-73 28 -224.5 66t-251.5 82q-222 97 -222 347q0 117 59.5 208t169 142.5t255.5 51.5q260 0 391 -121t131 -358h-190zM492 1556l-234 283h182l152 -180l149 180h183l-234 -283h-198z" />
    <glyph glyph-name="scaron" unicode="&#x161;" horiz-adv-x="1011" 
d="M895 715h-176q0 104 -60.5 159.5t-163 55.5t-156.5 -40t-54 -100.5t25.5 -89t72.5 -45t167 -45.5t194.5 -57.5t129 -93t54.5 -191t-111.5 -212t-309.5 -85.5t-311.5 96.5t-115.5 278.5h182q0 -111 66.5 -171t179 -60t174 43t61.5 107t-28.5 97t-84 52.5t-177 49.5
t-187 55.5t-114 84t-48.5 178t107.5 203.5t289 84t288 -92t106.5 -262zM389 1165l-233 293h182l151 -190l150 190h182l-233 -293h-199z" />
    <glyph glyph-name="uni0162" unicode="&#x162;" horiz-adv-x="1226" 
d="M709 1290v-1290h-191v1290h-498v168h1186v-168h-497zM522 -315v182h183v-182l-113 -211h-78l78 211h-70z" />
    <glyph glyph-name="uni0163" unicode="&#x163;" horiz-adv-x="655" 
d="M457 -133v-182l-113 -211h-78l78 211h-70v182h183zM383 309q0 -169 126 -167q60 0 91 10v-148q-45 -12 -115 -12q-150 0 -216 69.5t-66 229.5v606h-180v143h180v252h180v-252h207v-143h-207v-588z" />
    <glyph glyph-name="Tcaron" unicode="&#x164;" horiz-adv-x="1226" 
d="M709 1290v-1290h-191v1290h-498v168h1186v-168h-497zM514 1556l-233 283h182l151 -180l150 180h182l-233 -283h-199z" />
    <glyph glyph-name="tcaron" unicode="&#x165;" horiz-adv-x="655" 
d="M383 309q0 -169 126 -167q60 0 91 10v-148q-45 -12 -115 -12q-150 0 -216 69.5t-66 229.5v606h-180v143h180v252h180v-252h207v-143h-207v-588zM453 1098l59 360h164l-113 -360h-110z" />
    <glyph glyph-name="Tbar" unicode="&#x166;" horiz-adv-x="1226" 
d="M709 838h288v-148h-288v-690h-191v690h-289v148h289v452h-498v168h1186v-168h-497v-452z" />
    <glyph glyph-name="tbar" unicode="&#x167;" horiz-adv-x="651" 
d="M383 309q0 -169 126 -167q60 0 91 10v-148q-45 -12 -115 -12q-150 0 -216 69.5t-66 229.5v207h-174v120h174v279h-180v143h180v252h180v-252h207v-143h-207v-279h201v-120h-201v-189z" />
    <glyph glyph-name="Utilde" unicode="&#x168;" horiz-adv-x="1443" 
d="M722 -29q-263 0 -401.5 146.5t-138.5 429.5v911h189v-907q0 -201 92 -304.5t260 -103.5t259 103.5t91 304.5v907h191v-911q0 -281 -139.5 -428.5t-402.5 -147.5zM582 1696q-84 0 -95 -105h-118q6 113 61 174.5t135.5 61.5t177.5 -60q81 -45 119 -45q82 0 94 105h119
q-6 -113 -61.5 -174.5t-135 -61.5t-178.5 60q-81 45 -118 45z" />
    <glyph glyph-name="utilde" unicode="&#x169;" 
d="M150 406v634h180v-620q0 -158 61.5 -226.5t177 -68.5t193.5 85t78 234v596h180v-1040h-174v137h-4q-49 -74 -132 -117t-186 -43q-180 0 -277 109t-97 320zM451 1315q-84 0 -95 -105h-118q6 113 61 174.5t135.5 61.5t177.5 -60q81 -45 119 -45q82 0 94 105h119
q-6 -113 -61.5 -174.5t-136 -61.5t-177.5 60q-81 45 -118 45z" />
    <glyph glyph-name="Umacron" unicode="&#x16a;" horiz-adv-x="1443" 
d="M722 -29q-263 0 -401.5 146.5t-138.5 429.5v911h189v-907q0 -201 92 -304.5t260 -103.5t259 103.5t91 304.5v907h191v-911q0 -281 -139.5 -428.5t-402.5 -147.5zM430 1614v133h582v-133h-582z" />
    <glyph glyph-name="umacron" unicode="&#x16b;" 
d="M150 406v634h180v-620q0 -158 61.5 -226.5t177 -68.5t193.5 85t78 234v596h180v-1040h-174v137h-4q-49 -74 -132 -117t-186 -43q-180 0 -277 109t-97 320zM299 1262v131h582v-131h-582z" />
    <glyph glyph-name="Ubreve" unicode="&#x16c;" horiz-adv-x="1443" 
d="M722 -29q-263 0 -401.5 146.5t-138.5 429.5v911h189v-907q0 -201 92 -304.5t260 -103.5t259 103.5t91 304.5v907h191v-911q0 -281 -139.5 -428.5t-402.5 -147.5zM722 1548q-142 0 -225 76t-94 215h136q8 -78 57 -121t127 -43t126 43t58 121h133q-10 -139 -93 -215
t-225 -76z" />
    <glyph glyph-name="ubreve" unicode="&#x16d;" 
d="M150 406v634h180v-620q0 -158 61.5 -226.5t177 -68.5t193.5 85t78 234v596h180v-1040h-174v137h-4q-49 -74 -132 -117t-186 -43q-180 0 -277 109t-97 320zM592 1165q-141 0 -225 77t-95 216h136q8 -80 57 -123t127 -43t126 43t58 123h133q-10 -139 -93 -216t-224 -77z
" />
    <glyph glyph-name="Uring" unicode="&#x16e;" horiz-adv-x="1443" 
d="M722 -29q-263 0 -401.5 146.5t-138.5 429.5v911h189v-907q0 -201 92 -304.5t260 -103.5t259 103.5t91 304.5v907h191v-911q0 -281 -139.5 -428.5t-402.5 -147.5zM604 1745q0 -49 35 -83t84 -34t83 34t34 83t-34 84t-83 35t-84 -35t-35 -84zM928 1746q0 -85 -60.5 -145.5
t-145.5 -60.5t-145.5 60.5t-60.5 145.5t60.5 145.5t145.5 60.5t145.5 -60.5t60.5 -145.5z" />
    <glyph glyph-name="uring" unicode="&#x16f;" 
d="M150 406v634h180v-620q0 -158 61.5 -226.5t177 -68.5t193.5 85t78 234v596h180v-1040h-174v137h-4q-49 -74 -132 -117t-186 -43q-180 0 -277 109t-97 320zM473 1364q0 -49 35 -84t84 -35t83 34t34 84t-34 85t-83 35t-84 -35t-35 -84zM797 1363q0 -85 -60.5 -145.5
t-145.5 -60.5t-145.5 60.5t-60.5 145.5t60.5 145.5t145.5 60.5t145.5 -60.5t60.5 -145.5z" />
    <glyph glyph-name="Uhungarumlaut" unicode="&#x170;" horiz-adv-x="1443" 
d="M722 -29q-263 0 -401.5 146.5t-138.5 429.5v911h189v-907q0 -201 92 -304.5t260 -103.5t259 103.5t91 304.5v907h191v-911q0 -281 -139.5 -428.5t-402.5 -147.5zM752 1548l217 291h213l-279 -291h-151zM424 1548l217 291h213l-279 -291h-151z" />
    <glyph glyph-name="uhungarumlaut" unicode="&#x171;" 
d="M150 406v634h180v-620q0 -158 61.5 -226.5t177 -68.5t193.5 85t78 234v596h180v-1040h-174v137h-4q-49 -74 -132 -117t-186 -43q-180 0 -277 109t-97 320zM635 1165l217 293h213l-279 -293h-151zM307 1165l217 293h213l-278 -293h-152z" />
    <glyph glyph-name="Uogonek" unicode="&#x172;" horiz-adv-x="1443" 
d="M918 -397q-203 0 -203 174q0 57 29.5 104t93.5 103v4q-55 -16 -115 -17q-264 0 -402.5 146.5t-138.5 429.5v911h189v-907q0 -201 92 -304.5t260 -103.5t259 103.5t91 304.5v907h191v-911q0 -340 -220 -513q-102 -81 -136 -130t-34 -101q0 -86 84 -86q43 0 78 15v-109
q-51 -20 -118 -20z" />
    <glyph glyph-name="uogonek" unicode="&#x173;" 
d="M889 -397q-86 0 -136.5 43t-50.5 115t38 126t122 113h-16v137h-4q-49 -74 -132 -117t-186 -43q-180 0 -277 109t-97 320v634h180v-620q0 -158 61.5 -226.5t177 -68.5t193.5 85t78 234v596h180v-1040q-86 -63 -121 -111.5t-35 -97.5q0 -74 82 -74q45 1 80 15v-109
q-51 -20 -137 -20z" />
    <glyph glyph-name="Wcircumflex" unicode="&#x174;" horiz-adv-x="1875" 
d="M1245 0l-153 637q-84 346 -152 653h-4q-68 -307 -152 -653l-153 -637h-271l-340 1458h189l137 -590q47 -207 137 -620l15 -66h4q92 414 162 688l143 588h262l143 -588q70 -274 162 -688h4q63 309 152 686l137 590h188l-339 -1458h-271zM1036 1839l234 -283h-183l-151 183
l-150 -183h-182l234 283h198z" />
    <glyph glyph-name="wcircumflex" unicode="&#x175;" horiz-adv-x="1576" 
d="M1028 0l-123 451q-23 86 -28 114q-49 182 -86 336h-5q-36 -153 -64 -259t-50 -191l-123 -451h-258l-277 1040h183l110 -434q49 -197 115 -467h4q55 233 115 457l118 444h259l118 -444l115 -457h4q66 270 115 467l110 434h183l-277 -1040h-258zM788 1356l-151 -191h-182
l233 293h199l233 -293h-182z" />
    <glyph glyph-name="Ycircumflex" unicode="&#x176;" horiz-adv-x="1257" 
d="M723 0h-188v604l-527 854h219l179 -301q104 -176 221 -385h4q117 209 221 385l180 301h217l-526 -854v-604zM727 1839l234 -283h-183l-151 183l-150 -183h-182l233 283h199z" />
    <glyph glyph-name="ycircumflex" unicode="&#x177;" horiz-adv-x="966" 
d="M160 -387q-88 0 -121 10v152q37 -12 96.5 -12.5t103.5 20t76.5 70t67.5 143.5l-395 1044h194l299 -827h4l303 827h191l-418 -1087q-51 -135 -107.5 -208t-131 -102.5t-162.5 -29.5zM485 1356l-151 -191h-182l233 293h199l233 -293h-182z" />
    <glyph glyph-name="Ydieresis" unicode="&#x178;" horiz-adv-x="1257" 
d="M723 0h-188v604l-527 854h219l179 -301q104 -176 221 -385h4q117 209 221 385l180 301h217l-526 -854v-604zM743 1587v203h168v-203h-168zM344 1587v203h168v-203h-168z" />
    <glyph glyph-name="Zacute" unicode="&#x179;" horiz-adv-x="1159" 
d="M258 166h864v-166h-1085v180l825 1108v4h-803v166h1024v-180l-825 -1108v-4zM434 1556l176 283h232l-252 -283h-156z" />
    <glyph glyph-name="zacute" unicode="&#x17a;" horiz-adv-x="960" 
d="M274 147h633v-147h-854v156l613 733v4h-592v147h813v-155l-613 -733v-5zM326 1165l176 293h231l-252 -293h-155z" />
    <glyph glyph-name="Zdotaccent" unicode="&#x17b;" horiz-adv-x="1159" 
d="M258 166h864v-166h-1085v180l825 1108v4h-803v166h1024v-180l-825 -1108v-4zM481 1575v203h181v-203h-181z" />
    <glyph glyph-name="zdotaccent" unicode="&#x17c;" horiz-adv-x="960" 
d="M274 147h633v-147h-854v156l613 733v4h-592v147h813v-155l-613 -733v-5zM371 1255v203h180v-203h-180z" />
    <glyph glyph-name="Zcaron" unicode="&#x17d;" horiz-adv-x="1159" 
d="M258 166h864v-166h-1085v180l825 1108v4h-803v166h1024v-180l-825 -1108v-4zM471 1556l-233 283h182l151 -180l150 180h182l-233 -283h-199z" />
    <glyph glyph-name="zcaron" unicode="&#x17e;" horiz-adv-x="960" 
d="M274 147h633v-147h-854v156l613 733v4h-592v147h813v-155l-613 -733v-5zM362 1165l-233 293h182l152 -190l149 190h183l-234 -293h-199z" />
    <glyph glyph-name="longs" unicode="&#x17f;" horiz-adv-x="624" 
d="M209 1169q0 299 285 299q63 0 104 -10v-139q-18 6 -78 6t-96.5 -41t-36.5 -135v-1149h-178v897h-182v143h182v129z" />
    <glyph glyph-name="Schwa" unicode="&#x18f;" horiz-adv-x="1517" 
d="M754 143q200 0 329 130t148 358h-944q16 -231 141.5 -359.5t325.5 -128.5zM1430 733q0 -225 -82 -397t-237 -268.5t-359 -96.5t-354 92.5t-230 263.5t-80 402q0 49 2 66h1143q-8 254 -146.5 388t-355.5 134q-164 0 -270.5 -81t-132.5 -216h-207q25 131 103.5 236.5
t207 168t322.5 62.5t351 -93.5t241 -264.5t84 -396z" />
    <glyph glyph-name="florin" unicode="&#x192;" horiz-adv-x="1150" 
d="M1020 1319q-90 0 -140.5 -48t-78.5 -165l-37 -148h225v-139h-258l-211 -833q-35 -139 -82 -220t-117.5 -118t-151.5 -37t-124 12v154q37 -13 101 -13t112.5 49.5t83.5 192.5l207 813h-207v139h240l41 166q47 188 132 268.5t238 80.5q58 -1 115 -15v-149q-41 10 -88 10z
" />
    <glyph glyph-name="Aringacute" unicode="&#x1fa;" horiz-adv-x="1382" 
d="M905 733q-125 344 -211 594h-4q-86 -250 -211 -594l-49 -133h522zM371 434l-160 -434h-201l553 1458h256l555 -1458h-203l-157 434h-643zM573 1706q0 -49 35 -83t84 -34t83 34t34 83t-34 84t-83 35t-84 -35t-35 -84zM897 1707q0 -85 -60.5 -145.5t-145.5 -60.5
t-145.5 60.5t-60.5 145.5t60.5 145.5t145.5 60.5t145.5 -60.5t60.5 -145.5zM555 1956l176 282h232l-252 -282h-156z" />
    <glyph glyph-name="aringacute" unicode="&#x1fb;" horiz-adv-x="1087" 
d="M254 293q0 -80 56 -128t138 -48q152 0 234 82q47 49 65.5 101t18.5 144v64q-157 -13 -280 -33t-177.5 -61t-54.5 -121zM70 282.5q0 135.5 89 214t273.5 108.5t333.5 40v41q0 125 -62.5 184.5t-173 59.5t-172 -56.5t-65.5 -150.5h-180q8 154 116.5 250t302 96t301 -101.5
t107.5 -301.5v-400q0 -158 25 -266h-164q-14 66 -15 152h-4q-115 -175 -360 -175q-160 0 -256 85t-96 220.5zM399 1325q0 -49 35 -84t84 -35t83 34t34 84t-34 85t-83 35t-84 -35t-35 -84zM723 1324q0 -85 -60.5 -145.5t-145.5 -60.5t-145.5 60.5t-60.5 145.5t60.5 145.5
t145.5 60.5t145.5 -60.5t60.5 -145.5zM381 1581l176 293h231l-251 -293h-156z" />
    <glyph glyph-name="AEacute" unicode="&#x1fc;" horiz-adv-x="1918" 
d="M856 1298h-31l-323 -673h454zM1810 0h-759l-70 459h-559l-219 -459h-215l714 1458h1086v-168h-746l70 -461h635v-165h-610l73 -496h600v-168zM903 1556l176 283h232l-252 -283h-156z" />
    <glyph glyph-name="aeacute" unicode="&#x1fd;" horiz-adv-x="1765" 
d="M569 477q-172 0 -243.5 -46t-71.5 -134t57.5 -137t141.5 -49q159 0 235 84q49 49 67.5 103t18.5 146v33h-205zM1221.5 930q-119.5 0 -195.5 -83t-88 -233h565q-8 152 -85 234t-196.5 82zM850 193q-119 -222 -424 -222q-154 0 -255 87t-101 236t111.5 234.5t367.5 85.5
h225v72q0 123 -62.5 183.5t-175 60.5t-175 -56.5t-68.5 -150.5h-180q10 154 119.5 250t302.5 96q252 0 344 -168q120 168 344 168q166 0 282.5 -98.5t155.5 -265.5q20 -88 20 -228h-745q8 -182 88 -274t194.5 -92t182 55t86.5 145h184q-27 -145 -142.5 -242.5t-299.5 -97.5
q-261 0 -379 222zM741 1165l177 293h231l-252 -293h-156z" />
    <glyph glyph-name="Oslashacute" unicode="&#x1fe;" horiz-adv-x="1499" 
d="M1219 757q0 208 -95 359l-661 -876q119 -102 274.5 -102.5t261 72.5t163 206t57.5 341zM763 1321q-156 0 -262 -72.5t-163 -206t-57 -341t94 -359.5l663 877q-119 102 -275 102zM1411 729q0 -231 -81 -402t-230.5 -263.5t-367.5 -92.5t-378 123l-123 -162l-104 80
l131 174q-170 207 -170 543q0 231 81 402.5t230.5 263.5t368 92t379.5 -125l123 164l102 -80l-131 -174q170 -209 170 -543zM612 1556l176 283h232l-252 -283h-156z" />
    <glyph glyph-name="oslashacute" unicode="&#x1ff;" horiz-adv-x="1159" 
d="M891 498.5q0 166.5 -55 271.5l-445 -592q76 -63 187 -63q145 0 229 108.5t84 275zM266 539.5q0 -169.5 53 -269.5l447 590q-76 66 -188 66q-144 0 -228 -108.5t-84 -278zM1073 518q0 -252 -133 -399.5t-362 -147.5q-168 0 -283 78l-105 -135l-88 68l109 143
q-127 145 -127 397t132 399.5t362 147.5q166 0 284 -80l107 139l88 -71l-109 -144q125 -143 125 -395zM442 1165l176 293h232l-252 -293h-156z" />
    <glyph glyph-name="Scommaaccent" unicode="&#x218;" horiz-adv-x="1247" 
d="M922 1008q0 317 -334 317q-135 0 -212 -61.5t-77 -151.5t37 -136t109.5 -76t222.5 -66t252 -80q226 -96 227 -353q0 -129 -64.5 -226t-182.5 -150.5t-275 -53.5q-258 0 -401.5 131t-143.5 381h194q0 -176 92.5 -263t254.5 -87t246.5 67.5t84.5 190.5q0 143 -148 199
q-73 28 -224.5 66t-251.5 82q-222 97 -222 347q0 117 59.5 208t169 142.5t255.5 51.5q260 0 391 -121t131 -358h-190zM528 -315v182h183v-182l-113 -211h-78l78 211h-70z" />
    <glyph glyph-name="scommaaccent" unicode="&#x219;" horiz-adv-x="1011" 
d="M895 715h-176q0 104 -60.5 159.5t-163 55.5t-156.5 -40t-54 -100.5t25.5 -89t72.5 -45t167 -45.5t194.5 -57.5t129 -93t54.5 -191t-111.5 -212t-309.5 -85.5t-311.5 96.5t-115.5 278.5h182q0 -111 66.5 -171t179 -60t174 43t61.5 107t-28.5 97t-84 52.5t-177 49.5
t-187 55.5t-114 84t-48.5 178t107.5 203.5t289 84t288 -92t106.5 -262zM422 -315v182h182v-182l-112 -211h-78l78 211h-70z" />
    <glyph glyph-name="uni021A" unicode="&#x21a;" horiz-adv-x="1226" 
d="M709 1290v-1290h-191v1290h-498v168h1186v-168h-497zM522 -315v182h183v-182l-113 -211h-78l78 211h-70z" />
    <glyph glyph-name="uni021B" unicode="&#x21b;" horiz-adv-x="655" 
d="M383 309q0 -169 126 -167q60 0 91 10v-148q-45 -12 -115 -12q-150 0 -216 69.5t-66 229.5v606h-180v143h180v252h180v-252h207v-143h-207v-588zM274 -315v182h183v-182l-113 -211h-78l78 211h-70z" />
    <glyph glyph-name="dotlessj" unicode="&#x237;" horiz-adv-x="509" 
d="M51 -387q-57 0 -96 10v144q31 -6 59 -7q80 0 118 44t38 153v1083h180v-1099q0 -170 -78.5 -249t-220.5 -79z" />
    <glyph glyph-name="schwa" unicode="&#x259;" horiz-adv-x="1126" 
d="M560 111q126 0 208 88t92 243h-596q10 -160 90 -245.5t206 -85.5zM1042 520q0 -160 -58 -283.5t-168 -194.5t-256 -71t-253.5 67.5t-165 191.5t-57.5 290q0 23 4 51h774q-6 176 -93 267.5t-207 91.5t-185.5 -54.5t-83.5 -142.5h-187q29 145 144 240.5t297 95.5
q231 0 363 -149.5t132 -399.5z" />
    <glyph glyph-name="uni02BC" unicode="&#x2bc;" horiz-adv-x="485" 
d="M141 1237v221h203v-221l-98 -274h-109l72 274h-68z" />
    <glyph glyph-name="circumflex" unicode="&#x2c6;" horiz-adv-x="870" 
d="M436 1356l-151 -191h-183l234 293h199l233 -293h-182z" />
    <glyph glyph-name="caron" unicode="&#x2c7;" horiz-adv-x="870" 
d="M336 1165l-234 293h183l151 -190l150 190h182l-233 -293h-199z" />
    <glyph glyph-name="uni02C9" unicode="&#x2c9;" horiz-adv-x="786" 
d="M102 1262v131h582v-131h-582z" />
    <glyph glyph-name="breve" unicode="&#x2d8;" horiz-adv-x="841" 
d="M422 1165q-141 0 -225 77t-95 216h136q8 -80 57 -123t127 -43t126 43t58 123h133q-10 -139 -93 -216t-224 -77z" />
    <glyph glyph-name="dotaccent" unicode="&#x2d9;" horiz-adv-x="385" 
d="M102 1255v203h181v-203h-181z" />
    <glyph glyph-name="ring" unicode="&#x2da;" horiz-adv-x="616" 
d="M190 1364q0 -49 35 -84t84 -35t83 34t34 84t-34 85t-83 35t-84 -35t-35 -84zM514 1363q0 -85 -60.5 -145.5t-145.5 -60.5t-145.5 60.5t-60.5 145.5t60.5 145.5t145.5 60.5t145.5 -60.5t60.5 -145.5z" />
    <glyph glyph-name="ogonek" unicode="&#x2db;" horiz-adv-x="528" 
d="M264 -209q0 -74 82 -74q45 0 80 15v-109q-51 -20 -137 -20t-136.5 43t-50.5 116t39 127t127 115l152 -4q-86 -63 -121 -111.5t-35 -97.5z" />
    <glyph glyph-name="tilde" unicode="&#x2dc;" horiz-adv-x="911" 
d="M315 1315q-84 0 -94 -105h-119q6 113 61.5 174.5t135.5 61.5t178 -60q45 -25 68.5 -35t50.5 -10q82 0 94 105h119q-6 -113 -61.5 -174.5t-135.5 -61.5t-178 60q-45 25 -68.5 35t-50.5 10z" />
    <glyph glyph-name="hungarumlaut" unicode="&#x2dd;" horiz-adv-x="962" 
d="M430 1165l217 293h213l-278 -293h-152zM102 1165l217 293h213l-278 -293h-152z" />
    <glyph glyph-name="uni0312" unicode="&#x312;" horiz-adv-x="0" 
d="M285 1376v-182h-183v182l113 211h78l-78 -211h70z" />
    <glyph glyph-name="commaaccent" unicode="&#x326;" horiz-adv-x="0" 
d="M111 -315v182h182v-182l-113 -211h-78l78 211h-69z" />
    <glyph glyph-name="uni0333" unicode="&#x333;" horiz-adv-x="0" 
d="M-1024 -467v100h1024v-100h-1024zM-1024 -203v101h1024v-101h-1024z" />
    <glyph glyph-name="numeralsigngreek" unicode="&#x374;" horiz-adv-x="368" 
d="M61 1040l72 418h174l-129 -418h-117z" />
    <glyph glyph-name="numeralsignlowergreek" unicode="&#x375;" horiz-adv-x="368" 
d="M61 -188l72 417h174l-129 -417h-117z" />
    <glyph glyph-name="questiongreek" unicode="&#x37e;" horiz-adv-x="462" 
d="M121 0v240h221v-240l-106 -295h-119l78 295h-74zM121 801v239h221v-239h-221z" />
    <glyph glyph-name="tonos" unicode="&#x384;" horiz-adv-x="466" 
d="M100 1171l84 328h183l-125 -328h-142z" />
    <glyph glyph-name="dieresistonos" unicode="&#x385;" horiz-adv-x="937" 
d="M676 1200v205h160v-205h-160zM102 1200v205h160v-205h-160zM360 1171l74 302h158l-100 -302h-132z" />
    <glyph glyph-name="Alphatonos" unicode="&#x386;" horiz-adv-x="1382" 
d="M905 733q-125 344 -211 594h-4q-86 -250 -211 -594l-49 -133h522zM371 434l-160 -434h-201l553 1458h256l555 -1458h-203l-157 434h-643zM92 1049l84 409h182l-125 -409h-141z" />
    <glyph glyph-name="anoteleia" unicode="&#x387;" horiz-adv-x="462" 
d="M121 801v239h221v-239h-221z" />
    <glyph glyph-name="Epsilontonos" unicode="&#x388;" horiz-adv-x="1265" 
d="M383 1290v-461h709v-165h-709v-496h774v-168h-962v1458h940v-168h-752zM-195 1049l84 409h183l-125 -409h-142z" />
    <glyph glyph-name="Etatonos" unicode="&#x389;" horiz-adv-x="1509" 
d="M1126 0v674h-743v-674h-188v1458h188v-618h743v618h191v-1458h-191zM-195 1049l84 409h183l-125 -409h-142z" />
    <glyph glyph-name="Iotatonos" unicode="&#x38a;" horiz-adv-x="577" 
d="M195 0v1458h188v-1458h-188zM-195 1049l84 409h183l-125 -409h-142z" />
    <glyph glyph-name="Omicrontonos" unicode="&#x38c;" horiz-adv-x="1499" 
d="M285 729q0 -178 56 -310t161.5 -204t247 -72t247 72t161.5 204t56 310t-56 310t-161.5 204t-247 72t-247 -72t-161.5 -204t-56 -310zM1411 729.5q0 -231.5 -81 -402.5t-230.5 -263.5t-350 -92.5t-350 92.5t-230.5 263.5t-81 402.5t81 402.5t230.5 263t350 92t350 -92
t230.5 -263t81 -402.5zM-123 1049l84 409h182l-125 -409h-141z" />
    <glyph glyph-name="Upsilontonos" unicode="&#x38e;" horiz-adv-x="1257" 
d="M723 0h-188v604l-527 854h219l179 -301q104 -176 221 -385h4q117 209 221 385l180 301h217l-526 -854v-604zM-315 1049l84 409h182l-125 -409h-141z" />
    <glyph glyph-name="Omegatonos" unicode="&#x38f;" horiz-adv-x="1492" 
d="M1393 842q0 -197 -85 -354.5t-241 -317.5v-4h348v-166h-541v172q156 160 239 310.5t83 338.5q0 242 -123 368t-327 126t-326.5 -126t-122.5 -368q0 -188 83 -338.5t238 -310.5v-172h-540v166h348v4q-156 160 -241 317.5t-85 354.5q0 317 176.5 481t470 164t470 -164
t176.5 -481zM-135 1049l84 409h182l-125 -409h-141z" />
    <glyph glyph-name="iotadieresistonos" unicode="&#x390;" horiz-adv-x="569" 
d="M473 141q43 0 74 11v-148q-53 -14 -113 -14q-150 0 -217 76.5t-67 250.5v723h180v-704q0 -105 32.5 -150t110.5 -45zM449 1200v205h159v-205h-159zM-125 1200v205h160v-205h-160zM133 1171l74 302h158l-101 -302h-131z" />
    <glyph glyph-name="Alpha" unicode="&#x391;" horiz-adv-x="1382" 
d="M905 733q-125 344 -211 594h-4q-86 -250 -211 -594l-49 -133h522zM371 434l-160 -434h-201l553 1458h256l555 -1458h-203l-157 434h-643z" />
    <glyph glyph-name="Beta" unicode="&#x392;" horiz-adv-x="1284" 
d="M383 160h299q317 0 317 252t-344 252h-272v-504zM383 821h272q319 0 320 240q0 119 -75 178t-236 59h-281v-477zM1161 1087q0 -252 -241 -339v-5q130 -31 202 -119t72 -223q0 -185 -129 -293t-356 -108h-514v1458h475q243 0 367 -99t124 -272z" />
    <glyph glyph-name="Gamma" unicode="&#x393;" horiz-adv-x="999" 
d="M195 1458h784v-168h-596v-1290h-188v1458z" />
    <glyph glyph-name="uni0394" unicode="&#x394;" horiz-adv-x="1382" 
d="M903 733q-125 344 -211 594h-4q-86 -250 -211 -594l-207 -565h840zM10 0l555 1458h256l553 -1458h-1364z" />
    <glyph glyph-name="Epsilon" unicode="&#x395;" horiz-adv-x="1265" 
d="M383 1290v-461h709v-165h-709v-496h774v-168h-962v1458h940v-168h-752z" />
    <glyph glyph-name="Zeta" unicode="&#x396;" horiz-adv-x="1159" 
d="M258 166h864v-166h-1085v180l825 1108v4h-803v166h1024v-180l-825 -1108v-4z" />
    <glyph glyph-name="Eta" unicode="&#x397;" horiz-adv-x="1509" 
d="M1126 0v674h-743v-674h-188v1458h188v-618h743v618h191v-1458h-191z" />
    <glyph glyph-name="Theta" unicode="&#x398;" horiz-adv-x="1499" 
d="M455 649v164h587v-164h-587zM281 730q0 -179 57 -312t162.5 -205t249 -72t249 72t163 205t57.5 312t-57.5 312.5t-163 205t-249 71.5t-249 -71.5t-162.5 -205t-57 -312.5zM1411 729.5q0 -231.5 -81 -402.5t-230.5 -263.5t-350 -92.5t-350 92.5t-230.5 263.5t-81 402.5
t81 402.5t230.5 263t350 92t350 -92t230.5 -263t81 -402.5z" />
    <glyph glyph-name="Iota" unicode="&#x399;" horiz-adv-x="577" 
d="M195 0v1458h188v-1458h-188z" />
    <glyph glyph-name="Kappa" unicode="&#x39a;" horiz-adv-x="1280" 
d="M383 717v-717h-188v1458h188v-657h4l588 657h237l-637 -694l697 -764h-252l-633 717h-4z" />
    <glyph glyph-name="Lambda" unicode="&#x39b;" horiz-adv-x="1351" 
d="M1133 0l-254 729q-57 165 -122 357t-79 231h-4q-63 -186 -199 -588l-258 -729h-207l535 1458h262l534 -1458h-208z" />
    <glyph glyph-name="Mu" unicode="&#x39c;" horiz-adv-x="1912" 
d="M1534 0v741q0 184 4 557h-4q-74 -213 -172 -483l-297 -815h-217l-297 815q-98 270 -172 483h-4q4 -373 4 -557v-741h-184v1458h303l264 -719q98 -276 192 -559h4q94 283 193 559l262 719h305v-1458h-184z" />
    <glyph glyph-name="Nu" unicode="&#x39d;" horiz-adv-x="1546" 
d="M379 584v-584h-184v1458h276l348 -629q207 -377 352 -653h5q-6 350 -7 698v584h185v-1458h-279l-346 629q-197 352 -352 653h-4q6 -350 6 -698z" />
    <glyph glyph-name="Xi" unicode="&#x39e;" horiz-adv-x="1353" 
d="M115 0v188h1124v-188h-1124zM178 637v188h998v-188h-998zM143 1270v188h1067v-188h-1067z" />
    <glyph glyph-name="Omicron" unicode="&#x39f;" horiz-adv-x="1499" 
d="M285 729q0 -178 56 -310t161.5 -204t247 -72t247 72t161.5 204t56 310t-56 310t-161.5 204t-247 72t-247 -72t-161.5 -204t-56 -310zM1411 729.5q0 -231.5 -81 -402.5t-230.5 -263.5t-350 -92.5t-350 92.5t-230.5 263.5t-81 402.5t81 402.5t230.5 263t350 92t350 -92
t230.5 -263t81 -402.5z" />
    <glyph glyph-name="Pi" unicode="&#x3a0;" horiz-adv-x="1488" 
d="M1106 0v1290h-723v-1290h-188v1458h1101v-1458h-190z" />
    <glyph glyph-name="Rho" unicode="&#x3a1;" horiz-adv-x="1261" 
d="M383 741h297q164 0 247 73t83 204t-83 204t-247 72h-297v-553zM1204 1018q0 -204 -131 -323q-131 -118 -379 -117h-311v-578h-188v1458h499q248 0 379 -118t131 -322z" />
    <glyph glyph-name="Sigma" unicode="&#x3a3;" horiz-adv-x="1148" 
d="M299 1292v-4l401 -547l-426 -571v-4h836v-166h-1067v170l426 571l-403 551v166h1015v-166h-782z" />
    <glyph glyph-name="Tau" unicode="&#x3a4;" horiz-adv-x="1226" 
d="M709 1290v-1290h-191v1290h-498v168h1186v-168h-497z" />
    <glyph glyph-name="Upsilon" unicode="&#x3a5;" horiz-adv-x="1257" 
d="M723 0h-188v604l-527 854h219l179 -301q104 -176 221 -385h4q117 209 221 385l180 301h217l-526 -854v-604z" />
    <glyph glyph-name="Phi" unicode="&#x3a6;" horiz-adv-x="1619" 
d="M1337 735q0 219 -113.5 339t-320.5 128v-934q207 8 320.5 128t113.5 339zM283 738q0 -220 113.5 -341t320.5 -129v934q-207 -8 -320.5 -126t-113.5 -338zM1532 735q0 -295 -166 -455.5t-463 -177.5v-155h-186v155q-297 16 -463 178t-166 457t166 456t463 175v143h186
v-143q295 -14 462 -176t167 -457z" />
    <glyph glyph-name="Chi" unicode="&#x3a7;" horiz-adv-x="1271" 
d="M1257 0h-225l-393 600h-4l-393 -600h-228l506 748l-477 710h221l371 -567h4l369 567h221l-477 -710z" />
    <glyph glyph-name="Psi" unicode="&#x3a8;" horiz-adv-x="1599" 
d="M895 0h-190v371q-315 12 -463 163.5t-148 471.5v452h191v-450q0 -242 96 -348.5t324 -114.5v913h190v-913q227 8 324.5 114.5t97.5 348.5v450h188v-452q0 -322 -146.5 -472.5t-463.5 -162.5v-371z" />
    <glyph glyph-name="uni03A9" unicode="&#x3a9;" horiz-adv-x="1492" 
d="M1393 842q0 -197 -85 -354.5t-241 -317.5v-4h348v-166h-541v172q156 160 239 310.5t83 338.5q0 242 -123 368t-327 126t-326.5 -126t-122.5 -368q0 -188 83 -338.5t238 -310.5v-172h-540v166h348v4q-156 160 -241 317.5t-85 354.5q0 317 176.5 481t470 164t470 -164
t176.5 -481z" />
    <glyph glyph-name="Iotadieresis" unicode="&#x3aa;" horiz-adv-x="577" 
d="M195 0v1458h188v-1458h-188zM403 1673v203h168v-203h-168zM4 1673v203h168v-203h-168z" />
    <glyph glyph-name="Upsilondieresis" unicode="&#x3ab;" horiz-adv-x="1257" 
d="M723 0h-188v604l-527 854h219l179 -301q104 -176 221 -385h4q117 209 221 385l180 301h217l-526 -854v-604zM743 1587v203h168v-203h-168zM344 1587v203h168v-203h-168z" />
    <glyph glyph-name="alphatonos" unicode="&#x3ac;" horiz-adv-x="1202" 
d="M272 522.5q0 -182.5 80 -292t211 -109.5t209 108.5t78 293t-78 292t-209 107.5t-211 -108.5t-80 -291zM1020 295q0 -94 21.5 -128t61.5 -34t62 8v-135q-55 -18 -133 -18t-124 41t-60 133h-4q-43 -88 -130 -137.5t-207 -49.5t-218.5 68t-151.5 191.5t-53 287.5t53 288
t152.5 190.5t218.5 66.5t206 -50t130 -136h4q4 82 16 159h178q-23 -139 -22 -368v-377zM500 1171l84 328h182l-125 -328h-141z" />
    <glyph glyph-name="epsilontonos" unicode="&#x3ad;" horiz-adv-x="1009" 
d="M92 274q0 192 209 258v5q-92 35 -137 92t-45 147q0 135 102.5 214t286.5 79t294.5 -91t110.5 -251h-184q0 96 -57.5 145.5t-159.5 49.5t-156.5 -41t-54.5 -118t65.5 -122t174.5 -45h102v-141h-102q-265 0 -265 -176q0 -74 60.5 -117t169.5 -43q242 0 242 200h186
q0 -168 -111.5 -258t-309 -90t-309.5 81t-112 222zM428 1171l84 328h182l-125 -328h-141z" />
    <glyph glyph-name="etatonos" unicode="&#x3ae;" horiz-adv-x="1202" 
d="M182 735q0 172 -84 172q-39 0 -61 -8v135q161 46 241 -22q48 -41 64 -138h4q51 90 138 140.5t198 50.5q178 0 274.5 -109.5t96.5 -320.5v-1014h-181v997q0 158 -60 229t-177 71t-195 -85t-78 -235v-598h-180v735zM463 1171l84 328h182l-125 -328h-141z" />
    <glyph glyph-name="iotatonos" unicode="&#x3af;" horiz-adv-x="569" 
d="M473 141q43 0 74 11v-148q-53 -14 -113 -14q-150 0 -217 76.5t-67 250.5v723h180v-704q0 -105 32.5 -150t110.5 -45zM168 1171l84 328h182l-125 -328h-141z" />
    <glyph glyph-name="upsilondieresistonos" unicode="&#x3b0;" horiz-adv-x="1181" 
d="M362 774v-397q0 -135 61.5 -195.5t182.5 -60.5q279 0 279 397q0 295 -76 522h176q80 -244 80 -518q0 -551 -457 -551q-213 0 -320.5 95.5t-107.5 298.5v372q0 96 -20.5 131t-60.5 35t-64 -6v137q55 18 112 19q113 0 164 -61.5t51 -217.5zM770 1200v205h160v-205h-160z
M197 1200v205h159v-205h-159zM455 1171l73 302h158l-100 -302h-131z" />
    <glyph glyph-name="alpha" unicode="&#x3b1;" horiz-adv-x="1202" 
d="M272 522.5q0 -182.5 80 -292t211 -109.5t209 108.5t78 293t-78 292t-209 107.5t-211 -108.5t-80 -291zM1020 295q0 -94 21.5 -128t61.5 -34t62 8v-135q-55 -18 -133 -18t-124 41t-60 133h-4q-43 -88 -130 -137.5t-207 -49.5t-218.5 68t-151.5 191.5t-53 287.5t53 288
t152.5 190.5t218.5 66.5t206 -50t130 -136h4q4 82 16 159h178q-23 -139 -22 -368v-377z" />
    <glyph glyph-name="beta" unicode="&#x3b2;" horiz-adv-x="1193" 
d="M340 981v-590q0 -125 72 -195.5t214 -70.5t223 75.5t81 220.5q0 288 -395 288h-33v153h33q162 0 242.5 64.5t80.5 178.5t-63.5 175t-193.5 61q-261 0 -261 -360zM643 -20q-223 0 -299 133h-4v-492h-180v1356q0 250 114.5 380t324.5 130t322.5 -97.5t112.5 -263.5
q0 -131 -64.5 -216t-183.5 -115v-4q152 -27 240 -124t88 -281t-124 -295t-347 -111z" />
    <glyph glyph-name="gamma" unicode="&#x3b3;" horiz-adv-x="1069" 
d="M446 -35q0 177 -53 391t-123 350t-111.5 168.5t-80.5 32.5t-60 -6v137q43 14 117 14t132.5 -43.5t124.5 -176.5t115.5 -302.5t63.5 -312.5h4q125 209 192 400.5t87 422.5h186q-30 -290 -126.5 -523.5t-286.5 -502.5v-26q0 -192 -23 -367h-180q22 167 22 344z" />
    <glyph glyph-name="delta" unicode="&#x3b4;" horiz-adv-x="1159" 
d="M272 467q0 -162 84 -255t223.5 -93t222.5 93t83 249t-72 258t-221 180q-152 -51 -236 -160.5t-84 -271.5zM559 1335q-86 0 -119.5 -20.5t-33.5 -62.5t59 -84t235 -135t274.5 -230t98.5 -338q0 -150 -61.5 -261.5t-173 -172t-259 -60.5t-260 60.5t-174 171t-61.5 280.5
t98.5 302.5t280.5 193.5v4q-94 57 -170 115.5t-76 167.5q0 213 322 213q225 -1 428 -62v-160q-202 78 -408 78z" />
    <glyph glyph-name="epsilon" unicode="&#x3b5;" horiz-adv-x="1009" 
d="M92 274q0 192 209 258v5q-92 35 -137 92t-45 147q0 135 102.5 214t286.5 79t294.5 -91t110.5 -251h-184q0 96 -57.5 145.5t-159.5 49.5t-156.5 -41t-54.5 -118t65.5 -122t174.5 -45h102v-141h-102q-265 0 -265 -176q0 -74 60.5 -117t169.5 -43q242 0 242 200h186
q0 -168 -111.5 -258t-309 -90t-309.5 81t-112 222z" />
    <glyph glyph-name="zeta" unicode="&#x3b6;" horiz-adv-x="927" 
d="M270 485q0 -143 76 -216t248 -95t239.5 -89t67.5 -176t-51 -206h-154q39 78 39 154t-44 114.5t-167 51.5q-229 25 -334.5 132t-105.5 302q0 252 151.5 472t407.5 386v4h-506v139h735v-139q-286 -168 -444 -379t-158 -455z" />
    <glyph glyph-name="eta" unicode="&#x3b7;" horiz-adv-x="1202" 
d="M182 735q0 172 -84 172q-39 0 -61 -8v135q161 46 241 -22q48 -41 64 -138h4q51 90 138 140.5t198 50.5q178 0 274.5 -109.5t96.5 -320.5v-1014h-181v997q0 158 -60 229t-177 71t-195 -85t-78 -235v-598h-180v735z" />
    <glyph glyph-name="theta" unicode="&#x3b8;" horiz-adv-x="1216" 
d="M608 117q150 0 238 142t98 403h-672q10 -260 98 -402.5t238 -142.5zM608 1341q-150 0 -237.5 -142t-98.5 -402h672q-10 260 -98 402t-238 142zM1128 729q0 -358 -137 -557t-384 -199t-383 199t-136 557t136 557t383 199t384 -199t137 -557z" />
    <glyph glyph-name="iota" unicode="&#x3b9;" horiz-adv-x="569" 
d="M473 141q43 0 74 11v-148q-53 -14 -113 -14q-150 0 -217 76.5t-67 250.5v723h180v-704q0 -105 32.5 -150t110.5 -45z" />
    <glyph glyph-name="kappa" unicode="&#x3ba;" horiz-adv-x="1069" 
d="M338 0h-180v1040h180v-489h4l217 250q129 147 216 198.5t196 51.5q39 0 73 -11v-153q-29 8 -55 8q-86 0 -168 -55.5t-213 -202.5l-61 -68l534 -569h-233l-414 442l-96 -108v-334z" />
    <glyph glyph-name="lambda" unicode="&#x3bb;" horiz-adv-x="1155" 
d="M1102 135q14 0 35 4v-139q-37 -10 -93 -10t-127.5 32t-144.5 238l-215 574h-4l-369 -834h-196l479 1040q-61 162 -118.5 222.5t-147.5 60.5q-53 0 -97 -16v143q48 20 140 20t162.5 -36.5t129 -125.5t121.5 -255l273 -717q45 -119 83 -160t89 -41z" />
    <glyph glyph-name="uni03BC" unicode="&#x3bc;" horiz-adv-x="1193" 
d="M1104 137q39 0 63 6v-137q-55 -18 -132 -18q-158 0 -181 168h-4q-37 -78 -115 -124t-176 -46q-152 0 -219 86v-451h-180v1419h180v-616q0 -158 58 -226.5t174 -68.5t193 84t77 233v594h180v-743q0 -92 21.5 -126t60.5 -34z" />
    <glyph glyph-name="nu" unicode="&#x3bd;" horiz-adv-x="1046" 
d="M831 958q0 43 -6 82h179q8 -41 8 -125t-41.5 -248t-311.5 -667h-227l-229 719q-35 106 -68 146t-82 40q-18 0 -35 -4v133q39 16 95 17q96 0 156.5 -62.5t103.5 -216.5l184 -612h4q158 305 214 478t56 320z" />
    <glyph glyph-name="xi" unicode="&#x3be;" horiz-adv-x="944" 
d="M168 1038q0 200 182 277v4h-225v139h780v-139h-157q-199 0 -304.5 -69.5t-105.5 -185.5t84 -172t219 -56h184v-140h-159q-201 0 -297.5 -73.5t-96.5 -195.5t78 -178.5t253 -74.5t243.5 -86t68.5 -178t-51 -207h-153q39 78 39 155t-47.5 116.5t-176.5 50.5
q-442 39 -442 374q0 141 76 234.5t227 128.5v4q-102 29 -160.5 99.5t-58.5 172.5z" />
    <glyph glyph-name="omicron" unicode="&#x3bf;" horiz-adv-x="1157" 
d="M272 520.5q0 -186.5 82 -294t224.5 -107.5t224.5 107.5t82 294t-82 294t-224.5 107.5t-224.5 -107.5t-82 -294zM1073 520q0 -254 -133 -401.5t-362.5 -147.5t-361.5 147.5t-132 401.5t132 401.5t361.5 147.5t362.5 -147.5t133 -401.5z" />
    <glyph glyph-name="pi" unicode="&#x3c0;" horiz-adv-x="1335" 
d="M1057 897v-575q0 -106 34.5 -147.5t106.5 -41.5q29 0 62 8v-137q-49 -16 -123 -16q-131 0 -195.5 71.5t-64.5 241.5v596h-461v-897h-180v897h-211v143h1271v-143h-239z" />
    <glyph glyph-name="rho" unicode="&#x3c1;" horiz-adv-x="1183" 
d="M324 522q0 -186 75.5 -291.5t211.5 -105.5t217 104.5t81 291t-80.5 293t-216.5 106.5t-212 -106t-76 -292zM630 -23q-214 0 -296 142h-4v-498h-180v899q0 166 57 290t161 191.5t248 67.5t253.5 -66.5t169 -191.5t59.5 -295q0 -250 -127 -394.5t-341 -144.5z" />
    <glyph glyph-name="sigma1" unicode="&#x3c2;" horiz-adv-x="1056" 
d="M550 922q-128 0 -206 -94.5t-78 -262.5t80 -255.5t253 -109.5t243.5 -95t70.5 -187t-53 -215h-155q41 76 41 159t-47.5 127t-178.5 58q-442 51 -442 502q0 246 128 383t343 137t332.5 -109.5t132.5 -297.5h-187q-10 121 -79.5 190.5t-197.5 69.5z" />
    <glyph glyph-name="sigma" unicode="&#x3c3;" horiz-adv-x="1216" 
d="M274 511q0 -185 80 -288.5t226 -103.5t225.5 103.5t79.5 288.5t-79.5 288.5t-225.5 103.5t-226 -103.5t-80 -288.5zM1071 500q0 -162 -60.5 -281t-172 -183.5t-261 -64.5t-261 65.5t-172 186.5t-60.5 285q0 248 133 390t361 142h614v-139h-295v-4q174 -114 174 -397z" />
    <glyph glyph-name="tau" unicode="&#x3c4;" horiz-adv-x="956" 
d="M553 901v-579q0 -106 35 -147.5t106 -41.5q29 0 62 8v-137q-49 -16 -123 -16q-131 0 -195.5 71.5t-64.5 241.5v600h-348v139h907v-139h-379z" />
    <glyph glyph-name="upsilon" unicode="&#x3c5;" horiz-adv-x="1181" 
d="M362 774v-397q0 -135 61.5 -195.5t182.5 -60.5q279 0 279 397q0 295 -76 522h176q80 -244 80 -518q0 -551 -457 -551q-213 0 -320.5 95.5t-107.5 298.5v372q0 96 -20.5 131t-60.5 35t-64 -6v137q55 18 112 19q113 0 164 -61.5t51 -217.5z" />
    <glyph glyph-name="phi" unicode="&#x3c6;" horiz-adv-x="1546" 
d="M1276 520.5q0 188.5 -108.5 295t-307.5 112.5v-815q199 6 307.5 112.5t108.5 295zM268 520.5q0 -188.5 109.5 -296t308.5 -111.5v815q-199 -4 -308.5 -111.5t-109.5 -296zM860 -379h-174v350q-184 4 -320.5 72t-209 189.5t-72.5 287.5t72.5 288t209 189.5t320.5 71.5v287
h174v-287q279 -8 440.5 -153.5t161.5 -395.5t-161.5 -395t-440.5 -154v-350z" />
    <glyph glyph-name="chi" unicode="&#x3c7;" horiz-adv-x="1171" 
d="M1052 -246q48 0 97 8v-135q-57 -18 -147 -18t-157 52t-128 194l-135 315h-4l-355 -549h-203l467 705l-180 405q-49 113 -92 148.5t-103 35.5t-94 -12v135q50 23 146 23t163.5 -51.5t127.5 -190.5l141 -332h4l344 553h203l-453 -712l172 -391q49 -113 93.5 -148t92.5 -35z
" />
    <glyph glyph-name="psi" unicode="&#x3c8;" horiz-adv-x="1572" 
d="M887 -379h-180v359q-274 8 -415.5 120.5t-141.5 345.5v594h180v-571q0 -170 94 -252t283 -92v1231h180v-1229q387 18 387 401q0 291 -82 512h178q84 -232 84 -504t-140 -409t-427 -147v-359z" />
    <glyph glyph-name="omega" unicode="&#x3c9;" horiz-adv-x="1599" 
d="M1481 459q0 -486 -373 -486q-242 0 -307 195h-2q-66 -195 -307 -195q-373 0 -373 486q0 321 133 581h188q-135 -256 -135 -563q0 -358 217 -358q188 0 189 243v420h180v-420q0 -244 186 -243q219 0 219 358q0 307 -135 563h187q133 -264 133 -581z" />
    <glyph glyph-name="iotadieresis" unicode="&#x3ca;" horiz-adv-x="569" 
d="M473 141q43 0 74 11v-148q-53 -14 -113 -14q-150 0 -217 76.5t-67 250.5v723h180v-704q0 -105 32.5 -150t110.5 -45zM356 1255v203h168v-203h-168zM-43 1255v203h168v-203h-168z" />
    <glyph glyph-name="upsilondieresis" unicode="&#x3cb;" horiz-adv-x="1181" 
d="M362 774v-397q0 -135 61.5 -195.5t182.5 -60.5q279 0 279 397q0 295 -76 522h176q80 -244 80 -518q0 -551 -457 -551q-213 0 -320.5 95.5t-107.5 298.5v372q0 96 -20.5 131t-60.5 35t-64 -6v137q55 18 112 19q113 0 164 -61.5t51 -217.5zM678 1255v203h168v-203h-168z
M279 1255v203h167v-203h-167z" />
    <glyph glyph-name="omicrontonos" unicode="&#x3cc;" horiz-adv-x="1157" 
d="M272 520.5q0 -186.5 82 -294t224.5 -107.5t224.5 107.5t82 294t-82 294t-224.5 107.5t-224.5 -107.5t-82 -294zM1073 520q0 -254 -133 -401.5t-362.5 -147.5t-361.5 147.5t-132 401.5t132 401.5t361.5 147.5t362.5 -147.5t133 -401.5zM506 1171l84 328h182l-125 -328
h-141z" />
    <glyph glyph-name="upsilontonos" unicode="&#x3cd;" horiz-adv-x="1181" 
d="M362 774v-397q0 -135 61.5 -195.5t182.5 -60.5q279 0 279 397q0 295 -76 522h176q80 -244 80 -518q0 -551 -457 -551q-213 0 -320.5 95.5t-107.5 298.5v372q0 96 -20.5 131t-60.5 35t-64 -6v137q55 18 112 19q113 0 164 -61.5t51 -217.5zM489 1171l84 328h183l-125 -328
h-142z" />
    <glyph glyph-name="omegatonos" unicode="&#x3ce;" horiz-adv-x="1599" 
d="M1481 459q0 -486 -373 -486q-242 0 -307 195h-2q-66 -195 -307 -195q-373 0 -373 486q0 321 133 581h188q-135 -256 -135 -563q0 -358 217 -358q188 0 189 243v420h180v-420q0 -244 186 -243q219 0 219 358q0 307 -135 563h187q133 -264 133 -581zM727 1171l84 328h182
l-125 -328h-141z" />
    <glyph glyph-name="uni0400" unicode="&#x400;" horiz-adv-x="1265" 
d="M383 1290v-461h709v-165h-709v-496h774v-168h-962v1458h940v-168h-752zM801 1556h-156l-252 283h232z" />
    <glyph glyph-name="uni0401" unicode="&#x401;" horiz-adv-x="1265" 
d="M383 1290v-461h709v-165h-709v-496h774v-168h-962v1458h940v-168h-752zM780 1587v203h168v-203h-168zM381 1587v203h168v-203h-168z" />
    <glyph glyph-name="uni0402" unicode="&#x402;" horiz-adv-x="1585" 
d="M709 1290v-438q145 76 323 76q238 0 367 -126t129 -347t-132 -349.5t-360 -128.5q-106 0 -178 23v166q68 -23 162 -23q152 0 235.5 82t83.5 230t-84.5 227.5t-248.5 79.5t-297 -76v-686h-191v1290h-498v168h1186v-168h-497z" />
    <glyph glyph-name="uni0403" unicode="&#x403;" horiz-adv-x="999" 
d="M195 1458h784v-168h-596v-1290h-188v1458zM449 1556l176 283h231l-252 -283h-155z" />
    <glyph glyph-name="uni0404" unicode="&#x404;" horiz-adv-x="1419" 
d="M727 -29q-197 0 -341 91.5t-221 262.5t-77 404.5t78 404.5t222 262t329.5 91t314.5 -66.5t202 -185.5t81 -270h-195q-16 162 -120.5 256t-281.5 94t-295 -133t-134 -369h647v-166h-649q18 -238 134 -371t292 -133t282.5 96.5t128.5 262.5h197q-23 -246 -180.5 -388.5
t-413.5 -142.5z" />
    <glyph glyph-name="uni0405" unicode="&#x405;" horiz-adv-x="1247" 
d="M922 1008q0 317 -334 317q-135 0 -212 -61.5t-77 -151.5t37 -136t109.5 -76t222.5 -66t252 -80q226 -96 227 -353q0 -129 -64.5 -226t-182.5 -150.5t-275 -53.5q-258 0 -401.5 131t-143.5 381h194q0 -176 92.5 -263t254.5 -87t246.5 67.5t84.5 190.5q0 143 -148 199
q-73 28 -224.5 66t-251.5 82q-222 97 -222 347q0 117 59.5 208t169 142.5t255.5 51.5q260 0 391 -121t131 -358h-190z" />
    <glyph glyph-name="uni0406" unicode="&#x406;" horiz-adv-x="577" 
d="M195 0v1458h188v-1458h-188z" />
    <glyph glyph-name="uni0407" unicode="&#x407;" horiz-adv-x="577" 
d="M195 0v1458h188v-1458h-188zM403 1587v203h168v-203h-168zM4 1587v203h168v-203h-168z" />
    <glyph glyph-name="uni0408" unicode="&#x408;" horiz-adv-x="729" 
d="M133 -10q-61 0 -102 12v168q55 -10 88 -10q121 0 179 65.5t58 216.5v1016h189v-1040q0 -428 -412 -428z" />
    <glyph glyph-name="uni0409" unicode="&#x409;" horiz-adv-x="2134" 
d="M1255 164h297q164 0 247 72.5t83 203.5t-83 204t-247 73h-297v-553zM1567 881q248 0 379 -118t131 -322.5t-131 -322.5t-379 -118h-502v1290h-526q-12 -549 -58.5 -825.5t-134.5 -375.5t-248 -99q-43 0 -73 10v158q16 -4 36 -4q111 0 168.5 96t86 369.5t40.5 838.5h899
v-577h312z" />
    <glyph glyph-name="uni040A" unicode="&#x40a;" horiz-adv-x="2195" 
d="M1944 440q0 131 -83 204t-247 73h-297v-553h297q164 0 247 72.5t83 203.5zM2138 440.5q0 -204.5 -131 -322.5t-379 -118h-502v692h-743v-692h-188v1458h188v-598h743v598h191v-577h311q248 0 379 -118t131 -322.5z" />
    <glyph glyph-name="uni040B" unicode="&#x40b;" horiz-adv-x="1581" 
d="M1319 424q-1 299 -311 299q-158 0 -299 -49v-674h-191v1290h-498v168h1186v-168h-497v-452q157 51 363 51t320.5 -113.5t114.5 -324.5v-451h-188v424z" />
    <glyph glyph-name="uni040C" unicode="&#x40c;" horiz-adv-x="1280" 
d="M383 717v-717h-188v1458h188v-657h4l588 657h237l-637 -694l697 -764h-252l-633 717h-4zM522 1556l176 283h232l-252 -283h-156z" />
    <glyph glyph-name="uni040D" unicode="&#x40d;" horiz-adv-x="1546" 
d="M379 874q0 -348 -6 -698h4q156 301 352 653l346 629h279v-1458h-185v584q0 348 7 698h-5q-145 -276 -352 -653l-348 -629h-276v1458h184v-584zM903 1556h-155l-252 283h231z" />
    <glyph glyph-name="uni040E" unicode="&#x40e;" horiz-adv-x="1329" 
d="M340 -16q-78 0 -133 16v164q41 -12 115 -12q153 0 239 188l-551 1118h207l219 -469q152 -324 226 -485h4q98 213 225 483l223 471h207l-582 -1179q-80 -160 -175 -227.5t-224 -67.5zM665 1548q-142 0 -225.5 76t-93.5 215h135q8 -78 57.5 -121t127 -43t126 43t58.5 121
h133q-10 -139 -93 -215t-225 -76z" />
    <glyph glyph-name="uni040F" unicode="&#x40f;" horiz-adv-x="1488" 
d="M831 0v-328h-180v328h-456v1458h188v-1290h723v1290h190v-1458h-465z" />
    <glyph glyph-name="uni0410" unicode="&#x410;" horiz-adv-x="1382" 
d="M905 733q-125 344 -211 594h-4q-86 -250 -211 -594l-49 -133h522zM371 434l-160 -434h-201l553 1458h256l555 -1458h-203l-157 434h-643z" />
    <glyph glyph-name="uni0411" unicode="&#x411;" horiz-adv-x="1294" 
d="M383 164h309q158 0 241 68.5t83 195.5t-83 196.5t-241 69.5h-309v-530zM383 1294v-436h344q229 0 357 -115.5t128 -314.5t-128 -313.5t-357 -114.5h-532v1458h931v-164h-743z" />
    <glyph glyph-name="uni0412" unicode="&#x412;" horiz-adv-x="1284" 
d="M383 160h299q317 0 317 252t-344 252h-272v-504zM383 821h272q319 0 320 240q0 119 -75 178t-236 59h-281v-477zM1161 1087q0 -252 -241 -339v-5q130 -31 202 -119t72 -223q0 -185 -129 -293t-356 -108h-514v1458h475q243 0 367 -99t124 -272z" />
    <glyph glyph-name="uni0413" unicode="&#x413;" horiz-adv-x="999" 
d="M195 1458h784v-168h-596v-1290h-188v1458z" />
    <glyph glyph-name="uni0414" unicode="&#x414;" horiz-adv-x="1497" 
d="M1096 168v1122h-564q-19 -817 -143 -1122h707zM1454 -328h-180v328h-1059v-328h-180v496h147q74 131 116 418.5t52 871.5h936v-1290h168v-496z" />
    <glyph glyph-name="uni0415" unicode="&#x415;" horiz-adv-x="1265" 
d="M383 1290v-461h709v-165h-709v-496h774v-168h-962v1458h940v-168h-752z" />
    <glyph glyph-name="uni0416" unicode="&#x416;" horiz-adv-x="1796" 
d="M991 741v-741h-186v741h-4l-559 -741h-232l596 764l-540 694h227l508 -682h4v682h186v-682h4l508 682h228l-541 -694l596 -764h-234l-557 741h-4z" />
    <glyph glyph-name="uni0417" unicode="&#x417;" horiz-adv-x="1257" 
d="M874 745q293 -91 293 -351q0 -264 -189.5 -343.5t-352.5 -79.5q-264 0 -409.5 123t-145.5 344h202q0 -145 90.5 -222t255.5 -77t255 67.5t90 189.5t-100.5 189.5t-289.5 67.5h-108v164h108q168 0 265.5 68.5t97.5 183.5t-87 181.5t-240 66.5t-237.5 -74t-84.5 -217h-203
q0 215 143 337t389 122t384.5 -106.5t138.5 -291.5q0 -131 -66.5 -210.5t-198.5 -126.5v-5z" />
    <glyph glyph-name="uni0418" unicode="&#x418;" horiz-adv-x="1546" 
d="M379 874q0 -348 -6 -698h4q156 301 352 653l346 629h279v-1458h-185v584q0 348 7 698h-5q-145 -276 -352 -653l-348 -629h-276v1458h184v-584z" />
    <glyph glyph-name="uni0419" unicode="&#x419;" horiz-adv-x="1546" 
d="M379 874q0 -348 -6 -698h4q156 301 352 653l346 629h279v-1458h-185v584q0 348 7 698h-5q-145 -276 -352 -653l-348 -629h-276v1458h184v-584zM767 1548q-142 0 -225 76t-93 215h135q8 -78 57 -121t127 -43t126 43t58 121h133q-10 -139 -93 -215t-225 -76z" />
    <glyph glyph-name="uni041A" unicode="&#x41a;" horiz-adv-x="1280" 
d="M383 717v-717h-188v1458h188v-657h4l588 657h237l-637 -694l697 -764h-252l-633 717h-4z" />
    <glyph glyph-name="uni041B" unicode="&#x41b;" horiz-adv-x="1447" 
d="M1065 0v1290h-526q-12 -549 -58.5 -825.5t-134.5 -375.5t-248 -99q-43 0 -73 10v158q16 -4 36 -4q111 0 168.5 96t86 369.5t40.5 838.5h899v-1458h-190z" />
    <glyph glyph-name="uni041C" unicode="&#x41c;" horiz-adv-x="1912" 
d="M1534 0v741q0 184 4 557h-4q-74 -213 -172 -483l-297 -815h-217l-297 815q-98 270 -172 483h-4q4 -373 4 -557v-741h-184v1458h303l264 -719q98 -276 192 -559h4q94 283 193 559l262 719h305v-1458h-184z" />
    <glyph glyph-name="uni041D" unicode="&#x41d;" horiz-adv-x="1509" 
d="M1126 0v674h-743v-674h-188v1458h188v-618h743v618h191v-1458h-191z" />
    <glyph glyph-name="uni041E" unicode="&#x41e;" horiz-adv-x="1499" 
d="M285 729q0 -178 56 -310t161.5 -204t247 -72t247 72t161.5 204t56 310t-56 310t-161.5 204t-247 72t-247 -72t-161.5 -204t-56 -310zM1411 729.5q0 -231.5 -81 -402.5t-230.5 -263.5t-350 -92.5t-350 92.5t-230.5 263.5t-81 402.5t81 402.5t230.5 263t350 92t350 -92
t230.5 -263t81 -402.5z" />
    <glyph glyph-name="uni041F" unicode="&#x41f;" horiz-adv-x="1488" 
d="M1106 0v1290h-723v-1290h-188v1458h1101v-1458h-190z" />
    <glyph glyph-name="uni0420" unicode="&#x420;" horiz-adv-x="1261" 
d="M383 741h297q164 0 247 73t83 204t-83 204t-247 72h-297v-553zM1204 1018q0 -204 -131 -323q-131 -118 -379 -117h-311v-578h-188v1458h499q248 0 379 -118t131 -322z" />
    <glyph glyph-name="uni0421" unicode="&#x421;" horiz-adv-x="1411" 
d="M727 1315q-207 0 -324.5 -157t-117.5 -429t116.5 -429t319.5 -157q162 0 268.5 96.5t128.5 262.5h197q-23 -246 -180.5 -388.5t-413.5 -142.5q-195 0 -337 91.5t-219 262.5t-77 404.5t77 404.5t221 262t328.5 91t312.5 -66.5t199.5 -185.5t80.5 -270h-195
q-14 162 -117.5 256t-267.5 94z" />
    <glyph glyph-name="uni0422" unicode="&#x422;" horiz-adv-x="1226" 
d="M709 1290v-1290h-191v1290h-498v168h1186v-168h-497z" />
    <glyph glyph-name="uni0423" unicode="&#x423;" horiz-adv-x="1329" 
d="M340 -16q-78 0 -133 16v164q41 -12 115 -12q153 0 239 188l-551 1118h207l219 -469q152 -324 226 -485h4q98 213 225 483l223 471h207l-582 -1179q-80 -160 -175 -227.5t-224 -67.5z" />
    <glyph glyph-name="uni0424" unicode="&#x424;" horiz-adv-x="1693" 
d="M1409 729q0 199 -125 317.5t-344 133.5v-901q219 14 344 132.5t125 317.5zM285 729q0 -199 125 -317.5t344 -132.5v901q-219 -14 -344 -133t-125 -318zM940 -49h-186v162q-313 12 -489.5 175t-176.5 441.5t176 441t490 175.5v161h186v-161q313 -12 489.5 -175
t176.5 -441.5t-176.5 -441.5t-489.5 -175v-162z" />
    <glyph glyph-name="uni0425" unicode="&#x425;" horiz-adv-x="1271" 
d="M1257 0h-225l-393 600h-4l-393 -600h-228l506 748l-477 710h221l371 -567h4l369 567h221l-477 -710z" />
    <glyph glyph-name="uni0426" unicode="&#x426;" horiz-adv-x="1513" 
d="M1464 168v-496h-180v328h-1089v1458h188v-1290h723v1290h190v-1290h168z" />
    <glyph glyph-name="uni0427" unicode="&#x427;" horiz-adv-x="1316" 
d="M934 0v606q-170 -51 -389 -51t-345 113.5t-126 322.5v467h190v-438q0 -145 85 -222t258 -77t327 49v688h190v-1458h-190z" />
    <glyph glyph-name="uni0428" unicode="&#x428;" horiz-adv-x="2088" 
d="M195 0v1458h188v-1290h567v1290h191v-1290h567v1290h188v-1458h-1701z" />
    <glyph glyph-name="uni0429" unicode="&#x429;" horiz-adv-x="2107" 
d="M2064 168v-496h-180v328h-1689v1458h188v-1290h567v1290h191v-1290h567v1290h188v-1290h168z" />
    <glyph glyph-name="uni042A" unicode="&#x42a;" horiz-adv-x="1525" 
d="M647 164h297q164 0 247 72.5t83 203.5t-83 204t-247 73h-297v-553zM958 881q248 0 379 -118t131 -322.5t-131 -322.5t-379 -118h-501v1290h-437v168h627v-577h311z" />
    <glyph glyph-name="uni042B" unicode="&#x42b;" horiz-adv-x="1839" 
d="M1010 440q0 131 -83 204t-247 73h-297v-553h297q164 0 247 72.5t83 203.5zM1454 0v1458h191v-1458h-191zM195 1458h188v-577h311q248 0 379 -118t131 -322.5t-131 -322.5t-379 -118h-499v1458z" />
    <glyph glyph-name="uni042C" unicode="&#x42c;" horiz-adv-x="1261" 
d="M1010 440q0 131 -83 204t-247 73h-297v-553h297q164 0 247 72.5t83 203.5zM195 1458h188v-577h311q248 0 379 -118t131 -322.5t-131 -322.5t-379 -118h-499v1458z" />
    <glyph glyph-name="uni042D" unicode="&#x42d;" horiz-adv-x="1419" 
d="M1331 729.5q0 -233.5 -76.5 -404.5t-221 -262.5t-341.5 -91.5q-256 0 -413.5 142.5t-180.5 388.5h195q23 -166 129 -262.5t283 -96.5t293 133.5t135 370.5h-650v166h647q-16 236 -133.5 369t-295 133t-282 -94.5t-120.5 -255.5h-195q8 152 80 270.5t201 185t314.5 66.5
t331 -91t223 -262t77.5 -404.5z" />
    <glyph glyph-name="uni042E" unicode="&#x42e;" horiz-adv-x="2015" 
d="M1731 729q0 178 -53.5 310t-152 204t-229.5 72t-230 -72t-152.5 -204t-53.5 -310t53.5 -310t152.5 -204t230 -72t229.5 72t152 204t53.5 310zM1929 729.5q0 -231.5 -77.5 -402.5t-220.5 -263.5t-329 -92.5t-323 82t-218 234.5t-95 359.5h-283v-647h-188v1458h188v-645
h283q14 207 95 358.5t218 233.5t323 82t329 -92t220.5 -263t77.5 -402.5z" />
    <glyph glyph-name="uni042F" unicode="&#x42f;" horiz-adv-x="1288" 
d="M614 1296q-333 0 -333 -258q0 -123 78.5 -196.5t240.5 -73.5h305v528h-291zM88 1038q0 199 128 309.5t382 110.5h498v-1458h-191v608h-307q-49 0 -72 2l-301 -610h-213l338 645q-262 94 -262 393z" />
    <glyph glyph-name="uni0430" unicode="&#x430;" horiz-adv-x="1087" 
d="M254 293q0 -80 56 -128t138 -48q152 0 234 82q47 49 65.5 101t18.5 144v64q-157 -13 -280 -33t-177.5 -61t-54.5 -121zM70 282.5q0 135.5 89 214t273.5 108.5t333.5 40v41q0 125 -62.5 184.5t-173 59.5t-172 -56.5t-65.5 -150.5h-180q8 154 116.5 250t302 96t301 -101.5
t107.5 -301.5v-400q0 -158 25 -266h-164q-14 66 -15 152h-4q-115 -175 -360 -175q-160 0 -256 85t-96 220.5z" />
    <glyph glyph-name="uni0431" unicode="&#x431;" horiz-adv-x="1177" 
d="M586 889q-301 0 -301 -380q0 -179 80.5 -284.5t226 -105.5t226.5 99.5t81 281.5t-84 285.5t-229 103.5zM606 1030q145 0 254 -62.5t168 -179t59 -274.5q0 -252 -133 -397.5t-364 -145.5t-361.5 155t-130.5 458t60.5 487t184 266t361.5 103t338 47v-160q-99 -27 -301 -43
t-296.5 -68.5t-139.5 -148.5t-65 -262h4q93 225 362 225z" />
    <glyph glyph-name="uni0432" unicode="&#x432;" horiz-adv-x="1079" 
d="M336 133h225q242 0 242 167t-242 167h-225v-334zM336 592h217q229 0 229 157.5t-229 157.5h-217v-315zM965 766q0 -178 -181 -231v-5q94 -18 148.5 -80.5t54.5 -158.5q0 -139 -99.5 -215t-279.5 -76h-448v1040h418q190 0 288.5 -71.5t98.5 -202.5z" />
    <glyph glyph-name="uni0433" unicode="&#x433;" horiz-adv-x="854" 
d="M340 897v-897h-180v1040h667v-143h-487z" />
    <glyph glyph-name="uni0434" unicode="&#x434;" horiz-adv-x="1196" 
d="M848 143v754h-381q-27 -541 -117 -754h498zM1169 -328h-180v328h-786v-328h-180v471h122q59 90 95 285t53 612h735v-897h141v-471z" />
    <glyph glyph-name="uni0435" unicode="&#x435;" horiz-adv-x="1126" 
d="M565 930q-125 0 -204.5 -81t-94.5 -228h598q-14 150 -94 229.5t-205 79.5zM592.5 -29q-171.5 0 -281.5 70t-168.5 197t-58.5 289t58.5 283.5t168 190t270 68.5t280.5 -96t161 -266q20 -84 20 -224h-778q6 -184 91 -278t207 -94t194.5 55t91.5 145h184
q-29 -145 -148.5 -242.5t-291 -97.5z" />
    <glyph glyph-name="uni0436" unicode="&#x436;" horiz-adv-x="1409" 
d="M793 547v-547h-177v547h-4l-397 -547h-233l446 569l-397 471h219l362 -456h4v456h177v-456h4l362 456h219l-397 -471l446 -569h-233l-397 547h-4z" />
    <glyph glyph-name="uni0437" unicode="&#x437;" horiz-adv-x="1003" 
d="M885 776q0 -90 -45 -147.5t-138 -91.5v-5q102 -33 155.5 -94t53.5 -164q0 -141 -111.5 -222t-309.5 -81t-309 90.5t-111 257.5h186q0 -201 242 -200q106 0 167.5 43t61.5 123t-67.5 125t-196.5 45h-105v141h105q109 0 174 45t65 122t-55 118t-156 41t-159 -49.5
t-58 -145.5h-184q0 160 110 251t294 91t287.5 -79t103.5 -214z" />
    <glyph glyph-name="uni0438" unicode="&#x438;" horiz-adv-x="1273" 
d="M930 0v401q0 233 6 467h-4q-86 -162 -242 -432l-256 -436h-274v1040h184v-401q0 -233 -6 -467h4q92 180 242 432l256 436h274v-1040h-184z" />
    <glyph glyph-name="uni0439" unicode="&#x439;" horiz-adv-x="1273" 
d="M930 0v401q0 233 6 467h-4q-86 -162 -242 -432l-256 -436h-274v1040h184v-401q0 -233 -6 -467h4q92 180 242 432l256 436h274v-1040h-184zM639 1165q-141 0 -225 77t-95 216h136q8 -80 57 -123t127 -43t126 43t58 123h133q-10 -139 -93 -216t-224 -77z" />
    <glyph glyph-name="uni043A" unicode="&#x43a;" horiz-adv-x="1058" 
d="M340 520v-520h-180v1040h180v-432h4l420 432h223l-467 -471l522 -569h-237l-461 520h-4z" />
    <glyph glyph-name="uni043B" unicode="&#x43b;" horiz-adv-x="1128" 
d="M788 0v897h-352q-8 -375 -46 -570.5t-108.5 -265t-193.5 -69.5q-45 0 -76 8v137q20 -4 41 -4q78 0 140 99.5t73 807.5h703v-1040h-181z" />
    <glyph glyph-name="uni043C" unicode="&#x43c;" horiz-adv-x="1572" 
d="M1239 0v506q0 129 4 387h-2l-37 -96q-49 -137 -112 -293l-197 -504h-217l-215 543l-131 350h-4q4 -258 4 -387v-506h-172v1040h291l186 -479q76 -193 147 -399h4q84 246 146 399l188 479h291v-1040h-174z" />
    <glyph glyph-name="uni043D" unicode="&#x43d;" horiz-adv-x="1206" 
d="M866 0v451h-526v-451h-180v1040h180v-446h526v446h181v-1040h-181z" />
    <glyph glyph-name="uni043E" unicode="&#x43e;" horiz-adv-x="1157" 
d="M272 520.5q0 -186.5 82 -294t224.5 -107.5t224.5 107.5t82 294t-82 294t-224.5 107.5t-224.5 -107.5t-82 -294zM1073 520q0 -254 -133 -401.5t-362.5 -147.5t-361.5 147.5t-132 401.5t132 401.5t361.5 147.5t362.5 -147.5t133 -401.5z" />
    <glyph glyph-name="uni043F" unicode="&#x43f;" horiz-adv-x="1189" 
d="M850 0v897h-510v-897h-180v1040h870v-1040h-180z" />
    <glyph glyph-name="uni0440" unicode="&#x440;" 
d="M332 522q0 -184 77 -293t207 -109t211 110q80 110 80 292t-80 291q-81 109 -211 109t-207 -108t-77 -292zM676 -25q-118 1 -204 47t-128 125h-4v-526h-180v1419h178v-149h4q41 82 127 129t204 47t217 -67q99 -66 152 -190q54 -124 54 -288t-54 -288t-151 -192t-215 -67z
" />
    <glyph glyph-name="uni0441" unicode="&#x441;" horiz-adv-x="1093" 
d="M571 922q-137 0 -217 -107.5t-80 -294t79 -294t218 -107.5q106 0 177 74.5t81 189.5h189q-10 -119 -67.5 -212t-155 -146.5t-235 -53.5t-247.5 66.5t-169.5 190.5t-59.5 292t59.5 292t170 190.5t246.5 66.5t233.5 -50t156 -140.5t68.5 -206.5h-189q-10 111 -80.5 180.5
t-177.5 69.5z" />
    <glyph glyph-name="uni0442" unicode="&#x442;" horiz-adv-x="923" 
d="M555 897v-897h-184v897h-357v143l895 -2v-141h-354z" />
    <glyph glyph-name="uni0443" unicode="&#x443;" horiz-adv-x="966" 
d="M160 -387q-88 0 -121 10v152q37 -12 96.5 -12.5t103.5 20t76.5 70t67.5 143.5l-395 1044h194l299 -827h4l303 827h191l-418 -1087q-51 -135 -107.5 -208t-131 -102.5t-162.5 -29.5z" />
    <glyph glyph-name="uni0444" unicode="&#x444;" horiz-adv-x="1611" 
d="M1063 121q125 0 200.5 109.5t75.5 292t-74.5 291t-201.5 108.5q-96 0 -168 -76v-651q74 -74 168 -74zM272 522.5q0 -182.5 75 -292t200 -109.5q98 0 168 74v651q-70 76 -168 76q-125 0 -200 -108.5t-75 -291zM1112 1067q123 0 218 -66.5t146.5 -190.5t51.5 -288
t-51.5 -287.5t-146.5 -191.5t-218 -68t-217 78v-432h-180v432q-90 -78 -214 -78t-219.5 68t-146.5 191.5t-51 287.5t51 288t146.5 190.5t218.5 66.5t215 -82v473h180v-473q94 82 217 82z" />
    <glyph glyph-name="uni0445" unicode="&#x445;" horiz-adv-x="983" 
d="M989 0h-217l-278 416h-5l-278 -416h-215l387 541l-354 499h213l247 -372h5l249 372h213l-354 -499z" />
    <glyph glyph-name="uni0446" unicode="&#x446;" horiz-adv-x="1196" 
d="M1169 143v-471h-180v328h-829v1040h180v-897h510v897h180v-897h139z" />
    <glyph glyph-name="uni0447" unicode="&#x447;" horiz-adv-x="1067" 
d="M727 0v414q-135 -39 -301 -39t-263 84t-97 239v342h180v-315q0 -100 62 -154.5t182 -54.5t237 39v485h180v-1040h-180z" />
    <glyph glyph-name="uni0448" unicode="&#x448;" horiz-adv-x="1714" 
d="M160 0v1040h180v-897h428v897h180v-897h426v897h180v-1040h-1394z" />
    <glyph glyph-name="uni0449" unicode="&#x449;" horiz-adv-x="1722" 
d="M1681 143v-471h-180v328h-1341v1040h180v-897h428v897h180v-897h426v897h180v-897h127z" />
    <glyph glyph-name="uni044A" unicode="&#x44a;" horiz-adv-x="1214" 
d="M502 139h243q227 0 227.5 188.5t-227.5 188.5h-243v-377zM756 655q193 0 296 -86t103 -241.5t-103.5 -241.5t-295.5 -86h-434v897h-308v143h488v-385h254z" />
    <glyph glyph-name="uni044B" unicode="&#x44b;" horiz-adv-x="1490" 
d="M340 139h244q227 0 227 188.5t-227 188.5h-244v-377zM594 655q193 0 296 -86t103 -241.5t-103.5 -241.5t-295.5 -86h-434v1040h180v-385h254zM1151 0v1040h180v-1040h-180z" />
    <glyph glyph-name="uni044C" unicode="&#x44c;" horiz-adv-x="1064" 
d="M340 139h244q227 0 227 188.5t-227 188.5h-244v-377zM594 655q193 0 296 -86t103 -241.5t-103.5 -241.5t-295.5 -86h-434v1040h180v-385h254z" />
    <glyph glyph-name="uni044D" unicode="&#x44d;" horiz-adv-x="1093" 
d="M1010 520q0 -168 -59.5 -292t-170 -190.5t-247 -66.5t-234.5 52.5t-155.5 144.5t-67.5 211h186q10 -113 82 -187.5t189.5 -74.5t195.5 91t92 251h-456v139h454q-16 154 -94 240t-196 86t-188.5 -72t-78.5 -174h-186q10 109 66.5 198t154.5 141t235.5 52t248 -66.5
t170 -190.5t59.5 -292z" />
    <glyph glyph-name="uni044E" unicode="&#x44e;" horiz-adv-x="1615" 
d="M1343 520.5q0 186.5 -81.5 294t-223.5 107.5t-224.5 -107.5t-82.5 -294t82.5 -294t224.5 -107.5t223.5 107.5t81.5 294zM1532 520q0 -168 -60.5 -292t-171 -190.5t-262.5 -66.5q-211 0 -342 127t-151 351h-205v-449h-180v1040h180v-450l205 2q20 223 151 350t342 127
q152 0 262.5 -66.5t171 -190.5t60.5 -292z" />
    <glyph glyph-name="uni044F" unicode="&#x44f;" horiz-adv-x="1083" 
d="M516 899q-244 0 -244 -186q0 -86 57.5 -136.5t174.5 -50.5h239v373h-227zM924 0h-181v389h-278l-229 -389h-203l260 420q-203 72 -203 299q0 154 103.5 237.5t308.5 83.5h422v-1040z" />
    <glyph glyph-name="uni0450" unicode="&#x450;" horiz-adv-x="1126" 
d="M565 930q-125 0 -204.5 -81t-94.5 -228h598q-14 150 -94 229.5t-205 79.5zM592.5 -29q-171.5 0 -281.5 70t-168.5 197t-58.5 289t58.5 283.5t168 190t270 68.5t280.5 -96t161 -266q20 -84 20 -224h-778q6 -184 91 -278t207 -94t194.5 55t91.5 145h184
q-29 -145 -148.5 -242.5t-291 -97.5zM698 1165h-155l-252 293h231z" />
    <glyph glyph-name="uni0451" unicode="&#x451;" horiz-adv-x="1126" 
d="M565 930q-125 0 -204.5 -81t-94.5 -228h598q-14 150 -94 229.5t-205 79.5zM592.5 -29q-171.5 0 -281.5 70t-168.5 197t-58.5 289t58.5 283.5t168 190t270 68.5t280.5 -96t161 -266q20 -84 20 -224h-778q6 -184 91 -278t207 -94t194.5 55t91.5 145h184
q-29 -145 -148.5 -242.5t-291 -97.5zM678 1255v203h168v-203h-168zM279 1255v203h167v-203h-167z" />
    <glyph glyph-name="uni0452" unicode="&#x452;" 
d="M1030 524v-596q0 -164 -80 -239.5t-221 -75.5q-57 0 -96 10v144q31 -6 59 -7q80 0 119 41t39 144v565q0 158 -61.5 226.5t-178 68.5t-193.5 -84t-77 -236v-485h-180v1147h-146v125h146v186h180v-186h461v-125h-461v-348h4q51 76 133 114.5t176 38.5q181 0 279 -108.5
t98 -319.5z" />
    <glyph glyph-name="uni0453" unicode="&#x453;" horiz-adv-x="854" 
d="M340 897v-897h-180v1040h667v-143h-487zM356 1165l176 293h232l-252 -293h-156z" />
    <glyph glyph-name="uni0454" unicode="&#x454;" horiz-adv-x="1093" 
d="M560.5 -29q-137.5 0 -247.5 66.5t-169.5 190.5t-59.5 292t59.5 292t170 190.5t248.5 66.5t235.5 -52t154 -141.5t66.5 -197.5h-184q-8 102 -80 174t-190 72t-194.5 -86t-93.5 -240h453v-139h-455q14 -160 92 -251t195 -91t188.5 74.5t81.5 187.5h187q-10 -119 -67.5 -211
t-155 -144.5t-235 -52.5z" />
    <glyph glyph-name="uni0455" unicode="&#x455;" horiz-adv-x="1011" 
d="M895 715h-176q0 104 -60.5 159.5t-163 55.5t-156.5 -40t-54 -100.5t25.5 -89t72.5 -45t167 -45.5t194.5 -57.5t129 -93t54.5 -191t-111.5 -212t-309.5 -85.5t-311.5 96.5t-115.5 278.5h182q0 -111 66.5 -171t179 -60t174 43t61.5 107t-28.5 97t-84 52.5t-177 49.5
t-187 55.5t-114 84t-48.5 178t107.5 203.5t289 84t288 -92t106.5 -262z" />
    <glyph glyph-name="uni0456" unicode="&#x456;" horiz-adv-x="499" 
d="M160 0v1040h180v-1040h-180zM160 1255v203h180v-203h-180z" />
    <glyph glyph-name="uni0457" unicode="&#x457;" horiz-adv-x="499" 
d="M160 0v1040h180v-1040h-180zM324 1255v203h165v-203h-165zM8 1255v203h168v-203h-168z" />
    <glyph glyph-name="uni0458" unicode="&#x458;" horiz-adv-x="509" 
d="M51 -387q-57 0 -96 10v144q31 -6 59 -7q80 0 118 44t38 153v1083h180v-1099q0 -170 -78.5 -249t-220.5 -79zM170 1255v203h180v-203h-180z" />
    <glyph glyph-name="uni0459" unicode="&#x459;" horiz-adv-x="1693" 
d="M969 139h245q225 0 225.5 188.5t-225.5 188.5h-245v-377zM1223 655q193 0 296 -86t103 -241.5t-103.5 -241.5t-295.5 -86h-435v897h-352q-8 -375 -46 -570.5t-108.5 -265t-193.5 -69.5q-45 0 -76 8v137q20 -4 41 -4q78 0 140 99.5t73 807.5h703v-385h254z" />
    <glyph glyph-name="uni045A" unicode="&#x45a;" horiz-adv-x="1771" 
d="M1047 139h243q225 0 225.5 188.5t-225.5 188.5h-243v-377zM1298 655q193 0 296.5 -86t103.5 -241.5t-102.5 -241.5t-297.5 -86h-432v487h-526v-487h-180v1040h180v-411h526v411h181v-385h251z" />
    <glyph glyph-name="uni045B" unicode="&#x45b;" 
d="M1030 524v-524h-180v510q0 158 -61.5 226.5t-178 68.5t-193.5 -84t-77 -236v-485h-180v1147h-146v125h146v186h180v-186h461v-125h-461v-348h4q51 76 133 114.5t176 38.5q181 0 279 -108.5t98 -319.5z" />
    <glyph glyph-name="uni045C" unicode="&#x45c;" horiz-adv-x="1058" 
d="M340 520v-520h-180v1040h180v-432h4l420 432h223l-467 -471l522 -569h-237l-461 520h-4zM416 1165l176 293h231l-252 -293h-155z" />
    <glyph glyph-name="uni045D" unicode="&#x45d;" horiz-adv-x="1273" 
d="M930 0v401q0 233 6 467h-4q-86 -162 -242 -432l-256 -436h-274v1040h184v-401q0 -233 -6 -467h4q92 180 242 432l256 436h274v-1040h-184zM774 1165h-156l-251 293h231z" />
    <glyph glyph-name="uni045E" unicode="&#x45e;" horiz-adv-x="966" 
d="M160 -387q-88 0 -121 10v152q37 -12 96.5 -12.5t103.5 20t76.5 70t67.5 143.5l-395 1044h194l299 -827h4l303 827h191l-418 -1087q-51 -135 -107.5 -208t-131 -102.5t-162.5 -29.5zM485.5 1165q-141.5 0 -225.5 77t-94 216h135q8 -80 57.5 -123t127 -43t125.5 43t59 123
h133q-10 -139 -93 -216t-224.5 -77z" />
    <glyph glyph-name="uni045F" unicode="&#x45f;" horiz-adv-x="1189" 
d="M682 0v-328h-180v328h-342v1040h180v-897h510v897h180v-1040h-348z" />
    <glyph glyph-name="uni0490" unicode="&#x490;" horiz-adv-x="999" 
d="M383 1290v-1290h-188v1458h604v303h180v-471h-596z" />
    <glyph glyph-name="uni0491" unicode="&#x491;" horiz-adv-x="854" 
d="M340 897v-897h-180v1040h495v328h172v-471h-487z" />
    <glyph glyph-name="uni0492" unicode="&#x492;" horiz-adv-x="999" 
d="M383 770h295v-145h-295v-625h-188v625h-136v145h136v688h784v-168h-596v-520z" />
    <glyph glyph-name="uni0493" unicode="&#x493;" horiz-adv-x="858" 
d="M344 565h270v-131h-270v-434h-180v434h-121v131h121v475h667v-143h-487v-332z" />
    <glyph glyph-name="uni0496" unicode="&#x496;" horiz-adv-x="1796" 
d="M1786 -328h-180v328h-54l-557 741h-4v-741h-186v741h-4l-559 -741h-232l596 764l-540 694h227l508 -682h4v682h186v-682h4l508 682h228l-541 -694l465 -596h131v-496z" />
    <glyph glyph-name="uni0497" unicode="&#x497;" horiz-adv-x="1409" 
d="M1427 -328h-180v328h-53l-397 547h-4v-547h-177v547h-4l-397 -547h-233l446 569l-397 471h219l362 -456h4v456h177v-456h4l362 456h219l-397 -471l334 -426h112v-471z" />
    <glyph glyph-name="uni049A" unicode="&#x49a;" horiz-adv-x="1280" 
d="M1272 -328h-180v328h-72l-633 717h-4v-717h-188v1458h188v-657h4l588 657h237l-637 -694l543 -596h154v-496z" />
    <glyph glyph-name="uni049B" unicode="&#x49b;" horiz-adv-x="1058" 
d="M1042 -328h-180v328h-57l-461 520h-4v-520h-180v1040h180v-432h4l420 432h223l-467 -471l391 -426h131v-471z" />
    <glyph glyph-name="uni049C" unicode="&#x49c;" horiz-adv-x="1421" 
d="M659 674v-350h-159v350h-119v-674h-186v1458h186v-618h119v350h159v-350h9l460 618h228l-541 -698l596 -760h-233l-510 674h-9z" />
    <glyph glyph-name="uni049D" unicode="&#x49d;" horiz-adv-x="1161" 
d="M584 496v-279h-140v279h-106v-496h-178v1040h178v-403h106v266h140v-266h8l319 403h219l-397 -469l445 -571h-232l-358 496h-4z" />
    <glyph glyph-name="uni04A2" unicode="&#x4a2;" horiz-adv-x="1533" 
d="M1305 -328v328h-179v674h-743v-674h-188v1458h188v-618h743v618h191v-1290h168v-496h-180z" />
    <glyph glyph-name="uni04A3" unicode="&#x4a3;" horiz-adv-x="1212" 
d="M1006 -328v328h-140v451h-526v-451h-180v1040h180v-446h526v446h181v-897h139v-471h-180z" />
    <glyph glyph-name="uni04AE" unicode="&#x4ae;" horiz-adv-x="1257" 
d="M723 0h-188v604l-527 854h219l179 -301q104 -176 221 -385h4q117 209 221 385l180 301h217l-526 -854v-604z" />
    <glyph glyph-name="uni04AF" unicode="&#x4af;" horiz-adv-x="962" 
d="M571 -379h-180v361l-403 1058h192l148 -407q61 -164 151 -434h4q88 262 150 434l149 407h193l-404 -1058v-361z" />
    <glyph glyph-name="uni04B2" unicode="&#x4b2;" horiz-adv-x="1271" 
d="M1264 -328h-181v328h-51l-393 600h-4l-393 -600h-228l506 748l-477 710h221l371 -567h4l369 567h221l-477 -710l393 -580h119v-496z" />
    <glyph glyph-name="uni04B3" unicode="&#x4b3;" horiz-adv-x="983" 
d="M989 -328h-180v328h-37l-278 416h-5l-278 -416h-215l387 541l-354 499h213l247 -372h5l249 372h213l-354 -499l285 -398h102v-471z" />
    <glyph glyph-name="uni04B8" unicode="&#x4b8;" horiz-adv-x="1316" 
d="M1124 0h-190v606q-104 -33 -246 -45v-299h-168v293q-217 10 -331.5 123t-114.5 313v467h190v-438q0 -127 65.5 -202t190.5 -93v432h168v-432q131 8 246 45v688h190v-1458z" />
    <glyph glyph-name="uni04B9" unicode="&#x4b9;" horiz-adv-x="1067" 
d="M907 0h-180v414q-76 -23 -172 -33v-207h-139v201q-170 6 -260 90t-90 233v342h180v-315q0 -176 170 -203v328h139v-330q84 6 172 35v485h180v-1040z" />
    <glyph glyph-name="uni04BA" unicode="&#x4ba;" horiz-adv-x="1316" 
d="M383 1458v-606q171 51 391 51t344.5 -113.5t124.5 -322.5v-467h-188v438q0 145 -86 222t-259 77t-327 -49v-688h-188v1458h188z" />
    <glyph glyph-name="uni04BB" unicode="&#x4bb;" 
d="M653 1063q180 0 278.5 -108.5t98.5 -319.5v-635h-180v621q0 158 -61.5 226t-178 68t-193.5 -83.5t-77 -235.5v-596h-180v1458h180v-549h4q51 76 133 115t176 39z" />
    <glyph glyph-name="uni04C0" unicode="&#x4c0;" horiz-adv-x="577" 
d="M195 0v1458h188v-1458h-188z" />
    <glyph glyph-name="uni04CF" unicode="&#x4cf;" horiz-adv-x="499" 
d="M160 0v1458h180v-1458h-180z" />
    <glyph glyph-name="uni04D8" unicode="&#x4d8;" horiz-adv-x="1517" 
d="M754 143q200 0 329 130t148 358h-944q16 -231 142 -359q125 -128 325 -129zM1430 733q0 -225 -82 -397t-237 -268t-359 -96t-355 91q-149 91 -229 263t-80 403q0 49 2 66h1143q-9 254 -147 388t-355 134q-164 0 -270 -81t-133 -216h-207q53 278 311 404q128 62 322 62
t351 -92t241 -264t84 -397z" />
    <glyph glyph-name="uni04D9" unicode="&#x4d9;" horiz-adv-x="1126" 
d="M560 111q126 0 208 88t92 243h-596q10 -160 90 -246t206 -85zM1042 520q0 -160 -58 -284t-168 -194q-110 -71 -256 -71t-254 68q-108 67 -165 191t-57 290q0 23 4 51h774q-6 175 -93 267t-207 92t-185 -54q-66 -54 -84 -143h-187q29 145 144 241t297 95q231 1 363 -149
t132 -400z" />
    <glyph glyph-name="uni04E8" unicode="&#x4e8;" horiz-adv-x="1499" 
d="M749.5 137q200.5 0 325.5 136.5t146 373.5h-940q20 -238 144 -374t324.5 -136zM750 1321q-200 0 -324.5 -136t-144.5 -372h940q-20 236 -145.5 372t-325.5 136zM1411 729.5q0 -231.5 -81 -402.5t-230.5 -263.5t-350 -92.5t-350 92.5t-230.5 263.5t-81 402.5t81 402.5
t230.5 263t350 92t350 -92t230.5 -263t81 -402.5z" />
    <glyph glyph-name="uni04E9" unicode="&#x4e9;" horiz-adv-x="1159" 
d="M577.5 115q131.5 0 213 90t96.5 250h-619q14 -160 96 -250t213.5 -90zM577.5 926q-131.5 0 -213 -90.5t-96.5 -249.5h619q-14 160 -96 250t-213.5 90zM1073 520q0 -254 -133 -401.5t-362.5 -147.5t-361.5 147.5t-132 401.5t132 401.5t361.5 147.5t362.5 -147.5
t133 -401.5z" />
    <glyph glyph-name="Wgrave" unicode="&#x1e80;" horiz-adv-x="1875" 
d="M1245 0l-153 637q-84 346 -152 653h-4q-68 -307 -152 -653l-153 -637h-271l-340 1458h189l137 -590q47 -207 137 -620l15 -66h4q92 414 162 688l143 588h262l143 -588q70 -274 162 -688h4q63 309 152 686l137 590h188l-339 -1458h-271zM1073 1556h-155l-252 283h231z" />
    <glyph glyph-name="wgrave" unicode="&#x1e81;" horiz-adv-x="1576" 
d="M1028 0l-123 451q-23 86 -28 114q-49 182 -86 336h-5q-36 -153 -64 -259t-50 -191l-123 -451h-258l-277 1040h183l110 -434q49 -197 115 -467h4q55 233 115 457l118 444h259l118 -444l115 -457h4q66 270 115 467l110 434h183l-277 -1040h-258zM926 1165h-156l-252 293
h232z" />
    <glyph glyph-name="Wacute" unicode="&#x1e82;" horiz-adv-x="1875" 
d="M1245 0l-153 637q-84 346 -152 653h-4q-68 -307 -152 -653l-153 -637h-271l-340 1458h189l137 -590q47 -207 137 -620l15 -66h4q92 414 162 688l143 588h262l143 -588q70 -274 162 -688h4q63 309 152 686l137 590h188l-339 -1458h-271zM801 1556l176 283h231l-252 -283
h-155z" />
    <glyph glyph-name="wacute" unicode="&#x1e83;" horiz-adv-x="1576" 
d="M1028 0l-123 451q-23 86 -28 114q-49 182 -86 336h-5q-36 -153 -64 -259t-50 -191l-123 -451h-258l-277 1040h183l110 -434q49 -197 115 -467h4q55 233 115 457l118 444h259l118 -444l115 -457h4q66 270 115 467l110 434h183l-277 -1040h-258zM651 1165l176 293h232
l-252 -293h-156z" />
    <glyph glyph-name="Wdieresis" unicode="&#x1e84;" horiz-adv-x="1875" 
d="M1245 0l-153 637q-84 346 -152 653h-4q-68 -307 -152 -653l-153 -637h-271l-340 1458h189l137 -590q47 -207 137 -620l15 -66h4q92 414 162 688l143 588h262l143 -588q70 -274 162 -688h4q63 309 152 686l137 590h188l-339 -1458h-271zM1053 1587v203h168v-203h-168z
M653 1587v203h168v-203h-168z" />
    <glyph glyph-name="wdieresis" unicode="&#x1e85;" horiz-adv-x="1576" 
d="M1028 0l-123 451q-23 86 -28 114q-49 182 -86 336h-5q-36 -153 -64 -259t-50 -191l-123 -451h-258l-277 1040h183l110 -434q49 -197 115 -467h4q55 233 115 457l118 444h259l118 -444l115 -457h4q66 270 115 467l110 434h183l-277 -1040h-258zM903 1255v203h168v-203
h-168zM504 1255v203h168v-203h-168z" />
    <glyph glyph-name="Germandbls" unicode="&#x1e9e;" horiz-adv-x="1574" 
d="M789 1321q-207 0 -317 -113.5t-110 -339.5v-868h-188v866q0 299 163 459t466 160q174 0 320.5 -69.5t240.5 -190.5l-338 -361q455 -94 455 -471q0 -201 -129 -309.5t-347 -108.5t-333 101.5t-115 294.5h186q0 -113 67 -172.5t196 -59.5t203.5 65.5t74.5 190.5
q0 158 -117.5 239t-351.5 99v139l309 330q-128 119 -335 119z" />
    <glyph glyph-name="Ygrave" unicode="&#x1ef2;" horiz-adv-x="1257" 
d="M723 0h-188v604l-527 854h219l179 -301q104 -176 221 -385h4q117 209 221 385l180 301h217l-526 -854v-604zM766 1556h-156l-252 283h232z" />
    <glyph glyph-name="ygrave" unicode="&#x1ef3;" horiz-adv-x="966" 
d="M160 -387q-88 0 -121 10v152q37 -12 96.5 -12.5t103.5 20t76.5 70t67.5 143.5l-395 1044h194l299 -827h4l303 827h191l-418 -1087q-51 -135 -107.5 -208t-131 -102.5t-162.5 -29.5zM621 1165h-156l-252 293h231z" />
    <glyph glyph-name="uni2010" unicode="&#x2010;" horiz-adv-x="614" 
d="M61 518v160h492v-160h-492z" />
    <glyph glyph-name="endash" unicode="&#x2013;" horiz-adv-x="1024" 
d="M41 518v160h942v-160h-942z" />
    <glyph glyph-name="emdash" unicode="&#x2014;" horiz-adv-x="2048" 
d="M41 518v160h1966v-160h-1966z" />
    <glyph glyph-name="uni2015" unicode="&#x2015;" horiz-adv-x="2048" 
d="M41 518v160h1966v-160h-1966z" />
    <glyph glyph-name="underscoredbl" unicode="&#x2017;" horiz-adv-x="1024" 
d="M0 -467v100h1024v-100h-1024zM0 -203v101h1024v-101h-1024z" />
    <glyph glyph-name="quoteleft" unicode="&#x2018;" horiz-adv-x="485" 
d="M346 1184v-221h-205v221l99 274h108l-72 -274h70z" />
    <glyph glyph-name="quoteright" unicode="&#x2019;" horiz-adv-x="485" 
d="M141 1237v221h203v-221l-98 -274h-109l72 274h-68z" />
    <glyph glyph-name="quotesinglbase" unicode="&#x201a;" horiz-adv-x="485" 
d="M141 0v221h203v-221l-98 -274h-109l72 274h-68z" />
    <glyph glyph-name="quotereversed" unicode="&#x201b;" horiz-adv-x="485" 
d="M346 1237h-70l72 -274h-108l-99 274v221h205v-221z" />
    <glyph glyph-name="quotedblleft" unicode="&#x201c;" horiz-adv-x="815" 
d="M674 1184v-221h-203v221l98 274h107l-72 -274h70zM346 1184v-221h-205v221l99 274h108l-72 -274h70z" />
    <glyph glyph-name="quotedblright" unicode="&#x201d;" horiz-adv-x="815" 
d="M141 1237v221h203v-221l-98 -274h-109l72 274h-68zM471 1237v221h203v-221l-99 -274h-108l72 274h-68z" />
    <glyph glyph-name="quotedblbase" unicode="&#x201e;" horiz-adv-x="815" 
d="M141 0v221h203v-221l-98 -274h-109l72 274h-68zM471 0v221h203v-221l-99 -274h-108l72 274h-68z" />
    <glyph glyph-name="dagger" unicode="&#x2020;" horiz-adv-x="1097" 
d="M987 1069v-151h-346v-1164h-184v1164h-346v151h346v389h184v-389h346z" />
    <glyph glyph-name="daggerdbl" unicode="&#x2021;" horiz-adv-x="1097" 
d="M987 1071v-151h-346v-541h346v-152h-346v-473h-184v473h-346v152h346v541h-346v151h346v387h184v-387h346z" />
    <glyph glyph-name="bullet" unicode="&#x2022;" horiz-adv-x="686" 
d="M109 730q0 97 68.5 166t165.5 69t166 -69t69 -166t-69 -166.5t-166 -69.5t-165.5 69.5t-68.5 166.5z" />
    <glyph glyph-name="ellipsis" unicode="&#x2026;" horiz-adv-x="1542" 
d="M121 0v240h221v-240h-221zM662 0v240h221v-240h-221zM1200 0v240h221v-240h-221z" />
    <glyph glyph-name="perthousand" unicode="&#x2030;" horiz-adv-x="2076" 
d="M1612 311.5q0 -104.5 34 -161t94 -56.5t94 56.5t34 161t-34 160.5t-94 56t-94 -56t-34 -160.5zM938 311.5q0 -104.5 34 -161t94 -56.5t94 56.5t34 161t-34 160.5t-94 56t-94 -56t-34 -160.5zM2015 311.5q0 -161.5 -71.5 -250t-203.5 -88.5t-205 88.5t-73 250t73 249.5
t205 88t203.5 -88t71.5 -249.5zM1343 311.5q0 -161.5 -72.5 -250t-204.5 -88.5t-203.5 88.5t-71.5 250t71.5 249.5t203.5 88t204.5 -88t72.5 -249.5zM209 1071.5q0 -104.5 33.5 -161t93.5 -56.5t94.5 56.5t34.5 161t-34.5 160.5t-94.5 56t-93.5 -56t-33.5 -160.5zM612 1071
q0 -162 -71.5 -251t-203.5 -89t-204 89t-72 251t72 250t204 88t203.5 -88t71.5 -250zM199 -61l864 1503h143l-864 -1503h-143z" />
    <glyph glyph-name="minute" unicode="&#x2032;" horiz-adv-x="380" 
d="M61 920l84 460h174l-141 -460h-117z" />
    <glyph glyph-name="second" unicode="&#x2033;" horiz-adv-x="675" 
d="M369 920l84 460h174l-142 -460h-116zM61 920l84 460h174l-141 -460h-117z" />
    <glyph glyph-name="guilsinglleft" unicode="&#x2039;" horiz-adv-x="598" 
d="M500 111h-168l-234 409l234 410h168l-228 -410z" />
    <glyph glyph-name="guilsinglright" unicode="&#x203a;" horiz-adv-x="598" 
d="M500 520l-234 -409h-168l228 409l-228 410h168z" />
    <glyph glyph-name="exclamdbl" unicode="&#x203c;" horiz-adv-x="1024" 
d="M637 0v217h213v-217h-213zM670 358l-43 1100h231l-43 -1100h-145zM176 0v217h213v-217h-213zM209 358l-43 1100h231l-43 -1100h-145z" />
    <glyph glyph-name="interrobang" unicode="&#x203d;" horiz-adv-x="1056" 
d="M627 217v-217h-211v217h211zM784 986q0 71 -46 117t-130 60l-16 -481h4l68 68q75 73 97.5 119t22.5 117zM977 993q0 -76 -24.5 -156t-192.5 -210q-72 -55 -103.5 -90t-45 -79t-13.5 -120h-147l-25 813q-158 -47 -170 -231h-188q8 170 99 271t253 130l-4 137h202l-4 -131
q166 -16 264.5 -106.5t98.5 -227.5z" />
    <glyph glyph-name="overline" unicode="&#x203e;" horiz-adv-x="1024" 
d="M0 1614v133h1024v-133h-1024z" />
    <glyph glyph-name="fraction" unicode="&#x2044;" horiz-adv-x="301" 
d="M-317 0l786 1380h152l-789 -1380h-149z" />
    <glyph glyph-name="zero.superior" unicode="&#x2070;" horiz-adv-x="888" 
d="M240 1158q0 -179 53 -275.5t151.5 -96.5t150.5 96.5t52 275.5t-52 274.5t-150.5 95.5t-151.5 -95.5t-53 -274.5zM815 1159q0 -244 -95 -374t-275.5 -130t-275.5 130t-95 374t95 374t275.5 130t275.5 -130t95 -374z" />
    <glyph glyph-name="four.superior" unicode="&#x2074;" horiz-adv-x="831" 
d="M489 1042v125q0 109 5 334h-2q-82 -123 -211 -307l-107 -152h315zM643 911v-235h-156v235h-464v142l411 589h209v-600h166v-131h-166z" />
    <glyph glyph-name="five.superior" unicode="&#x2075;" horiz-adv-x="847" 
d="M460 1315q136 0 224 -86t88 -237t-96 -244t-255 -93t-251 76t-92 207h164q2 -70 50 -110t130 -40t133 54.5t51 146.5t-50 144.5t-126 52.5q-150 0 -184 -127l-160 8l55 575h584v-135h-449l-24 -264h4q68 72 204 72z" />
    <glyph glyph-name="six.superior" unicode="&#x2076;" horiz-adv-x="854" 
d="M254 983q0 -88 50 -141.5t133 -53.5t134.5 55.5t51.5 142.5t-50.5 139.5t-133.5 52.5t-134 -53.5t-51 -141.5zM464 1307q148 0 235 -87t87 -234t-97 -239t-263 -92t-259 118.5t-93 364.5t99 385.5t280 139.5q139 0 224 -73.5t97 -203.5h-166q-25 143 -159 144
q-207 0 -222 -334h4q85 111 233 111z" />
    <glyph glyph-name="seven.superior" unicode="&#x2077;" horiz-adv-x="749" 
d="M23 1503v139h704v-137q-117 -159 -207 -373t-137 -456h-180q61 260 156.5 471t201.5 356h-538z" />
    <glyph glyph-name="eight.superior" unicode="&#x2078;" horiz-adv-x="854" 
d="M231 947q0 -73 53.5 -116t141.5 -43t141.5 43t53.5 116t-53.5 117t-140.5 44t-141.5 -44t-54.5 -117zM246 1386q0 -66 49 -107.5t131 -41.5t131 41.5t49 107.5t-50 105t-130 39t-130 -39t-50 -105zM88 1395q0 119 94 193.5t243.5 74.5t244 -75t94.5 -193
q0 -150 -168 -217v-4q188 -59 188 -234q0 -129 -98 -207t-260 -78t-259 78t-97 207q0 175 188 234v4q-170 70 -170 217z" />
    <glyph glyph-name="nine.superior" unicode="&#x2079;" horiz-adv-x="854" 
d="M600 1336q0 87 -50 140.5t-133 53.5t-134.5 -55.5t-51.5 -142.5t50.5 -139t132.5 -52t134 54t52 141zM66 1334q0 146 97 237.5t263 91.5t260 -118.5t94 -364.5t-100 -385.5t-281 -139.5q-139 0 -223 74t-96 203h166q23 -143 157 -144q100 0 157.5 83t64.5 251h-4
q-83 -110 -231 -110t-236 88t-88 234z" />
    <glyph glyph-name="plussuperior" unicode="&#x207a;" horiz-adv-x="835" 
d="M733 1194v-129h-252v-242h-129v242h-252v129h252v244h129v-244h252z" />
    <glyph glyph-name="uni207B" unicode="&#x207b;" horiz-adv-x="835" 
d="M100 1065v129h633v-129h-633z" />
    <glyph glyph-name="equalsuperior" unicode="&#x207c;" horiz-adv-x="835" 
d="M100 940v127h633v-127h-633zM100 1192v127h633v-127h-633z" />
    <glyph glyph-name="parenleftsuperior" unicode="&#x207d;" horiz-adv-x="450" 
d="M72 1101q0 345 202 638h134q-89 -162 -127.5 -313.5t-38.5 -407t166 -553.5h-134q-202 291 -202 636z" />
    <glyph glyph-name="parenrightsuperior" unicode="&#x207e;" horiz-adv-x="450" 
d="M209 1104q0 322 -166 635h133q201 -286 201 -638.5t-201 -635.5h-133q166 317 166 639z" />
    <glyph glyph-name="zero.inferior" unicode="&#x2080;" horiz-adv-x="888" 
d="M238 130q0 -179 53 -275q53 -97 151 -97t150 96t53 276q0 179 -52 274q-53 95 -151 95t-151 -95t-53 -274zM813 131q0 -244 -95 -374q-96 -130 -276 -130t-275 130t-95 374t95 374t275 130t276 -130q95 -130 95 -374z" />
    <glyph glyph-name="one.inferior" unicode="&#x2081;" horiz-adv-x="561" 
d="M250 -352v680h-230v123q123 0 182 37q58 38 72 126h138v-966h-162z" />
    <glyph glyph-name="two.inferior" unicode="&#x2082;" horiz-adv-x="860" 
d="M766 363q0 -119 -70 -193t-207 -148t-184 -124q-47 -51 -49 -115h532v-135h-708q-2 12 -2 74q0 156 109 265q63 62 185 129q122 68 173 116t51 118t-44 110t-118 40q-168 0 -178 -176h-166q4 145 97 228t245 83t243 -76t91 -196z" />
    <glyph glyph-name="three.inferior" unicode="&#x2083;" horiz-adv-x="847" 
d="M608 -90q0 162 -223 162h-35v129h35q96 0 153 42q56 43 56 111t-48 107t-130 39q-178 0 -178 -178h-164q0 147 92 230t252 83t250 -73t90 -193q0 -81 -40 -135t-128 -89v-4q96 -35 139 -90t43 -145q0 -125 -97 -202t-261 -77t-257 83t-94 235h164q0 -184 195 -185
q82 0 134 42t52 108z" />
    <glyph glyph-name="four.inferior" unicode="&#x2084;" horiz-adv-x="831" 
d="M487 14v125q0 109 5 334h-3q-82 -123 -210 -307l-107 -152h315zM641 -117v-235h-156v235h-465v142l412 589h209v-600h166v-131h-166z" />
    <glyph glyph-name="five.inferior" unicode="&#x2085;" horiz-adv-x="847" 
d="M772 -36q0 -151 -96 -244t-255 -93t-251 76t-92 207h164q2 -70 50 -110t130 -40t133 54t51 147q0 92 -50 144q-50 53 -126 53q-149 1 -184 -127l-160 8l55 575h584v-135h-449l-24 -264h4q66 70 203 71t225 -85t88 -237z" />
    <glyph glyph-name="six.inferior" unicode="&#x2086;" horiz-adv-x="854" 
d="M252 -45q0 -88 50 -141q50 -54 133 -54t134 56t51 142q0 87 -50 139t-133 52t-134 -53t-51 -141zM462 279q148 1 235 -87t87 -234t-97 -239q-97 -92 -263 -92t-259 119q-93 118 -93 364t99 386t280 139q139 0 224 -74t97 -203h-166q-25 143 -160 144q-207 0 -221 -334h4
q85 111 233 111z" />
    <glyph glyph-name="seven.inferior" unicode="&#x2087;" horiz-adv-x="749" 
d="M20 475v139h705v-137q-249 -340 -344 -829h-180q61 260 156 471t202 356h-539z" />
    <glyph glyph-name="eight.inferior" unicode="&#x2088;" horiz-adv-x="854" 
d="M426 -240q88 0 141 43t53 116t-52 117q-54 44 -141 44t-141 -44t-54 -117t52 -116q54 -43 142 -43zM246 357q0 -67 49 -107t131 -41q82 0 131 41t49 107q0 65 -50 105t-130 40t-130 -39t-50 -106zM88 367q0 119 94 193t244 75q150 0 244 -75t94 -193q0 -148 -168 -217v-5
q188 -59 188 -233q0 -129 -98 -207t-260 -78t-259 78t-97 207q0 174 188 233v5q-170 70 -170 217z" />
    <glyph glyph-name="nine.inferior" unicode="&#x2089;" horiz-adv-x="854" 
d="M600 308q0 86 -50 140t-133 54t-134 -56t-51 -142q0 -87 50 -139t132 -52t134 54t52 141zM66 306q0 146 97 237q97 92 263 92t260 -119q94 -118 94 -364t-100 -385t-281 -140q-139 0 -223 74t-96 203h166q23 -143 157 -144q100 0 158 83q57 83 64 251h-4
q-83 -110 -231 -110t-236 88t-88 234z" />
    <glyph glyph-name="uni208A" unicode="&#x208a;" horiz-adv-x="837" 
d="M735 166v-129h-252v-242h-129v242h-252v129h252v244h129v-244h252z" />
    <glyph glyph-name="uni208B" unicode="&#x208b;" horiz-adv-x="837" 
d="M102 37v129h633v-129h-633z" />
    <glyph glyph-name="uni208C" unicode="&#x208c;" horiz-adv-x="837" 
d="M102 -88v127h633v-127h-633zM102 164v127h633v-127h-633z" />
    <glyph glyph-name="uni208D" unicode="&#x208d;" horiz-adv-x="450" 
d="M242 71q0 -334 166 -634h-134q-202 291 -202 637t202 637h134q-166 -306 -166 -640z" />
    <glyph glyph-name="uni208E" unicode="&#x208e;" horiz-adv-x="450" 
d="M209 75q0 323 -166 636h133q201 -286 201 -638q0 -353 -201 -636h-133q166 315 166 638z" />
    <glyph glyph-name="uni2099" unicode="&#x2099;" horiz-adv-x="864" 
d="M760 92v-444h-156v432q0 102 -39 145t-118 43t-130 -55t-51 -158v-407h-153v729h147v-90h4q35 47 93 77t130 29q131 0 202 -77t71 -224z" />
    <glyph glyph-name="franc" unicode="&#x20a3;" horiz-adv-x="1150" 
d="M412 827h628v-165h-628v-242h354v-150h-354v-270h-191v270h-172v150h172v960h864v-168h-673v-385z" />
    <glyph glyph-name="lira" unicode="&#x20a4;" horiz-adv-x="1150" 
d="M49 158q199 0 199 274v62h-199v118h199v117h-199v119h199v115q0 221 109 333.5t305 112.5t303.5 -112.5t107.5 -309.5h-182q0 125 -58.5 191.5t-168.5 66.5t-170 -71.5t-60 -210.5v-115h256v-119h-256v-117h256v-118h-256v-60q0 -109 -25.5 -171t-82.5 -103v-4h737v-156
h-1014v158z" />
    <glyph glyph-name="peseta" unicode="&#x20a7;" horiz-adv-x="1718" 
d="M934 940q0 131 -83 204t-247 73h-221v-553h221q164 0 247 72.5t83 203.5zM1446 309q0 -169 126 -167q60 0 91 10v-148q-45 -12 -113 -12q-150 0 -217 69.5t-67 229.5v606h-138q-14 -184 -145 -290.5t-362 -106.5h-238v-500h-188v1380h426q213 0 342 -90t159 -250h144v252
h180v-252h207v-143h-207v-588z" />
    <glyph glyph-name="Euro" unicode="&#x20ac;" horiz-adv-x="1150" 
d="M635 -29q-213 0 -348 137.5t-168 397.5h-117l23 119h84l-3 65v51h-104l23 119h92q33 266 168 407.5t351 141.5t339 -114.5t139 -325.5h-186q-14 133 -88 204.5t-205 71.5t-216 -98t-112 -287h524l-22 -119h-512v-51q0 -45 2 -65h487l-22 -119h-455q29 -182 113 -276.5
t212 -94.5t203.5 74t94.5 211h188q-22 -215 -147 -332t-338 -117z" />
    <glyph glyph-name="uni20B9" unicode="&#x20b9;" horiz-adv-x="1150" 
d="M240 596h-33v137h88q150 0 244 55.5t120 149.5h-602l37 133h570q-41 176 -351 176h-256l37 133h1002l-37 -133h-332v-4q114 -45 139 -172h230l-37 -133h-193q-20 -113 -110 -189.5t-234 -103.5v-4q72 -29 126 -89t106 -165l190 -387h-215l-172 360q-59 127 -134 181.5
t-183 54.5z" />
    <glyph glyph-name="uni20BA" unicode="&#x20ba;" horiz-adv-x="1150" 
d="M410 -10q-84 0 -181 10v561l-188 -102v145l188 103v176l-188 -103v146l188 102v352h189v-264l344 187v-146l-344 -186v-174l344 186v-145l-344 -187v-491q236 0 361.5 124t125.5 367h195q0 -325 -179.5 -493t-510.5 -168z" />
    <glyph glyph-name="uni20BC" unicode="&#x20bc;" horiz-adv-x="1343" 
d="M582 1458h178v-227q254 -12 371.5 -153.5t117.5 -442.5v-635h-178v631q0 223 -71.5 320.5t-239.5 105.5v-1057h-178v1057q-166 -8 -238 -105.5t-72 -320.5v-631h-178v635q0 301 118 442.5t370 153.5v227z" />
    <glyph glyph-name="uni20BD" unicode="&#x20bd;" horiz-adv-x="1150" 
d="M377 709h235q143 0 217 68.5t74 191.5t-73.5 191.5t-217.5 68.5h-235v-520zM1096 968q0 -192 -121 -302.5t-348 -110.5h-250v-137h403v-150h-403v-268h-187v268h-165v150h165v137h-165v154h165v671h437q227 0 348 -110t121 -302z" />
    <glyph glyph-name="uni2105" unicode="&#x2105;" horiz-adv-x="1822" 
d="M412 1282q-82 0 -136 -70t-53 -188q0 -118 53 -188q54 -70 134 -70t128 49t52 121h162q-10 -131 -100 -214t-244 -83t-251 103q-97 104 -97 282t96 282q98 104 252 103q154 0 244 -82q89 -82 100 -203h-162q-4 62 -50 110t-128 48zM426 0l786 1380h152l-789 -1380h-149z
M1198 356q0 -120 53 -190t149 -70t149 70q55 70 55 190t-54 191q-54 70 -150 70t-149 -70t-53 -191zM1765 356q0 -180 -98 -282t-267 -102t-268 102q-99 104 -100 282q0 178 100 282t268 103q169 0 267 -103q98 -102 98 -282z" />
    <glyph glyph-name="uni2113" unicode="&#x2113;" horiz-adv-x="901" 
d="M635 1014q0 266 -129 266q-60 0 -85.5 -55.5t-25.5 -204.5v-483q240 94 240 477zM395 305q1 -182 137 -182q64 0 117 14v-137q-63 -18 -143 -18q-150 0 -220.5 77.5t-70.5 243.5v90q-53 0 -115 15v110q70 -12 115 -12v479q0 307 88 365.5t180 58.5q123 0 198 -95.5
t75 -325.5t-95.5 -378.5t-265.5 -195.5v-109z" />
    <glyph glyph-name="uni2116" unicode="&#x2116;" horiz-adv-x="2336" 
d="M1581 219v143h660v-143h-660zM1710 876.5q0 -120.5 54.5 -191.5t148.5 -71t148.5 71t54.5 191.5t-54.5 189.5t-148.5 69t-148.5 -69t-54.5 -189.5zM2277 875q0 -178 -97 -282t-267 -104t-269.5 104.5t-99.5 282.5t99.5 281t268.5 103t267 -103.5t98 -281.5zM379 584v-584
h-184v1458h276l348 -629q207 -377 352 -653h5q-6 350 -7 698v584h185v-1458h-279l-346 629q-197 352 -352 653h-4q6 -350 6 -698z" />
    <glyph glyph-name="uni2117" unicode="&#x2117;" horiz-adv-x="1658" 
d="M1098 895q0 170 -217 170h-183v-340h183q217 0 217 170zM1253 896q0 -142 -94 -223t-268 -81h-193v-356h-151v962h344q174 0 268 -80t94 -222zM188 729q0 -197 80 -345t225.5 -230t336 -82t336 82t225 230t79.5 345t-79.5 345.5t-225 230t-336 81.5t-336 -81.5
t-225.5 -230t-80 -345.5zM1565 729q0 -223 -92.5 -394t-259 -265.5t-384 -94.5t-384 94.5t-258 265.5t-91.5 394t91.5 394t258 265.5t384 94.5t384 -94.5t259 -265.5t92.5 -394z" />
    <glyph glyph-name="trademark" unicode="&#x2122;" horiz-adv-x="1640" 
d="M1413 729v348q0 174 2 258h-4q-19 -71 -82 -256l-117 -350h-157l-115 350q-25 68 -66 203l-16 53h-4l2 -258v-348h-131v729h215l131 -395q35 -113 59 -199h5q12 35 32 109l162 485h215v-729h-131zM385 1337v-608h-137v608h-238v121h613v-121h-238z" />
    <glyph glyph-name="Omega" unicode="&#x2126;" horiz-adv-x="1492" 
d="M1393 842q0 -197 -85 -355t-241 -317v-4h348v-166h-541v172q156 160 239 310t83 339q0 242 -123 368t-327 126t-326 -126t-123 -368q0 -188 83 -339t238 -310v-172h-540v166h348v4q-156 160 -241 318t-85 354q0 317 176 481t470 164t471 -164q176 -164 176 -481z" />
    <glyph glyph-name="estimated" unicode="&#x212e;" horiz-adv-x="1761" 
d="M1346 715q26 0 26 24v342q0 55 -31 84q-193 190 -463 190t-460 -190q-31 -31 -31 -84v-342q0 -24 27 -24h932zM1665 670h-1251q-12 0 -19.5 -8.5t-7.5 -18.5v-340q0 -64 31 -90q190 -186 465 -186q147 0 276 61.5t211 161.5h141q-82 -113 -241.5 -194t-391.5 -81
t-409.5 91.5t-275 253t-97.5 367.5t95.5 370t273.5 258t417.5 94t417 -100.5t271.5 -269.5t94 -369z" />
    <glyph glyph-name="oneeighth" unicode="&#x215b;" horiz-adv-x="1538" 
d="M211 553v569h-193v119q100 0 151 33q50 33 64 106h136v-827h-158zM172 0l786 1380h152l-788 -1380h-150zM1006 236q0 -56 43 -92t115 -36t117 36q44 34 44 92t-45 92q-46 35 -116 35t-114 -35t-44 -92zM1016 606q0 -53 40 -86t108 -33t109 32q40 32 40 86t-41 84
q-42 30 -108 30t-107 -30t-41 -83zM866 612q0 104 83 169t215 65t215 -65t83 -169q0 -126 -139 -182v-2q158 -49 158 -201q0 -113 -87 -179q-86 -66 -230 -66t-229 66t-85 179q0 152 158 201v2q-142 56 -142 182z" />
    <glyph glyph-name="threeeighths" unicode="&#x215c;" horiz-adv-x="1796" 
d="M666 1169q0 -69 -33 -113t-107 -75v-4q82 -29 118 -77t36 -126q0 -108 -85 -174t-231 -66t-228 74q-83 72 -83 203h158q0 -147 160 -147q69 0 111 32t42 89t-48 91t-140 33h-27v125h27q80 0 128 33t48 88t-39 85t-106 30q-150 0 -150 -140h-154q0 127 82 198
q81 70 221 70t220 -62t80 -167zM428 0l786 1380h152l-788 -1380h-150zM1264 236q0 -56 43 -92t115 -36t117 36q44 34 44 92t-45 92q-46 35 -116 35t-114 -35t-44 -92zM1274 606q0 -53 40 -86t108 -33t109 32q40 32 40 86t-41 84q-42 30 -108 30t-107 -30t-41 -83zM1124 612
q0 104 83 169t215 65t215 -65t83 -169q0 -126 -139 -182v-2q158 -49 158 -201q0 -113 -87 -179q-86 -66 -230 -66t-229 66t-85 179q0 152 158 201v2q-142 56 -142 182z" />
    <glyph glyph-name="fiveeighths" unicode="&#x215d;" horiz-adv-x="1796" 
d="M410 1104q118 0 195 -77t77 -206t-86 -208t-225 -79t-221 66t-82 180h155q2 -55 42 -87q40 -31 108 -31q69 0 111 43t42 117t-42 115q-42 42 -104 42q-123 0 -151 -102l-153 10l47 493h516v-131h-385l-21 -202h3q56 57 174 57zM430 0l787 1380h151l-788 -1380h-150z
M1264 236q0 -56 43 -92t115 -36t117 36q44 34 44 92t-45 92q-46 35 -116 35t-114 -35t-44 -92zM1274 606q0 -53 40 -86t108 -33t109 32q40 32 40 86t-41 84q-42 30 -108 30t-107 -30t-41 -83zM1124 612q0 104 83 169t215 65t215 -65t83 -169q0 -126 -139 -182v-2
q158 -49 158 -201q0 -113 -87 -179q-86 -66 -230 -66t-229 66t-85 179q0 152 158 201v2q-142 56 -142 182z" />
    <glyph glyph-name="seveneighths" unicode="&#x215e;" horiz-adv-x="1601" 
d="M18 1249v131h617v-131q-98 -129 -175 -312t-118 -384h-166q51 219 132 398t167 298h-457zM236 0l786 1380h152l-789 -1380h-149zM1069 236q0 -56 43 -92t116 -36t117 36q44 34 44 92q1 58 -45 92q-46 35 -116 35t-115 -35q-44 -35 -44 -92zM1079 606q0 -53 40 -86
t109 -33q68 0 108 32t40 86t-41 84t-107 30t-108 -30q-41 -30 -41 -83zM930 612q0 104 83 169t215 65t215 -65t83 -169q0 -126 -140 -182v-2q158 -49 158 -201q0 -113 -87 -179t-230 -66t-229 66q-85 67 -85 179q0 152 158 201v2q-141 56 -141 182z" />
    <glyph glyph-name="Sevenroman" unicode="&#x2166;" horiz-adv-x="2390" 
d="M516 0l-502 1458h197l223 -649q72 -207 203 -625h4q111 356 205 625l221 649h199l-504 -1458h-246zM1432 0v1458h188v-1458h-188zM2009 0v1458h189v-1458h-189z" />
    <glyph glyph-name="partialdiff" unicode="&#x2202;" horiz-adv-x="1230" 
d="M285 458q0 -156 72.5 -240.5t211.5 -84.5t222 103.5t83 257.5t-76.5 242.5t-212.5 88.5t-218 -105.5t-82 -261.5zM1092 770q0 -272 -70 -450.5t-188.5 -263.5t-268.5 -85q-225 0 -348 132.5t-123 351.5q0 147 57.5 267t166 188.5t240.5 68.5t216 -49t125 -123h4
q2 18 2 59q0 137 -42 241.5t-118.5 161t-177.5 56.5q-205 0 -233 -209h-191q18 172 123 271.5t295 99.5q258 0 394.5 -183.5t136.5 -533.5z" />
    <glyph glyph-name="Delta" unicode="&#x2206;" horiz-adv-x="1382" 
d="M903 733q-125 344 -211 594h-4q-86 -250 -211 -594l-207 -565h840zM10 0l555 1458h256l553 -1458h-1364z" />
    <glyph glyph-name="product" unicode="&#x220f;" horiz-adv-x="1353" 
d="M971 -246v1536h-588v-1536h-188v1704h964v-1704h-188z" />
    <glyph glyph-name="summation" unicode="&#x2211;" horiz-adv-x="995" 
d="M924 -80v-166h-852v166l415 680l-415 692v166h852v-166h-643l409 -692l-409 -680h643z" />
    <glyph glyph-name="minus" unicode="&#x2212;" horiz-adv-x="1159" 
d="M145 573v150h869v-150h-869z" />
    <glyph glyph-name="uni2215" unicode="&#x2215;" horiz-adv-x="935" 
d="M61 -182l609 1708h161l-608 -1708h-162z" />
    <glyph glyph-name="uni2219" unicode="&#x2219;" horiz-adv-x="704" 
d="M242 506v239h221v-239h-221z" />
    <glyph glyph-name="radical" unicode="&#x221a;" horiz-adv-x="1177" 
d="M51 590v147h289l195 -813h4l436 1534h162l-488 -1704h-233l-197 836h-168z" />
    <glyph glyph-name="infinity" unicode="&#x221e;" horiz-adv-x="1288" 
d="M1108 631q0 78 -41 122t-111 44t-122 -43t-109 -123q57 -80 109 -123t122 -43t111 44t41 122zM330 797q-70 0 -110 -44t-40 -122t40 -122t110 -44t122 42t111 124q-59 82 -111 124t-122 42zM1257 631q0 -139 -79.5 -225.5t-197.5 -86.5t-192.5 52.5t-144.5 144.5
q-68 -92 -143.5 -144.5t-193.5 -52.5t-196.5 86.5t-78.5 225.5t78.5 225t196.5 86t193.5 -52t143.5 -145q70 92 144.5 144.5t192.5 52.5t197.5 -86t79.5 -225z" />
    <glyph glyph-name="integral" unicode="&#x222b;" horiz-adv-x="643" 
d="M412 -90q0 -299 -287 -299q-61 0 -102 10v139q17 -6 77 -6q130 0 131 176v1239q0 150 73 224.5t212 74.5q64 0 105 -10v-139q-18 6 -78 6q-131 0 -131 -176v-1239z" />
    <glyph glyph-name="approxequal" unicode="&#x2248;" horiz-adv-x="1159" 
d="M781 434q48 0 81 42t33 114h129q0 -135 -67.5 -218t-182.5 -83q-66 0 -117 27.5t-107 72.5t-90 64.5t-82 19.5t-81 -43t-33 -115h-129q0 135 67.5 218t182.5 83q66 0 115 -25.5t107 -71.5t92 -65.5t82 -19.5zM781 825q48 0 81 43t33 115h129q0 -135 -67.5 -218
t-182.5 -83q-63 0 -114.5 26.5t-108.5 71.5t-91 64.5t-82 19.5t-81 -42t-33 -113h-129q0 135 67.5 218t182.5 83q66 0 114 -26t107 -73t93 -66.5t82 -19.5z" />
    <glyph glyph-name="notequal" unicode="&#x2260;" horiz-adv-x="1159" 
d="M1014 555v-152h-510l-164 -260h-154l164 260h-205v152h299l117 186h-416v152h510l164 260h156l-164 -260h203v-152h-297l-119 -186h416z" />
    <glyph glyph-name="lessequal" unicode="&#x2264;" horiz-adv-x="1159" 
d="M1014 0h-869v147h869v-147zM313 672v-4l701 -277v-158l-869 340v195l869 338v-158z" />
    <glyph glyph-name="greaterequal" unicode="&#x2265;" horiz-adv-x="1159" 
d="M145 0v147h869v-147h-869zM1014 573l-869 -340v158l701 277v4l-701 276v158l869 -338v-195z" />
    <glyph glyph-name="lozenge" unicode="&#x25ca;" horiz-adv-x="1222" 
d="M612 131l342 598l-342 598l-344 -598zM729 0h-235l-412 729l412 729h235l412 -729z" />
    <glyph glyph-name="uniF8FF" unicode="&#xf8ff;" horiz-adv-x="1275" 
d="M510 133v186h192v-186h-192zM983 1022q0 -86 -33 -145q-32 -59 -112 -130t-109 -110t-39 -88t-10 -135h-148v55q0 123 30 189t115 145q85 80 106 120q22 41 22 105t-46 106t-126 42q-182 0 -193 -201h-172q8 170 102 259t258 89q163 0 259 -82t96 -219zM141 1323v-1188
q0 -78 45 -123t123 -45h658q78 0 123 45t45 123v1188q0 78 -45 123t-123 45h-658q-78 0 -123 -45t-45 -123zM1235 1323v-1188q0 -125 -72 -197t-196 -71h-658q-123 0 -195 72t-73 196v1188q0 125 73 197t195 71h658q124 1 196 -71t72 -197z" />
    <glyph glyph-name="ff" unicode="&#xfb00;" horiz-adv-x="1183" 
d="M946 1149v-109h207v-143h-207v-897h-178v897h-381v-897h-178v897h-182v143h182v129q0 150 73 225t212 74q63 0 104 -10v-139q-18 6 -78 6t-96 -41q-37 -41 -37 -135v-109h381v129q0 150 73 225t212 74q59 0 104 -10v-139q-20 6 -59 6q-78 0 -115 -41t-37 -135z" />
    <glyph glyph-name="fi" unicode="&#xfb01;" horiz-adv-x="1124" 
d="M965 1040v-1040h-181v1040h181zM965 1255h-181v203h181v-203zM209 1169q0 299 285 299q63 0 104 -10v-139q-18 6 -78 6t-96.5 -41t-36.5 -135v-109h207v-143h-207v-897h-178v897h-182v143h182v129z" />
    <glyph glyph-name="fl" unicode="&#xfb02;" horiz-adv-x="1124" 
d="M387 1149v-109h207v-143h-207v-897h-178v897h-182v143h182v129q0 150 73 225t212 74q63 0 104 -10v-139q-18 6 -78 6t-96 -41q-37 -41 -37 -135zM784 0v1458h181v-1458h-181z" />
    <glyph glyph-name="ffi" unicode="&#xfb03;" horiz-adv-x="1683" 
d="M1524 1040v-1040h-181v1040h181zM1524 1255h-181v203h181v-203zM1098 1325q-78 0 -115 -41t-37 -135v-109h207v-143h-207v-897h-178v897h-381v-897h-178v897h-182v143h182v129q0 150 73 225t212 74q63 0 104 -10v-139q-18 6 -78 6t-96 -41q-37 -41 -37 -135v-109h381v129
q0 150 73 225t212 74q59 0 104 -10v-139q-20 6 -59 6z" />
    <glyph glyph-name="ffl" unicode="&#xfb04;" horiz-adv-x="1683" 
d="M1524 0h-181v1458h181v-1458zM768 1169q0 299 285 299q59 0 104 -10v-139q-20 6 -59 6q-78 0 -115 -41t-37 -135v-109h207v-143h-207v-897h-178v897h-381v-897h-178v897h-182v143h182v129q0 299 285 299q63 0 104 -10v-139q-18 6 -78 6t-96.5 -41t-36.5 -135v-109h381
v129z" />
    <glyph glyph-name="uniFEFF" unicode="&#xfeff;" horiz-adv-x="0" 
 />
    <glyph glyph-name="J.acute.loclNLD" horiz-adv-x="729" 
d="M133 -10q-61 0 -102 12v168q55 -10 88 -10q121 0 179 65.5t58 216.5v1016h189v-1040q0 -428 -412 -428zM313 1583l176 293h232l-252 -293h-156z" />
    <glyph glyph-name="Ccedilla.ss01" horiz-adv-x="1411" 
d="M727 1315q-207 0 -324.5 -157t-117.5 -429t116.5 -429t319.5 -157q162 0 268.5 96.5t128.5 262.5h197q-23 -246 -180.5 -388.5t-413.5 -142.5q-195 0 -337 91.5t-219 262.5t-77 404.5t77 404.5t221 262t328.5 91t312.5 -66.5t199.5 -185.5t80.5 -270h-195
q-14 162 -117.5 256t-267.5 94zM397 -432l265 332h163l-202 -332h-226z" />
    <glyph glyph-name="Scedilla.ss01" horiz-adv-x="1247" 
d="M922 1008q0 317 -334 317q-135 0 -212 -61.5t-77 -151.5t37 -136t109.5 -76t222.5 -66t252 -80q226 -96 227 -353q0 -129 -64.5 -226t-182.5 -150.5t-275 -53.5q-258 0 -401.5 131t-143.5 381h194q0 -176 92.5 -263t254.5 -87t246.5 67.5t84.5 190.5q0 143 -148 199
q-73 28 -224.5 66t-251.5 82q-222 97 -222 347q0 117 59.5 208t169 142.5t255.5 51.5q260 0 391 -121t131 -358h-190zM299 -432l264 332h164l-203 -332h-225z" />
    <glyph glyph-name="uni0162.ss01" horiz-adv-x="1226" 
d="M709 1290v-1290h-191v1290h-498v168h1186v-168h-497zM295 -432l264 332h164l-203 -332h-225z" />
    <glyph glyph-name="i.loclTRK" horiz-adv-x="499" 
d="M160 0v1040h180v-1040h-180zM160 1255v203h180v-203h-180z" />
    <glyph glyph-name="j.acute.loclNLD" horiz-adv-x="509" 
d="M51 -387q-57 0 -96 10v144q31 -6 59 -7q80 0 118 44t38 153v1083h180v-1099q0 -170 -78.5 -249t-220.5 -79zM125 1165l176 293h231l-251 -293h-156z" />
    <glyph glyph-name="ccedilla.ss01" horiz-adv-x="1093" 
d="M571 922q-137 0 -217 -107.5t-80 -294t79 -294t218 -107.5q106 0 177 74.5t81 189.5h189q-10 -119 -67.5 -212t-155 -146.5t-235 -53.5t-247.5 66.5t-169.5 190.5t-59.5 292t59.5 292t170 190.5t246.5 66.5t233.5 -50t156 -140.5t68.5 -206.5h-189q-10 111 -80.5 180.5
t-177.5 69.5zM252 -432l264 332h164l-203 -332h-225z" />
    <glyph glyph-name="scedilla.ss01" horiz-adv-x="1011" 
d="M895 715h-176q0 104 -60.5 159.5t-163 55.5t-156.5 -40t-54 -100.5t25.5 -89t72.5 -45t167 -45.5t194.5 -57.5t129 -93t54.5 -191t-111.5 -212t-309.5 -85.5t-311.5 96.5t-115.5 278.5h182q0 -111 66.5 -171t179 -60t174 43t61.5 107t-28.5 97t-84 52.5t-177 49.5
t-187 55.5t-114 84t-48.5 178t107.5 203.5t289 84t288 -92t106.5 -262zM195 -432l264 332h164l-203 -332h-225z" />
    <glyph glyph-name="uni0163.ss01" horiz-adv-x="655" 
d="M383 309q0 -169 126 -167q60 0 91 10v-148q-45 -12 -115 -12q-150 0 -216 69.5t-66 229.5v606h-180v143h180v252h180v-252h207v-143h-207v-588zM47 -432l264 332h164l-203 -332h-225z" />
    <glyph glyph-name="a.sups" horiz-adv-x="804" 
d="M207 886q0 -50 37 -81t116 -31t122 42t55 76t12 93v39q-250 -23 -296 -55.5t-46 -82.5zM698 1137v-269q0 -111 19 -192h-139q-10 55 -11 102h-4q-84 -119 -258 -119q-117 0 -186.5 60.5t-69.5 157t66.5 152.5t226.5 81q145 18 207 23v24q0 156 -158 156q-74 0 -113.5 -35
t-41.5 -96h-156q6 106 87 174.5t227 68.5t225 -72.5t79 -215.5z" />
    <glyph glyph-name="b.sups" horiz-adv-x="866" 
d="M258 1042.5q0 -118.5 53.5 -189.5t140.5 -71t140 71t53 189t-53 189.5t-140 71.5t-140.5 -71t-53.5 -189.5zM492 1425q143 0 229 -103.5t86 -279.5t-87 -280.5t-231 -104.5q-72 0 -132 33t-89 86h-4v-100h-151v1020h153v-385h4q31 51 91.5 82.5t130.5 31.5z" />
    <glyph glyph-name="c.sups" horiz-adv-x="804" 
d="M412 1298q-82 0 -135.5 -69.5t-53.5 -188t53.5 -188.5t133.5 -70t128 49.5t52 120.5h162q-10 -131 -100 -214t-244 -83t-251.5 103.5t-97.5 282t97.5 281.5t251.5 103t243.5 -81.5t100.5 -202.5h-162q-4 63 -50 110t-128 47z" />
    <glyph glyph-name="d.sups" horiz-adv-x="866" 
d="M221 1041q0 -118 53.5 -188.5t141.5 -70.5t140 71t52 189.5t-52 189.5t-140 71t-141.5 -72t-53.5 -190zM754 676h-152v100h-2q-31 -53 -91 -86t-132 -33q-143 0 -230.5 104.5t-87.5 279.5t86 279.5t232 104.5q70 0 129 -31.5t90 -82.5h4v385h154v-1020z" />
    <glyph glyph-name="e.sups" horiz-adv-x="827" 
d="M416 1311q-82 0 -136.5 -50.5t-64.5 -144.5h399q-10 94 -63 144.5t-135 50.5zM406.5 655q-156.5 0 -252 107.5t-95.5 280t96.5 277.5t262.5 105q129 0 216 -66.5t118 -182.5q16 -59 16 -168h-555q4 -121 61.5 -179.5t138.5 -58.5t129 35t60 90h160q-20 -102 -109.5 -171
t-246 -69z" />
    <glyph glyph-name="egrave.sups" horiz-adv-x="827" 
d="M423 1311q-153 0 -196 -140l39 -55h348q-8 94 -62 144.5t-129 50.5zM406.5 655q-156.5 0 -252 107.5t-95.5 288.5q0 41 7 73l-48 47h58q31 115 120 184.5t220 69.5t218 -66.5t118 -182.5q16 -59 16 -168h-426l27 -39h-148l-6 6q12 -104 67.5 -154.5t133.5 -50.5t126 35
t60 90h160q-20 -102 -109.5 -171t-246 -69z" />
    <glyph glyph-name="f.sups" horiz-adv-x="471" 
d="M301 1466v-61h148v-121h-148v-608h-154v608h-127v121h127v80q0 219 222 219q49 0 84 -10v-115q-17 6 -59 6q-92 0 -93 -119z" />
    <glyph glyph-name="g.sups" horiz-adv-x="860" 
d="M219 1058.5q0 -108.5 51.5 -175t139.5 -66.5t141 64.5t53 177t-53 177t-141 64.5t-139.5 -66.5t-51.5 -175zM376 1423q144 0 222 -114h2v96h150v-682q0 -162 -88.5 -244t-244.5 -82t-238.5 61.5t-86.5 172.5h152q2 -57 46 -89t130 -32q178 0 178 215v78h-4
q-82 -111 -222 -111t-226.5 99.5t-86.5 266.5t86.5 266t230.5 99z" />
    <glyph glyph-name="h.sups" horiz-adv-x="864" 
d="M482 1421q136 0 207 -76.5t71 -224.5v-444h-156v432q0 102 -39 145t-118 43t-130 -55t-51 -158v-407h-153v1020h153v-375h4q76 100 212 100z" />
    <glyph glyph-name="i.sups" horiz-adv-x="378" 
d="M113 676v729h153v-729h-153zM113 1544v152h153v-152h-153z" />
    <glyph glyph-name="j.sups" horiz-adv-x="389" 
d="M49 403q-47 0 -80 9v120q16 -4 58 -4t69 28t27 93v756h153v-772q0 -230 -227 -230zM123 1544v152h153v-152h-153z" />
    <glyph glyph-name="k.sups" horiz-adv-x="763" 
d="M266 1032v-356h-153v1020h153v-588h4l275 297h192l-319 -330l356 -399h-201l-303 356h-4z" />
    <glyph glyph-name="l.sups" horiz-adv-x="378" 
d="M113 676v1020h153v-1020h-153z" />
    <glyph glyph-name="m.sups" horiz-adv-x="1290" 
d="M471 1421q162 0 223 -135q80 135 238 135q123 0 188.5 -74.5t65.5 -220.5v-450h-154v436q0 98 -34.5 141t-108.5 43t-118 -58t-44 -159v-403h-156v452q0 168 -139 168q-78 0 -122 -59t-44 -164v-397h-153v729h147v-86h4q86 102 207 102z" />
    <glyph glyph-name="n.sups" horiz-adv-x="864" 
d="M760 1120v-444h-156v432q0 102 -39 145t-118 43t-130 -55t-51 -158v-407h-153v729h147v-90h4q35 47 93.5 76.5t129.5 29.5q131 0 202 -76.5t71 -224.5z" />
    <glyph glyph-name="o.sups" horiz-adv-x="851" 
d="M225 1040.5q0 -120.5 53.5 -190.5t148.5 -70t149.5 70t54.5 190.5t-54.5 190t-149.5 69.5t-148.5 -69.5t-53.5 -190zM793 1040q0 -180 -98.5 -282.5t-267.5 -102.5t-268.5 103.5t-99.5 282t99.5 281.5t268.5 103t267.5 -102.5t98.5 -282.5z" />
    <glyph glyph-name="p.sups" horiz-adv-x="866" 
d="M258 1042.5q0 -118.5 53.5 -189.5t140.5 -71t140 71t53 189t-53 189.5t-140 71.5t-140.5 -71t-53.5 -189.5zM807 1042q0 -176 -86 -280.5t-229 -104.5q-70 0 -130.5 32t-91.5 81h-4v-358h-153v993h151v-98h4q29 53 89.5 85.5t131.5 32.5q144 0 231 -103.5t87 -279.5z" />
    <glyph glyph-name="q.sups" horiz-adv-x="866" 
d="M221 1041q0 -118 53.5 -188.5t141.5 -70.5t140 71t52 189.5t-52 189.5t-140 71t-141.5 -72t-53.5 -190zM602 1307v98h152v-993h-154v358h-4q-31 -51 -90.5 -82t-128.5 -31q-145 0 -231.5 104.5t-86.5 279.5t87 279.5t231 104.5q72 0 132 -32.5t91 -85.5h2z" />
    <glyph glyph-name="r.sups" horiz-adv-x="557" 
d="M483 1272q-104 0 -160.5 -63.5t-56.5 -180.5v-352h-153v729h147v-109h4q78 117 219 117q33 0 60 -6v-141q-27 6 -60 6z" />
    <glyph glyph-name="s.sups" horiz-adv-x="749" 
d="M516 1178q0 66 -40 100.5t-108 34.5t-103.5 -24.5t-35.5 -61.5t17.5 -55.5t49.5 -28.5t118 -32t140 -41t95 -65.5t41 -136.5t-83 -151.5t-231 -61.5t-232.5 66.5t-86.5 196.5h156q0 -72 44 -110t120 -38t117 26.5t41 67.5t-19.5 61.5t-57.5 34t-126 33.5t-136.5 38
t-84 60.5t-35.5 128.5t78 145.5t216 59.5t217 -63.5t81 -183.5h-152z" />
    <glyph glyph-name="t.sups" horiz-adv-x="491" 
d="M297 907q0 -110 85 -110q38 0 69 6v-125q-45 -8 -89 -8q-117 0 -168 50t-51 165v399h-129v121h129v178h154v-178h147v-121h-147v-377z" />
    <glyph glyph-name="u.sups" horiz-adv-x="862" 
d="M104 961v444h154v-432q0 -102 40 -145.5t118 -43.5t129 55.5t51 157.5v408h156v-729h-150v90h-2q-81 -107 -217 -107q-137 0 -208 77t-71 225z" />
    <glyph glyph-name="v.sups" horiz-adv-x="714" 
d="M256 676l-264 729h166l98 -291q61 -186 100 -315h4q41 139 72 231l125 375h166l-262 -729h-205z" />
    <glyph glyph-name="w.sups" horiz-adv-x="1161" 
d="M739 676l-77 299q-35 129 -62 242l-18 71h-2l-78 -313l-80 -299h-217l-195 729h156l72 -293q45 -174 75 -319h4l19 75q41 176 57 236l80 301h215l80 -301q47 -182 76 -311h4l147 612h156l-195 -729h-217z" />
    <glyph glyph-name="x.sups" horiz-adv-x="731" 
d="M735 676h-184l-182 278h-4l-185 -278h-182l272 381l-250 348h183l162 -250h4l161 250h181l-250 -348z" />
    <glyph glyph-name="y.sups" horiz-adv-x="722" 
d="M152 403q-60 0 -105 9v125q25 -9 79 -9t89 31t66 117l-289 729h168l205 -563h4l200 563h162l-289 -752q-39 -98 -79.5 -151t-95.5 -76t-115 -23z" />
    <glyph glyph-name="z.sups" horiz-adv-x="702" 
d="M231 801h433v-125h-625v131l420 469v4h-408v125h600v-131l-420 -469v-4z" />
    <glyph glyph-name="a.smcp" horiz-adv-x="1157" 
d="M774 461l-53 141q-84 219 -141 385h-5q-76 -217 -157 -434l-35 -92h391zM324 299l-113 -299h-201l443 1122h252l442 -1122h-201l-112 299h-510z" />
    <glyph glyph-name="aacute.smcp" horiz-adv-x="1157" 
d="M774 461l-53 141q-84 219 -141 385h-5q-76 -217 -157 -434l-35 -92h391zM324 299l-113 -299h-201l443 1122h252l442 -1122h-201l-112 299h-510zM442 1247l176 293h232l-252 -293h-156z" />
    <glyph glyph-name="abreve.smcp" horiz-adv-x="1157" 
d="M774 461l-53 141q-84 219 -141 385h-5q-76 -217 -157 -434l-35 -92h391zM324 299l-113 -299h-201l443 1122h252l442 -1122h-201l-112 299h-510zM579.5 1247q-141.5 0 -225.5 77t-94 216h135q8 -80 57.5 -123t127 -43t126 43t58.5 123h133q-10 -139 -93 -216t-224.5 -77z
" />
    <glyph glyph-name="acircumflex.smcp" horiz-adv-x="1157" 
d="M774 461l-53 141q-84 219 -141 385h-5q-76 -217 -157 -434l-35 -92h391zM324 299l-113 -299h-201l443 1122h252l442 -1122h-201l-112 299h-510zM580 1438l-152 -191h-182l233 293h199l233 -293h-182z" />
    <glyph glyph-name="adieresis.smcp" horiz-adv-x="1157" 
d="M774 461l-53 141q-84 219 -141 385h-5q-76 -217 -157 -434l-35 -92h391zM324 299l-113 -299h-201l443 1122h252l442 -1122h-201l-112 299h-510zM694 1337v203h168v-203h-168zM295 1337v203h168v-203h-168z" />
    <glyph glyph-name="agrave.smcp" horiz-adv-x="1157" 
d="M774 461l-53 141q-84 219 -141 385h-5q-76 -217 -157 -434l-35 -92h391zM324 299l-113 -299h-201l443 1122h252l442 -1122h-201l-112 299h-510zM715 1247h-156l-252 293h232z" />
    <glyph glyph-name="amacron.smcp" horiz-adv-x="1157" 
d="M774 461l-53 141q-84 219 -141 385h-5q-76 -217 -157 -434l-35 -92h391zM324 299l-113 -299h-201l443 1122h252l442 -1122h-201l-112 299h-510zM287 1343v132h581v-132h-581z" />
    <glyph glyph-name="aogonek.smcp" horiz-adv-x="1157" 
d="M774 461l-53 141q-84 219 -141 385h-5q-76 -217 -157 -434l-35 -92h391zM1016 -397q-86 0 -136.5 43t-50.5 115t38 126t122 113h-43l-112 299h-510l-113 -299h-201l443 1122h252l442 -1122q-86 -63 -121 -111.5t-35 -97.5q0 -74 82 -74q45 1 80 15v-109q-51 -20 -137 -20
z" />
    <glyph glyph-name="aring.smcp" horiz-adv-x="1157" 
d="M774 461l-53 141q-84 219 -141 385h-5q-76 -217 -157 -434l-35 -92h391zM324 299l-113 -299h-201l443 1122h252l442 -1122h-201l-112 299h-510zM461 1446q0 -49 34.5 -84t84 -35t83 34t33.5 84t-33.5 85t-83 35t-84 -35t-34.5 -84zM784 1445q0 -85 -60 -145.5t-145 -60.5
t-145.5 60.5t-60.5 145.5t60.5 145.5t145.5 60.5t145 -60.5t60 -145.5z" />
    <glyph glyph-name="atilde.smcp" horiz-adv-x="1157" 
d="M774 461l-53 141q-84 219 -141 385h-5q-76 -217 -157 -434l-35 -92h391zM324 299l-113 -299h-201l443 1122h252l442 -1122h-201l-112 299h-510zM438 1397q-84 0 -94 -105h-119q6 113 61.5 174.5t136 61.5t177.5 -60q45 -25 68.5 -35t50.5 -10q82 0 94 105h119
q-6 -113 -61.5 -174.5t-136 -61.5t-177.5 60q-45 25 -68.5 35t-50.5 10z" />
    <glyph glyph-name="ae.smcp" horiz-adv-x="1601" 
d="M700 963h-24l-238 -480h338zM1497 0h-643l-51 322h-445l-159 -322h-209l567 1122h926v-161h-592l49 -308h506v-159h-481l53 -332h479v-162z" />
    <glyph glyph-name="b.smcp" horiz-adv-x="1120" 
d="M819 324q0 172 -262 172h-197v-342h215q127 0 185.5 41t58.5 129zM555 645q250 0 250 162t-240 162h-205v-324h195zM989 831q0 -193 -196 -253v-5q106 -25 163.5 -92t57.5 -168q0 -143 -107.5 -228t-298.5 -85h-434v1122h408q202 0 304.5 -78.5t102.5 -212.5z" />
    <glyph glyph-name="c.smcp" horiz-adv-x="1202" 
d="M590.5 983q-138.5 0 -227.5 -112.5t-89 -309t89.5 -309.5t242.5 -113q121 0 201 66.5t96 185.5h199q-18 -197 -149.5 -308.5t-362 -111.5t-371.5 157t-141 432t141 433t373.5 158t362.5 -113.5t141 -300.5h-195q-12 117 -92 181.5t-218.5 64.5z" />
    <glyph glyph-name="cacute.smcp" horiz-adv-x="1202" 
d="M590.5 983q-138.5 0 -227.5 -112.5t-89 -309t89.5 -309.5t242.5 -113q121 0 201 66.5t96 185.5h199q-18 -197 -149.5 -308.5t-362 -111.5t-371.5 157t-141 432t141 433t373.5 158t362.5 -113.5t141 -300.5h-195q-12 117 -92 181.5t-218.5 64.5zM469 1247l176 293h232
l-252 -293h-156z" />
    <glyph glyph-name="ccaron.smcp" horiz-adv-x="1202" 
d="M590.5 983q-138.5 0 -227.5 -112.5t-89 -309t89.5 -309.5t242.5 -113q121 0 201 66.5t96 185.5h199q-18 -197 -149.5 -308.5t-362 -111.5t-371.5 157t-141 432t141 433t373.5 158t362.5 -113.5t141 -300.5h-195q-12 117 -92 181.5t-218.5 64.5zM506 1247l-234 293h183
l151 -190l150 190h182l-233 -293h-199z" />
    <glyph glyph-name="ccedilla.smcp" horiz-adv-x="1202" 
d="M582 -362q114 0 114 83q0 39 -29.5 62.5t-72.5 23.5t-70 -12l-37 41l91 135q-233 10 -366.5 166t-133.5 427t141 429t373.5 158t362.5 -113.5t141 -300.5h-195q-12 117 -92 181.5t-218.5 64.5t-227.5 -112.5t-89 -309t89.5 -309.5t242.5 -113q121 0 201 66.5t96 185.5
h199q-17 -180 -129.5 -289.5t-298.5 -126.5l-66 -102q37 6 54 6q68 0 115.5 -42t47.5 -113.5t-58 -123t-168 -51.5t-214 56l37 76q74 -43 160 -43z" />
    <glyph glyph-name="ccircumflex.smcp" horiz-adv-x="1202" 
d="M590.5 983q-138.5 0 -227.5 -112.5t-89 -309t89.5 -309.5t242.5 -113q121 0 201 66.5t96 185.5h199q-18 -197 -149.5 -308.5t-362 -111.5t-371.5 157t-141 432t141 433t373.5 158t362.5 -113.5t141 -300.5h-195q-12 117 -92 181.5t-218.5 64.5zM606 1438l-151 -191h-183
l234 293h199l233 -293h-182z" />
    <glyph glyph-name="cdotaccent.smcp" horiz-adv-x="1202" 
d="M590.5 983q-138.5 0 -227.5 -112.5t-89 -309t89.5 -309.5t242.5 -113q121 0 201 66.5t96 185.5h199q-18 -197 -149.5 -308.5t-362 -111.5t-371.5 157t-141 432t141 433t373.5 158t362.5 -113.5t141 -300.5h-195q-12 117 -92 181.5t-218.5 64.5zM516 1337v203h180v-203
h-180z" />
    <glyph glyph-name="d.smcp" horiz-adv-x="1247" 
d="M360 164h189q207 0 315.5 102.5t108.5 295t-108.5 294.5t-315.5 102h-189v-794zM1169 561q0 -270 -160.5 -415.5t-459.5 -145.5h-375v1122h375q299 0 459.5 -145.5t160.5 -415.5z" />
    <glyph glyph-name="eth.smcp" horiz-adv-x="1251" 
d="M977 561.5q0 192.5 -108.5 294.5t-315.5 102h-188v-323h299v-135h-299v-336h188q207 0 315.5 102.5t108.5 295zM1174 561q0 -270 -161 -415.5t-460 -145.5h-375v500h-129v135h129v487h375q299 0 460 -145.5t161 -415.5z" />
    <glyph glyph-name="dcaron.smcp" horiz-adv-x="1247" 
d="M360 164h189q207 0 315.5 102.5t108.5 295t-108.5 294.5t-315.5 102h-189v-794zM1169 561q0 -270 -160.5 -415.5t-459.5 -145.5h-375v1122h375q299 0 459.5 -145.5t160.5 -415.5zM475 1247l-233 293h182l151 -190l150 190h182l-233 -293h-199z" />
    <glyph glyph-name="dcroat.smcp" horiz-adv-x="1251" 
d="M977 561q0 193 -109 295t-315 102h-188v-323h299v-135h-299v-336h188q206 0 315 102t109 295zM1174 562q0 -270 -161 -416t-460 -146h-375v500h-129v135h129v487h375q299 0 460 -145t161 -415z" />
    <glyph glyph-name="e.smcp" horiz-adv-x="1077" 
d="M362 961v-308h566v-159h-566v-332h617v-162h-805v1122h789v-161h-601z" />
    <glyph glyph-name="eacute.smcp" horiz-adv-x="1077" 
d="M362 961v-308h566v-159h-566v-332h617v-162h-805v1122h789v-161h-601zM432 1247l176 293h232l-252 -293h-156z" />
    <glyph glyph-name="ebreve.smcp" horiz-adv-x="1077" 
d="M362 961v-308h566v-159h-566v-332h617v-162h-805v1122h789v-161h-601zM571.5 1247q-141.5 0 -225.5 77t-94 216h135q8 -80 57.5 -123t127 -43t125.5 43t59 123h133q-10 -139 -93 -216t-224.5 -77z" />
    <glyph glyph-name="ecaron.smcp" horiz-adv-x="1077" 
d="M362 961v-308h566v-159h-566v-332h617v-162h-805v1122h789v-161h-601zM469 1247l-233 293h182l151 -190l150 190h182l-233 -293h-199z" />
    <glyph glyph-name="ecircumflex.smcp" horiz-adv-x="1077" 
d="M362 961v-308h566v-159h-566v-332h617v-162h-805v1122h789v-161h-601zM569 1438l-151 -191h-182l233 293h199l233 -293h-182z" />
    <glyph glyph-name="edieresis.smcp" horiz-adv-x="1077" 
d="M362 961v-308h566v-159h-566v-332h617v-162h-805v1122h789v-161h-601zM684 1337v203h168v-203h-168zM285 1337v203h168v-203h-168z" />
    <glyph glyph-name="edotaccent.smcp" horiz-adv-x="1077" 
d="M362 961v-308h566v-159h-566v-332h617v-162h-805v1122h789v-161h-601zM479 1337v203h180v-203h-180z" />
    <glyph glyph-name="egrave.smcp" horiz-adv-x="1077" 
d="M362 961v-308h566v-159h-566v-332h617v-162h-805v1122h789v-161h-601zM707 1247h-156l-252 293h231z" />
    <glyph glyph-name="emacron.smcp" horiz-adv-x="1077" 
d="M362 961v-308h566v-159h-566v-332h617v-162h-805v1122h789v-161h-601zM279 1343v132h581v-132h-581z" />
    <glyph glyph-name="eogonek.smcp" horiz-adv-x="1077" 
d="M848 -397q-86 0 -136 43t-50 115t37.5 126t121.5 113h-647v1122h789v-161h-601v-308h566v-159h-566v-332h617v-162q-86 -63 -121 -111.5t-35 -97.5q0 -74 82 -74q45 1 80 15v-109q-51 -20 -137 -20z" />
    <glyph glyph-name="f.smcp" horiz-adv-x="995" 
d="M360 958v-340h543v-163h-543v-455h-186v1122h766v-164h-580z" />
    <glyph glyph-name="fi.smcp" horiz-adv-x="1531" 
d="M360 958v-340h543v-163h-543v-455h-186v1122h766v-164h-580zM1169 0v1122h189v-1122h-189z" />
    <glyph glyph-name="fl.smcp" horiz-adv-x="1970" 
d="M360 958v-340h543v-163h-543v-455h-186v1122h766v-164h-580zM1950 164v-164h-781v1122h189v-958h592z" />
    <glyph glyph-name="g.smcp" horiz-adv-x="1263" 
d="M625 985q-160 0 -255.5 -114.5t-95.5 -311.5t91.5 -310.5t242.5 -113.5t236.5 80t87.5 242h-309v153h487v-610h-168v129h-4q-49 -70 -145.5 -111t-231.5 -41t-247.5 70t-174 201t-61.5 312t66.5 314.5t190.5 205t309 71.5t316.5 -98.5t151.5 -268.5h-201
q-20 98 -94 149.5t-192 51.5z" />
    <glyph glyph-name="gbreve.smcp" horiz-adv-x="1263" 
d="M625 985q-160 0 -255.5 -114.5t-95.5 -311.5t91.5 -310.5t242.5 -113.5t236.5 80t87.5 242h-309v153h487v-610h-168v129h-4q-49 -70 -145.5 -111t-231.5 -41t-247.5 70t-174 201t-61.5 312t66.5 314.5t190.5 205t309 71.5t316.5 -98.5t151.5 -268.5h-201
q-20 98 -94 149.5t-192 51.5zM614.5 1247q-141.5 0 -225.5 77t-94 216h135q8 -80 57.5 -123t127 -43t125.5 43t59 123h133q-10 -139 -93 -216t-224.5 -77z" />
    <glyph glyph-name="gcircumflex.smcp" horiz-adv-x="1263" 
d="M625 985q-160 0 -255.5 -114.5t-95.5 -311.5t91.5 -310.5t242.5 -113.5t236.5 80t87.5 242h-309v153h487v-610h-168v129h-4q-49 -70 -145.5 -111t-231.5 -41t-247.5 70t-174 201t-61.5 312t66.5 314.5t190.5 205t309 71.5t316.5 -98.5t151.5 -268.5h-201
q-20 98 -94 149.5t-192 51.5zM614 1438l-151 -191h-182l233 293h199l233 -293h-182z" />
    <glyph glyph-name="gcommaaccent.smcp" horiz-adv-x="1263" 
d="M625 985q-160 0 -255.5 -114.5t-95.5 -311.5t91.5 -310.5t242.5 -113.5t236.5 80t87.5 242h-309v153h487v-610h-168v129h-4q-49 -70 -145.5 -111t-231.5 -41t-247.5 70t-174 201t-61.5 312t66.5 314.5t190.5 205t309 71.5t316.5 -98.5t151.5 -268.5h-201
q-20 98 -94 149.5t-192 51.5zM528 -315v182h183v-182l-113 -211h-78l78 211h-70z" />
    <glyph glyph-name="gdotaccent.smcp" horiz-adv-x="1263" 
d="M625 985q-160 0 -255.5 -114.5t-95.5 -311.5t91.5 -310.5t242.5 -113.5t236.5 80t87.5 242h-309v153h487v-610h-168v129h-4q-49 -70 -145.5 -111t-231.5 -41t-247.5 70t-174 201t-61.5 312t66.5 314.5t190.5 205t309 71.5t316.5 -98.5t151.5 -268.5h-201
q-20 98 -94 149.5t-192 51.5zM522 1337v203h180v-203h-180z" />
    <glyph glyph-name="h.smcp" horiz-adv-x="1290" 
d="M928 0v500h-566v-500h-188v1122h188v-458h566v458h188v-1122h-188z" />
    <glyph glyph-name="hbar.smcp" horiz-adv-x="1290" 
d="M362 895v-231h566v231h-566zM1116 895v-895h-188v500h-566v-500h-188v895h-92v113h92v114h188v-114h566v114h188v-114h92v-113h-92z" />
    <glyph glyph-name="uni0125.smcp" horiz-adv-x="1290" 
d="M928 0v500h-566v-500h-188v1122h188v-458h566v458h188v-1122h-188zM647 1438l-151 -191h-183l234 293h198l234 -293h-182z" />
    <glyph glyph-name="i.smcp" horiz-adv-x="536" 
d="M174 0v1122h188v-1122h-188z" />
    <glyph glyph-name="iacute.smcp" horiz-adv-x="536" 
d="M174 0v1122h188v-1122h-188zM131 1247l176 293h232l-252 -293h-156z" />
    <glyph glyph-name="ibreve.smcp" horiz-adv-x="536" 
d="M174 0v1122h188v-1122h-188zM268 1247q-129 0 -203.5 77t-80.5 216h129q6 -82 46 -125t109.5 -43t109.5 43t46 125h129q-6 -139 -81 -216t-204 -77z" />
    <glyph glyph-name="icircumflex.smcp" horiz-adv-x="536" 
d="M174 0v1122h188v-1122h-188zM397 1249l-129 191l-127 -191h-176l205 291h197l204 -291h-174z" />
    <glyph glyph-name="idieresis.smcp" horiz-adv-x="536" 
d="M174 0v1122h188v-1122h-188zM342 1337v203h166v-203h-166zM27 1337v203h168v-203h-168z" />
    <glyph glyph-name="i.loclTRK.smcp" horiz-adv-x="536" 
d="M174 0v1122h188v-1122h-188zM178 1337v203h180v-203h-180z" />
    <glyph glyph-name="igrave.smcp" horiz-adv-x="536" 
d="M174 0v1122h188v-1122h-188zM406 1247h-156l-252 293h231z" />
    <glyph glyph-name="ij.smcp" horiz-adv-x="1171" 
d="M174 0v1122h188v-1122h-188zM657 -8q-49 0 -94 10v162q37 -6 72 -6q96 0 141 47t45 162v755h187v-782q-1 -348 -351 -348z" />
    <glyph glyph-name="imacron.smcp" horiz-adv-x="536" 
d="M174 0v1122h188v-1122h-188zM4 1346v133h526v-133h-526z" />
    <glyph glyph-name="iogonek.smcp" horiz-adv-x="536" 
d="M232 -397q-86 0 -136.5 43t-50.5 115t38 126t122 113h-31v1122h188v-1122q-86 -63 -120.5 -111.5t-34.5 -97.5q0 -74 82 -74q45 1 80 15v-109q-51 -20 -137 -20z" />
    <glyph glyph-name="itilde.smcp" horiz-adv-x="536" 
d="M174 0v1122h188v-1122h-188zM387 1419q76 0 84 109h107q-5 -113 -55 -174.5t-136 -61.5q-41 0 -69.5 15.5t-68.5 43.5t-58.5 38t-40.5 10q-76 0 -87 -107h-104q4 113 54 174.5t137 61.5q41 0 69.5 -15.5t81.5 -54.5t86 -39z" />
    <glyph glyph-name="j.smcp" horiz-adv-x="634" 
d="M121 -8q-49 0 -94 10v162q37 -6 71 -6q96 0 141.5 47t45.5 162v755h186v-782q0 -348 -350 -348z" />
    <glyph glyph-name="jcircumflex.smcp" horiz-adv-x="634" 
d="M121 -8q-49 0 -94 10v162q37 -6 71 -6q96 0 141.5 47t45.5 162v755h186v-782q0 -348 -350 -348zM506 1249l-129 191l-127 -191h-176l205 291h196l205 -291h-174z" />
    <glyph glyph-name="k.smcp" horiz-adv-x="1105" 
d="M362 541v-541h-188v1122h188v-497h5l448 497h236l-498 -534l545 -588h-250l-481 541h-5z" />
    <glyph glyph-name="kcommaaccent.smcp" horiz-adv-x="1105" 
d="M362 541v-541h-188v1122h188v-497h5l448 497h236l-498 -534l545 -588h-250l-481 541h-5zM489 -315v182h183v-182l-113 -211h-78l78 211h-70z" />
    <glyph glyph-name="l.smcp" horiz-adv-x="974" 
d="M954 164v-164h-780v1122h188v-958h592z" />
    <glyph glyph-name="lacute.smcp" horiz-adv-x="974" 
d="M954 164v-164h-780v1122h188v-958h592zM197 1247l176 293h231l-252 -293h-155z" />
    <glyph glyph-name="lcaron.smcp" horiz-adv-x="974" 
d="M954 164v-164h-780v1122h188v-958h592zM467 762l59 360h164l-112 -360h-111z" />
    <glyph glyph-name="lcommaaccent.smcp" horiz-adv-x="974" 
d="M954 164v-164h-780v1122h188v-958h592zM465 -315v182h182v-182l-112 -211h-78l78 211h-70z" />
    <glyph glyph-name="ldot.smcp" horiz-adv-x="1097" 
d="M707 580v239h221v-239h-221zM954 164v-164h-780v1122h188v-958h592z" />
    <glyph glyph-name="j.acute.loclNLD.smcp" horiz-adv-x="634" 
d="M121 -8q-49 0 -94 10v162q37 -6 71 -6q96 0 141.5 47t45.5 162v755h186v-782q0 -348 -350 -348zM240 1247l176 293h231l-252 -293h-155z" />
    <glyph glyph-name="lslash.smcp" horiz-adv-x="966" 
d="M946 0h-780v481l-137 -78v154l137 78v487h188v-395l236 133v-153l-236 -132v-411h592v-164z" />
    <glyph glyph-name="m.smcp" horiz-adv-x="1642" 
d="M1286 0v555q0 139 4 414h-4q-94 -272 -147 -414l-207 -555h-221l-205 555q-82 221 -150 414h-4q4 -137 4 -414v-555h-182v1122h303l195 -526q98 -266 147 -424h4q78 233 150 424l192 526h303v-1122h-182z" />
    <glyph glyph-name="n.smcp" horiz-adv-x="1327" 
d="M356 434v-434h-182v1122h279l260 -471q158 -287 258 -479h4q-4 344 -4 516v434h182v-1122h-276l-261 471q-166 297 -260 479h-4q4 -172 4 -516z" />
    <glyph glyph-name="nacute.smcp" horiz-adv-x="1327" 
d="M356 434v-434h-182v1122h279l260 -471q158 -287 258 -479h4q-4 344 -4 516v434h182v-1122h-276l-261 471q-166 297 -260 479h-4q4 -172 4 -516zM526 1247l176 293h232l-252 -293h-156z" />
    </font>
</defs>
</svg>
